<svg width="32" height="32" viewBox="0 0 32 32" fill="none" xmlns="http://www.w3.org/2000/svg">
<path d="M10.6668 26.667V18.667H21.3335V26.667H25.3335V5.33366H6.66683V26.667H10.6668ZM13.3335 26.667H18.6668V21.3337H13.3335V26.667ZM28.0002 26.667H30.6668V29.3337H1.3335V26.667H4.00016V4.00033C4.00016 3.6467 4.14064 3.30756 4.39069 3.05752C4.64074 2.80747 4.97987 2.66699 5.3335 2.66699H26.6668C27.0205 2.66699 27.3596 2.80747 27.6096 3.05752C27.8597 3.30756 28.0002 3.6467 28.0002 4.00033V26.667ZM14.6668 10.667V8.00033H17.3335V10.667H20.0002V13.3337H17.3335V16.0003H14.6668V13.3337H12.0002V10.667H14.6668Z" fill="#F3EA12"/>
</svg>
