<svg width="35" height="35" viewBox="0 0 35 35" fill="none" xmlns="http://www.w3.org/2000/svg">
<rect width="8.52864" height="25.5859" rx="2" transform="matrix(-1 0 0 1 21.7568 4.69922)" fill="#457AFF"/>
<rect width="8.52864" height="25.5859" rx="2" transform="matrix(0 -1 -1 0 30.2856 21.7578)" fill="#457AFF"/>
<path d="M29.4267 18.846V17.4614C29.4267 17.1613 29.1834 16.918 28.8833 16.918C28.765 16.918 28.65 16.9566 28.5557 17.0279L28.4756 17.0884C28.2398 17.2667 28.1146 17.5556 28.1457 17.8496L28.1678 18.0576C28.2437 18.7739 27.6822 19.3981 26.9619 19.3981H26.2744C26.0206 19.3981 25.7979 19.5673 25.7299 19.8118C25.6298 20.1719 25.9006 20.5282 26.2744 20.5282H27.7445C28.6736 20.5282 29.4267 19.7751 29.4267 18.846Z" fill="white"/>
<path d="M14.3847 27.9528C14.266 27.2105 14.9443 26.9442 15.5226 27.4244C15.7518 27.6147 15.9844 27.7347 16.2097 27.7207C17.8569 27.8133 18.9901 27.8056 19.7612 27.7042C20.1325 27.6553 20.5055 27.9318 20.5055 28.3063C20.5055 28.6085 20.2605 28.8534 19.9583 28.8534H15.6404C15.343 28.8534 15.0544 28.7517 14.8228 28.5651L14.6674 28.44C14.5162 28.3182 14.4154 28.1446 14.3847 27.9528Z" fill="white"/>
<path d="M8.24704 14.4837C8.53541 14.8755 8.24274 15.4073 7.75641 15.4183C7.23821 15.43 6.95876 15.5287 6.84009 15.8815C6.68123 16.3538 6.15365 16.6808 5.77291 16.3593C5.67836 16.2795 5.611 16.1701 5.59416 16.0475C5.37546 14.4554 6.83247 13.8908 8.00596 14.2993C8.10369 14.3333 8.1857 14.4004 8.24704 14.4837Z" fill="#FAFCFF"/>
</svg>
