<svg width="32" height="32" viewBox="0 0 32 32" fill="none" xmlns="http://www.w3.org/2000/svg">
<path d="M10.6666 26.6666V18.6666H21.3333V26.6666H25.3333V5.33329H6.66658V26.6666H10.6666ZM13.3333 26.6666H18.6666V21.3333H13.3333V26.6666ZM27.9999 26.6666H30.6666V29.3333H1.33325V26.6666H3.99992V3.99996C3.99992 3.64634 4.14039 3.3072 4.39044 3.05715C4.64049 2.8071 4.97963 2.66663 5.33325 2.66663H26.6666C27.0202 2.66663 27.3593 2.8071 27.6094 3.05715C27.8594 3.3072 27.9999 3.64634 27.9999 3.99996V26.6666ZM14.6666 10.6666V7.99996H17.3333V10.6666H19.9999V13.3333H17.3333V16H14.6666V13.3333H11.9999V10.6666H14.6666Z" fill="#F9F9F9"/>
</svg>
