<svg width="32" height="32" viewBox="0 0 32 32" fill="none" xmlns="http://www.w3.org/2000/svg">
<path d="M25.1431 21.7144H27.4288V27.4286H25.1431V21.7144Z" fill="#F9F9F9"/>
<path d="M20.5713 16H22.857V27.4286H20.5713V16Z" fill="#F9F9F9"/>
<path d="M10.2856 27.4286C8.77061 27.4268 7.31821 26.8241 6.24697 25.7529C5.17573 24.6816 4.5731 23.2293 4.57129 21.7143H6.857C6.857 22.3924 7.05809 23.0553 7.43482 23.6191C7.81156 24.1829 8.34703 24.6224 8.97352 24.8819C9.60001 25.1414 10.2894 25.2093 10.9545 25.077C11.6195 24.9447 12.2304 24.6181 12.7099 24.1387C13.1894 23.6592 13.516 23.0482 13.6483 22.3832C13.7806 21.7181 13.7127 21.0287 13.4532 20.4022C13.1937 19.7757 12.7542 19.2403 12.1904 18.8635C11.6266 18.4868 10.9637 18.2857 10.2856 18.2857V16C11.8011 16 13.2545 16.602 14.3262 17.6737C15.3978 18.7453 15.9999 20.1988 15.9999 21.7143C15.9999 23.2298 15.3978 24.6833 14.3262 25.7549C13.2545 26.8265 11.8011 27.4286 10.2856 27.4286Z" fill="#F9F9F9"/>
<path d="M29.7143 0H2.28571C1.67969 0.000605116 1.09866 0.241615 0.670139 0.670139C0.241615 1.09866 0.000605116 1.67969 0 2.28571V29.7143C0.000605116 30.3203 0.241615 30.9013 0.670139 31.3299C1.09866 31.7584 1.67969 31.9994 2.28571 32H29.7143C30.3202 31.9991 30.9011 31.758 31.3295 31.3295C31.758 30.9011 31.9991 30.3202 32 29.7143V2.28571C31.9994 1.67969 31.7584 1.09866 31.3299 0.670139C30.9013 0.241615 30.3203 0.000605116 29.7143 0ZM29.7143 10.2857H13.7143V2.28571H29.7143V10.2857ZM11.4286 2.28571V10.2857H2.28571V2.28571H11.4286ZM2.28571 29.7143V12.5714H29.7143L29.7166 29.7143H2.28571Z" fill="#F9F9F9"/>
</svg>
