<svg width="30" height="30" viewBox="0 0 30 30" fill="none" xmlns="http://www.w3.org/2000/svg">
<path d="M10.8838 24.6338L22.5 13.0175L16.9825 7.50003L5.36625 19.1163C5.20633 19.2764 5.09273 19.4768 5.0375 19.6963L3.75 26.25L10.3025 24.9625C10.5225 24.9075 10.7238 24.7938 10.8838 24.6338ZM26.25 9.26753C26.7187 8.79871 26.982 8.16294 26.982 7.50003C26.982 6.83712 26.7187 6.20135 26.25 5.73253L24.2675 3.75003C23.7987 3.28135 23.1629 3.01807 22.5 3.01807C21.8371 3.01807 21.2013 3.28135 20.7325 3.75003L18.75 5.73253L24.2675 11.25L26.25 9.26753Z" fill="#666666"/>
</svg>
