<svg width="50" height="50" viewBox="0 0 50 50" fill="none" xmlns="http://www.w3.org/2000/svg">
<circle cx="25" cy="25" r="25" fill="#F9F9F9"/>
<rect width="13.3333" height="40" rx="2" transform="matrix(-1 0 0 1 31.6667 5)" fill="#457AFF"/>
<rect width="13.3333" height="40" rx="2" transform="matrix(0 -1 -1 0 45 31.6667)" fill="#457AFF"/>
<path d="M43.6572 27.1176V24.953C43.6572 24.4838 43.2768 24.1034 42.8076 24.1035C42.6227 24.1035 42.4429 24.1638 42.2955 24.2753L42.1703 24.3699C41.8015 24.6486 41.6058 25.1002 41.6546 25.5598L41.689 25.885C41.8078 27.0048 40.9299 27.9807 39.8038 27.9807H38.7289C38.3322 27.9807 37.9841 28.2452 37.8778 28.6275C37.7213 29.1904 38.1446 29.7475 38.7289 29.7475H41.0273C42.4798 29.7475 43.6572 28.5701 43.6572 27.1176Z" fill="white"/>
<path d="M20.1415 41.3536C19.9558 40.1932 21.0162 39.7768 21.9203 40.5275C22.2786 40.825 22.6423 41.0126 22.9946 40.9907C25.5698 41.1356 27.3412 41.1235 28.5469 40.9649C29.1273 40.8886 29.7103 41.3209 29.7103 41.9063C29.7103 42.3787 29.3274 42.7617 28.8549 42.7617H22.1046C21.6395 42.7617 21.1884 42.6026 20.8262 42.3109L20.5834 42.1153C20.3469 41.9249 20.1894 41.6535 20.1415 41.3536Z" fill="white"/>
<path d="M10.5456 20.2964C10.9964 20.9089 10.5389 21.7403 9.77859 21.7575C8.96845 21.7758 8.53157 21.9301 8.34604 22.4818C8.0977 23.2201 7.2729 23.7313 6.67766 23.2287C6.52985 23.1039 6.42454 22.9329 6.39821 22.7413C6.05631 20.2521 8.33414 19.3695 10.1687 20.0081C10.3215 20.0613 10.4497 20.1661 10.5456 20.2964Z" fill="#FAFCFF"/>
</svg>
