<svg width="302" height="66" viewBox="0 0 302 66" fill="none" xmlns="http://www.w3.org/2000/svg">
<circle cx="25" cy="33" r="25" fill="#F9F9F9"/>
<rect width="13.3333" height="40" rx="2" transform="matrix(-1 0 0 1 31.6667 13)" fill="#457AFF"/>
<rect width="13.3333" height="40" rx="2" transform="matrix(0 -1 -1 0 45 39.6667)" fill="#457AFF"/>
<path d="M43.6572 35.1176V32.953C43.6572 32.4838 43.2768 32.1034 42.8076 32.1035C42.6227 32.1035 42.4429 32.1638 42.2955 32.2753L42.1703 32.3699C41.8015 32.6486 41.6058 33.1002 41.6546 33.5598L41.689 33.885C41.8078 35.0048 40.9299 35.9807 39.8038 35.9807H38.7289C38.3322 35.9807 37.9841 36.2452 37.8778 36.6275C37.7213 37.1904 38.1446 37.7475 38.7289 37.7475H41.0273C42.4798 37.7475 43.6572 36.5701 43.6572 35.1176Z" fill="white"/>
<path d="M20.1415 49.3536C19.9558 48.1932 21.0162 47.7768 21.9203 48.5275C22.2786 48.825 22.6423 49.0126 22.9946 48.9907C25.5698 49.1356 27.3412 49.1235 28.5469 48.9649C29.1273 48.8886 29.7103 49.3209 29.7103 49.9063C29.7103 50.3787 29.3274 50.7617 28.8549 50.7617H22.1046C21.6395 50.7617 21.1884 50.6026 20.8262 50.3109L20.5834 50.1153C20.3469 49.9249 20.1894 49.6535 20.1415 49.3536Z" fill="white"/>
<path d="M10.5456 28.2964C10.9964 28.9089 10.5389 29.7403 9.77859 29.7575C8.96845 29.7758 8.53157 29.9301 8.34604 30.4818C8.0977 31.2201 7.2729 31.7313 6.67766 31.2287C6.52985 31.1039 6.42454 30.9329 6.39821 30.7413C6.05631 28.2521 8.33414 27.3695 10.1687 28.0081C10.3215 28.0613 10.4497 28.1661 10.5456 28.2964Z" fill="#FAFCFF"/>
<path d="M71.0059 27.252C69.4108 27.252 68.1758 27.8535 67.3008 29.0566C66.4258 30.2507 65.9883 31.9186 65.9883 34.0605C65.9883 38.5176 67.6608 40.7461 71.0059 40.7461C72.4095 40.7461 74.1094 40.3952 76.1055 39.6934V43.248C74.4648 43.9316 72.6328 44.2734 70.6094 44.2734C67.7018 44.2734 65.4779 43.3939 63.9375 41.6348C62.3971 39.8665 61.627 37.3327 61.627 34.0332C61.627 31.9551 62.0052 30.1367 62.7617 28.5781C63.5182 27.0104 64.6029 25.8118 66.0156 24.9824C67.4375 24.1439 69.1009 23.7246 71.0059 23.7246C72.9473 23.7246 74.8978 24.194 76.8574 25.1328L75.4902 28.5781C74.7428 28.2227 73.9909 27.9128 73.2344 27.6484C72.4779 27.3841 71.735 27.252 71.0059 27.252ZM86.373 31.3945C85.4889 31.3945 84.7962 31.6771 84.2949 32.2422C83.7936 32.7982 83.5065 33.5911 83.4336 34.6211H89.2852C89.2669 33.5911 88.998 32.7982 88.4785 32.2422C87.959 31.6771 87.2572 31.3945 86.373 31.3945ZM86.9609 44.2734C84.5 44.2734 82.5768 43.5944 81.1914 42.2363C79.806 40.8783 79.1133 38.9551 79.1133 36.4668C79.1133 33.9056 79.7513 31.9277 81.0273 30.5332C82.3125 29.1296 84.0853 28.4277 86.3457 28.4277C88.5059 28.4277 90.1875 29.043 91.3906 30.2734C92.5938 31.5039 93.1953 33.2038 93.1953 35.373V37.3965H83.3379C83.3835 38.5814 83.7344 39.5065 84.3906 40.1719C85.0469 40.8372 85.9674 41.1699 87.1523 41.1699C88.0729 41.1699 88.9434 41.0742 89.7637 40.8828C90.584 40.6914 91.4408 40.3861 92.334 39.9668V43.1934C91.6048 43.5579 90.8255 43.8268 89.9961 44C89.1667 44.1823 88.1549 44.2734 86.9609 44.2734ZM110.695 44H106.525V35.0723C106.525 33.9694 106.329 33.1445 105.938 32.5977C105.546 32.0417 104.921 31.7637 104.064 31.7637C102.898 31.7637 102.055 32.1556 101.535 32.9395C101.016 33.7142 100.756 35.0039 100.756 36.8086V44H96.5859V28.7148H99.7715L100.332 30.6699H100.564C101.029 29.9316 101.667 29.3757 102.479 29.002C103.299 28.6191 104.229 28.4277 105.268 28.4277C107.045 28.4277 108.394 28.9108 109.314 29.877C110.235 30.834 110.695 32.2194 110.695 34.0332V44ZM121.428 40.9512C122.157 40.9512 123.032 40.7917 124.053 40.4727V43.5762C123.014 44.041 121.738 44.2734 120.225 44.2734C118.557 44.2734 117.34 43.8542 116.574 43.0156C115.818 42.168 115.439 40.901 115.439 39.2148V31.8457H113.443V30.082L115.74 28.6875L116.943 25.4609H119.609V28.7148H123.889V31.8457H119.609V39.2148C119.609 39.8073 119.773 40.2448 120.102 40.5273C120.439 40.8099 120.881 40.9512 121.428 40.9512ZM137.984 44L137.424 42.0449H137.205C136.758 42.7559 136.125 43.3073 135.305 43.6992C134.484 44.082 133.55 44.2734 132.502 44.2734C130.706 44.2734 129.353 43.7949 128.441 42.8379C127.53 41.8717 127.074 40.4863 127.074 38.6816V28.7148H131.244V37.6426C131.244 38.7454 131.44 39.5749 131.832 40.1309C132.224 40.6777 132.848 40.9512 133.705 40.9512C134.872 40.9512 135.715 40.5638 136.234 39.7891C136.754 39.0052 137.014 37.7109 137.014 35.9062V28.7148H141.184V44H137.984ZM154.09 28.4277C154.655 28.4277 155.124 28.4688 155.498 28.5508L155.184 32.4609C154.846 32.3698 154.436 32.3242 153.953 32.3242C152.622 32.3242 151.583 32.666 150.836 33.3496C150.098 34.0332 149.729 34.9902 149.729 36.2207V44H145.559V28.7148H148.717L149.332 31.2852H149.537C150.011 30.4284 150.649 29.7402 151.451 29.2207C152.262 28.6921 153.142 28.4277 154.09 28.4277ZM156.086 28.7148H160.652L163.537 37.3145C163.783 38.0618 163.952 38.946 164.043 39.9668H164.125C164.225 39.028 164.421 38.1439 164.713 37.3145L167.543 28.7148H172.014L165.547 45.9551C164.954 47.5501 164.107 48.7441 163.004 49.5371C161.91 50.3301 160.63 50.7266 159.162 50.7266C158.442 50.7266 157.736 50.6491 157.043 50.4941V47.1855C157.544 47.304 158.091 47.3633 158.684 47.3633C159.422 47.3633 160.064 47.1354 160.611 46.6797C161.167 46.2331 161.6 45.554 161.91 44.6426L162.156 43.8906L156.086 28.7148ZM198.195 44H193.971V35.373H186.055V44H181.816V24.0117H186.055V31.8457H193.971V24.0117H198.195V44ZM209.256 31.3945C208.372 31.3945 207.679 31.6771 207.178 32.2422C206.676 32.7982 206.389 33.5911 206.316 34.6211H212.168C212.15 33.5911 211.881 32.7982 211.361 32.2422C210.842 31.6771 210.14 31.3945 209.256 31.3945ZM209.844 44.2734C207.383 44.2734 205.46 43.5944 204.074 42.2363C202.689 40.8783 201.996 38.9551 201.996 36.4668C201.996 33.9056 202.634 31.9277 203.91 30.5332C205.195 29.1296 206.968 28.4277 209.229 28.4277C211.389 28.4277 213.07 29.043 214.273 30.2734C215.477 31.5039 216.078 33.2038 216.078 35.373V37.3965H206.221C206.266 38.5814 206.617 39.5065 207.273 40.1719C207.93 40.8372 208.85 41.1699 210.035 41.1699C210.956 41.1699 211.826 41.0742 212.646 40.8828C213.467 40.6914 214.324 40.3861 215.217 39.9668V43.1934C214.488 43.5579 213.708 43.8268 212.879 44C212.049 44.1823 211.038 44.2734 209.844 44.2734ZM229.176 44L228.369 41.9219H228.26C227.558 42.806 226.833 43.4212 226.086 43.7676C225.348 44.1048 224.382 44.2734 223.188 44.2734C221.72 44.2734 220.562 43.8542 219.715 43.0156C218.876 42.1771 218.457 40.9831 218.457 39.4336C218.457 37.8112 219.022 36.6172 220.152 35.8516C221.292 35.0768 223.005 34.6484 225.293 34.5664L227.945 34.4844V33.8145C227.945 32.265 227.152 31.4902 225.566 31.4902C224.345 31.4902 222.91 31.8594 221.26 32.5977L219.879 29.7812C221.638 28.8607 223.589 28.4004 225.73 28.4004C227.781 28.4004 229.354 28.847 230.447 29.7402C231.541 30.6335 232.088 31.9915 232.088 33.8145V44H229.176ZM227.945 36.918L226.332 36.9727C225.12 37.0091 224.217 37.2279 223.625 37.6289C223.033 38.0299 222.736 38.6406 222.736 39.4609C222.736 40.6367 223.411 41.2246 224.76 41.2246C225.726 41.2246 226.496 40.9466 227.07 40.3906C227.654 39.8346 227.945 39.0964 227.945 38.1758V36.918ZM240.564 44H236.395V22.7266H240.564V44ZM251.393 40.9512C252.122 40.9512 252.997 40.7917 254.018 40.4727V43.5762C252.979 44.041 251.702 44.2734 250.189 44.2734C248.521 44.2734 247.305 43.8542 246.539 43.0156C245.783 42.168 245.404 40.901 245.404 39.2148V31.8457H243.408V30.082L245.705 28.6875L246.908 25.4609H249.574V28.7148H253.854V31.8457H249.574V39.2148C249.574 39.8073 249.738 40.2448 250.066 40.5273C250.404 40.8099 250.846 40.9512 251.393 40.9512ZM271.23 44H267.061V35.0723C267.061 32.8665 266.24 31.7637 264.6 31.7637C263.433 31.7637 262.59 32.1602 262.07 32.9531C261.551 33.7461 261.291 35.0312 261.291 36.8086V44H257.121V22.7266H261.291V27.0605C261.291 27.3978 261.259 28.1908 261.195 29.4395L261.1 30.6699H261.318C262.248 29.1751 263.725 28.4277 265.748 28.4277C267.544 28.4277 268.906 28.9108 269.836 29.877C270.766 30.8431 271.23 32.2285 271.23 34.0332V44Z" fill="#457AFF"/>
</svg>
