<svg width="32" height="32" viewBox="0 0 32 32" fill="none" xmlns="http://www.w3.org/2000/svg">
<g clip-path="url(#clip0)">
<path d="M16 0C7.29231 0 0 6.25231 0 14.1538C0 17.8831 1.67262 21.2283 4.30769 23.7305C3.98665 24.5675 3.53192 25.3468 2.96123 26.0382C2.20415 26.9566 1.36769 27.8067 0.461538 28.5785C0.262789 28.7379 0.118429 28.9551 0.0483803 29.2001C-0.0216685 29.4451 -0.0139523 29.7058 0.0704638 29.9462C0.15488 30.1866 0.311834 30.3949 0.519666 30.5423C0.727499 30.6898 0.975963 30.769 1.23077 30.7692C3.95692 30.7692 5.91754 30.7385 7.69231 30.2695C9.28 29.8486 10.6449 28.9674 12.0382 27.7305C13.3058 28.0345 14.6142 28.3077 16 28.3077C24.7077 28.3077 32 22.0554 32 14.1538C32 6.25231 24.7077 0 16 0ZM16 2.46154C23.5385 2.46154 29.5385 7.77846 29.5385 14.1538C29.5385 20.5292 23.5385 25.8462 16 25.8462C14.6597 25.8462 13.2677 25.6148 12 25.2689C11.7973 25.218 11.5849 25.2195 11.3829 25.2733C11.1809 25.3271 10.996 25.4315 10.8455 25.5766C9.46092 26.9046 8.44062 27.5237 7.07692 27.8843C6.44923 28.0505 5.23815 28.0111 4.384 28.0775C4.55631 27.8831 4.71754 27.7797 4.88492 27.5766C5.85231 26.3951 6.73477 25.1458 7.00062 23.7305C7.03724 23.518 7.0174 23.2996 6.9431 23.0972C6.86879 22.8949 6.74263 22.7155 6.57723 22.5772C3.99877 20.448 2.46154 17.4634 2.46154 14.1538C2.46154 7.77846 8.46154 2.46154 16 2.46154Z" fill="#F9F9F9"/>
<path d="M14.3159 17.0269V16.2681C14.3159 15.6118 14.4561 15.041 14.7363 14.5557C15.0166 14.0703 15.5293 13.5542 16.2744 13.0073C16.9922 12.4946 17.4639 12.0776 17.6895 11.7563C17.9219 11.4351 18.0381 11.0762 18.0381 10.6797C18.0381 10.2354 17.874 9.89697 17.5459 9.66455C17.2178 9.43213 16.7598 9.31592 16.1719 9.31592C15.1465 9.31592 13.9775 9.65088 12.665 10.3208L11.5474 8.0752C13.0718 7.2207 14.6885 6.79346 16.3975 6.79346C17.8057 6.79346 18.9233 7.13184 19.7505 7.80859C20.5845 8.48535 21.0015 9.3877 21.0015 10.5156C21.0015 11.2676 20.8306 11.917 20.4888 12.4639C20.147 13.0107 19.4976 13.626 18.5405 14.3096C17.8843 14.7949 17.4673 15.1641 17.2896 15.417C17.1187 15.6699 17.0332 16.0015 17.0332 16.4116V17.0269H14.3159ZM13.9878 20.5337C13.9878 19.9595 14.1416 19.5254 14.4492 19.2314C14.7568 18.9375 15.2046 18.7905 15.7925 18.7905C16.3599 18.7905 16.7974 18.9409 17.105 19.2417C17.4194 19.5425 17.5767 19.9731 17.5767 20.5337C17.5767 21.0737 17.4194 21.501 17.105 21.8154C16.7905 22.123 16.353 22.2769 15.7925 22.2769C15.2183 22.2769 14.7739 22.1265 14.4595 21.8257C14.145 21.5181 13.9878 21.0874 13.9878 20.5337Z" fill="#F9F9F9"/>
</g>
<defs>
<clipPath id="clip0">
<rect width="32" height="32" fill="white"/>
</clipPath>
</defs>
</svg>
