<svg width="120" height="24" viewBox="0 0 120 24" fill="none" xmlns="http://www.w3.org/2000/svg">
<path d="M108.258 16.8419L108 16.686L107.742 16.8419L102.576 19.9596L103.947 14.0836L104.015 13.7897L103.787 13.5921L99.2231 9.63803L105.232 9.12821L105.533 9.10272L105.65 8.82511L108 3.2813L110.35 8.82511L110.467 9.10272L110.768 9.12821L116.777 9.63803L112.213 13.5921L111.985 13.7897L112.053 14.0836L113.424 19.9596L108.258 16.8419Z" fill="#FFD43E" stroke="#180126"/>
<path d="M84.2584 16.8419L84 16.686L83.7416 16.8419L78.5761 19.9596L79.9469 14.0836L80.0155 13.7897L79.7874 13.5921L75.2231 9.63803L81.2323 9.12821L81.5327 9.10272L81.6504 8.82511L84 3.2813L86.3496 8.82511L86.4673 9.10272L86.7677 9.12821L92.7769 9.63803L88.2126 13.5921L87.9845 13.7897L88.0531 14.0836L89.4239 19.9596L84.2584 16.8419Z" fill="#FFD43E" stroke="#180126"/>
<path d="M60.2584 16.8419L60 16.686L59.7416 16.8419L54.5761 19.9596L55.9469 14.0836L56.0155 13.7897L55.7874 13.5921L51.2231 9.63803L57.2323 9.12821L57.5327 9.10272L57.6504 8.82511L60 3.2813L62.3496 8.82511L62.4673 9.10272L62.7677 9.12821L68.7769 9.63803L64.2126 13.5921L63.9845 13.7897L64.0531 14.0836L65.4239 19.9596L60.2584 16.8419Z" fill="#FFD43E" stroke="#180126"/>
<path d="M36.2584 16.8419L36 16.686L35.7416 16.8419L30.5761 19.9596L31.9469 14.0836L32.0155 13.7897L31.7874 13.5921L27.2231 9.63803L33.2323 9.12821L33.5327 9.10272L33.6504 8.82511L36 3.2813L38.3496 8.82511L38.4673 9.10272L38.7677 9.12821L44.7769 9.63803L40.2126 13.5921L39.9845 13.7897L40.0531 14.0836L41.4239 19.9596L36.2584 16.8419Z" fill="#FFD43E" stroke="#180126"/>
<path d="M12.2584 16.8419L12 16.686L11.7416 16.8419L6.57613 19.9596L7.94693 14.0836L8.01549 13.7897L7.78739 13.5921L3.22308 9.63803L9.23227 9.12821L9.5327 9.10272L9.65036 8.82511L12 3.2813L14.3496 8.82511L14.4673 9.10272L14.7677 9.12821L20.7769 9.63803L16.2126 13.5921L15.9845 13.7897L16.0531 14.0836L17.4239 19.9596L12.2584 16.8419Z" fill="#FFD43E" stroke="#180126"/>
</svg>
