<svg width="34" height="31" viewBox="0 0 34 31" fill="none" xmlns="http://www.w3.org/2000/svg">
<path d="M16.6036 3.78792L16.6035 3.78782L16.6034 3.78762L16.5998 3.78311L16.581 3.75964C16.5633 3.73796 16.5355 3.7045 16.4978 3.66094C16.4222 3.57378 16.3069 3.44642 16.1528 3.2922C15.8444 2.98342 15.3828 2.56898 14.7768 2.15411C13.5651 1.32451 11.7869 0.5 9.49992 0.5C4.71273 0.5 0.833252 4.37948 0.833252 9.16667C0.833252 12.4606 2.78271 15.767 5.09728 18.5653C6.99383 20.8581 9.07619 22.7422 10.4015 23.9414C10.6869 24.1996 10.9372 24.426 11.1429 24.618L16.6036 3.78792ZM16.6036 3.78792L16.6038 3.78814L16.6039 3.78834L16.9999 4.30396L17.3959 3.78834L17.3961 3.78814L17.3962 3.78792L17.3963 3.78782L17.3965 3.78762L17.4 3.78311L17.4189 3.75964C17.4365 3.73796 17.4643 3.7045 17.5021 3.66094C17.5776 3.57378 17.693 3.44642 17.847 3.2922C18.1555 2.98342 18.617 2.56898 19.223 2.15411C20.4347 1.32451 22.213 0.5 24.4999 0.5C29.2871 0.5 33.1666 4.37948 33.1666 9.16667C33.1666 12.4606 31.2171 15.767 28.9026 18.5653C27.006 20.8581 24.9236 22.7422 23.5983 23.9414C23.3129 24.1997 23.0626 24.4261 22.8568 24.6181C21.5463 25.8397 19.9998 27.2368 18.7797 28.3295C18.1699 28.8757 17.6421 29.3453 17.2668 29.6784C17.1665 29.7675 17.0771 29.8468 16.9999 29.9151C16.9228 29.8468 16.8333 29.7675 16.733 29.6784C16.3577 29.3453 15.83 28.8757 15.2202 28.3295C14.0001 27.2368 12.4536 25.8397 11.1431 24.6181L16.6036 3.78792ZM27.6074 4.40954L28.0814 3.93551L27.4919 3.61631C26.6051 3.13612 25.5955 2.83333 24.4999 2.83333C22.8554 2.83333 21.5516 3.41697 20.6627 3.99696C19.8618 4.51952 19.3815 5.04944 19.2696 5.1817L16.9999 7.60234L14.7301 5.18162C14.7293 5.18067 14.7286 5.17977 14.7279 5.17897L14.7045 5.1519C14.6854 5.12993 14.6593 5.10067 14.6264 5.06518C14.5608 4.99426 14.4681 4.89855 14.3493 4.78653C14.112 4.56278 13.7685 4.27232 13.3253 3.98406C12.439 3.4076 11.143 2.83333 9.49992 2.83333C6.00711 2.83333 3.16659 5.67386 3.16659 9.16667C3.16659 11.7858 4.84097 14.5404 6.71571 16.8458C8.60842 19.1732 10.7962 21.15 11.979 22.2187L11.9805 22.22L11.9805 22.22C12.2726 22.4839 12.526 22.7156 12.7339 22.9087C13.9872 24.0767 15.472 25.4213 16.6661 26.4921L16.9999 26.7914L17.3337 26.4921C18.5281 25.4212 20.0115 24.0779 21.2666 22.9081L21.2674 22.9074C21.4721 22.7157 21.7242 22.4867 22.0195 22.2199L22.0208 22.2187C23.2036 21.15 25.3914 19.1732 27.2841 16.8458C29.1589 14.5404 30.8333 11.7858 30.8333 9.16667C30.8333 8.07105 30.5305 7.0615 30.0503 6.17468L29.7311 5.58518L29.257 6.05921L16.9999 18.3163L9.86197 11.1784L11.5116 9.52872L16.6464 14.6635L16.9999 15.017L17.3535 14.6635L27.6074 4.40954Z" fill="#457AFF" stroke="#457AFF"/>
</svg>
