<svg width="40" height="40" viewBox="0 0 40 40" fill="none" xmlns="http://www.w3.org/2000/svg">
<g clip-path="url(#clip0)">
<path d="M20 8.75C22.4162 8.75 24.375 6.79125 24.375 4.375C24.375 1.95875 22.4162 0 20 0C17.5838 0 15.625 1.95875 15.625 4.375C15.625 6.79125 17.5838 8.75 20 8.75Z" fill="#457AFF"/>
<path d="M34.1406 10.0004H5.85938C5.29993 10.0004 4.76341 10.2226 4.36782 10.6182C3.97224 11.0138 3.75 11.5503 3.75 12.1098C3.75 12.6692 3.97224 13.2057 4.36782 13.6013C4.76341 13.9969 5.29993 14.2191 5.85938 14.2191H13.8188C14.3586 14.2191 14.9906 14.4605 15.3484 15.391C15.7664 16.4715 15.5617 18.5582 15.3039 20.1746L14.9664 22.0848C14.967 22.0897 14.9665 22.0948 14.9649 22.0995C14.9633 22.1043 14.9606 22.1086 14.957 22.1121L12.2539 37.4879C12.1559 38.046 12.2829 38.6203 12.6072 39.085C12.9315 39.5497 13.4267 39.867 13.9844 39.9676C14.2601 40.0163 14.5428 40.0098 14.8159 39.9485C15.0891 39.8871 15.3474 39.7721 15.5758 39.61C15.8042 39.448 15.9981 39.2423 16.1463 39.0047C16.2945 38.7671 16.394 38.5025 16.4391 38.2261L18.307 27.5387C18.307 27.5387 18.9062 25.0004 20 25.0004C21.1117 25.0004 21.6984 27.5387 21.6984 27.5387L23.5664 38.2355C23.6116 38.5143 23.7118 38.7813 23.8612 39.021C24.0107 39.2606 24.2063 39.4681 24.4367 39.6314C24.6671 39.7947 24.9278 39.9105 25.2034 39.972C25.479 40.0336 25.7642 40.0396 26.0422 39.9899C26.3202 39.9401 26.5855 39.8355 26.8226 39.6821C27.0598 39.5288 27.2641 39.3298 27.4235 39.0967C27.583 38.8636 27.6945 38.6011 27.7515 38.3245C27.8085 38.0479 27.8098 37.7627 27.7555 37.4855L25.0516 22.1098C25.0521 22.1048 25.0517 22.0999 25.0502 22.0952C25.0487 22.0905 25.0462 22.0861 25.043 22.0824L24.7047 20.1723C24.4469 18.5559 24.2422 16.4691 24.6602 15.3887C25.0164 14.4605 25.6687 14.2168 26.1664 14.2168H34.1406C34.7001 14.2168 35.2366 13.9946 35.6322 13.599C36.0278 13.2034 36.25 12.6669 36.25 12.1074C36.25 11.548 36.0278 11.0115 35.6322 10.6159C35.2366 10.2203 34.7001 9.99805 34.1406 9.99805V10.0004Z" fill="#457AFF"/>
</g>
<defs>
<clipPath id="clip0">
<rect width="40" height="40" fill="white"/>
</clipPath>
</defs>
</svg>
