<svg width="30" height="28" viewBox="0 0 30 28" fill="none" xmlns="http://www.w3.org/2000/svg">
<path d="M9.66658 24.667V16.667H20.3333V24.667H24.3333V3.33366H5.66658V24.667H9.66658ZM12.3333 24.667H17.6666V19.3337H12.3333V24.667ZM26.9999 24.667H29.6666V27.3337H0.333252V24.667H2.99992V2.00033C2.99992 1.6467 3.14039 1.30756 3.39044 1.05752C3.64049 0.807468 3.97963 0.666992 4.33325 0.666992H25.6666C26.0202 0.666992 26.3593 0.807468 26.6094 1.05752C26.8594 1.30756 26.9999 1.6467 26.9999 2.00033V24.667ZM13.6666 8.66699V6.00033H16.3333V8.66699H18.9999V11.3337H16.3333V14.0003H13.6666V11.3337H10.9999V8.66699H13.6666Z" fill="#F9F9F9"/>
</svg>
