<svg width="32" height="32" viewBox="0 0 32 32" fill="none" xmlns="http://www.w3.org/2000/svg">
<path d="M25.1428 21.7139H27.4285V27.4282H25.1428V21.7139Z" fill="#F3EA12"/>
<path d="M20.5715 16H22.8572V27.4286H20.5715V16Z" fill="#F3EA12"/>
<path d="M10.2858 27.4286C8.77085 27.4268 7.31846 26.8241 6.24721 25.7529C5.17597 24.6816 4.57335 23.2293 4.57153 21.7143H6.85725C6.85725 22.3924 7.05833 23.0553 7.43507 23.6191C7.8118 24.1829 8.34727 24.6224 8.97376 24.8819C9.60025 25.1414 10.2896 25.2093 10.9547 25.077C11.6198 24.9447 12.2307 24.6181 12.7102 24.1387C13.1897 23.6592 13.5162 23.0482 13.6485 22.3832C13.7808 21.7181 13.7129 21.0287 13.4534 20.4022C13.1939 19.7757 12.7545 19.2403 12.1906 18.8635C11.6268 18.4868 10.9639 18.2857 10.2858 18.2857V16C11.8013 16 13.2548 16.602 14.3264 17.6737C15.3981 18.7453 16.0001 20.1988 16.0001 21.7143C16.0001 23.2298 15.3981 24.6833 14.3264 25.7549C13.2548 26.8265 11.8013 27.4286 10.2858 27.4286Z" fill="#F3EA12"/>
<path d="M29.7143 0H2.28571C1.67969 0.000605116 1.09866 0.241615 0.670139 0.670139C0.241615 1.09866 0.000605116 1.67969 0 2.28571V29.7143C0.000605116 30.3203 0.241615 30.9013 0.670139 31.3299C1.09866 31.7584 1.67969 31.9994 2.28571 32H29.7143C30.3202 31.9991 30.9011 31.758 31.3295 31.3295C31.758 30.9011 31.9991 30.3202 32 29.7143V2.28571C31.9994 1.67969 31.7584 1.09866 31.3299 0.670139C30.9013 0.241615 30.3203 0.000605116 29.7143 0ZM29.7143 10.2857H13.7143V2.28571H29.7143V10.2857ZM11.4286 2.28571V10.2857H2.28571V2.28571H11.4286ZM2.28571 29.7143V12.5714H29.7143L29.7166 29.7143H2.28571Z" fill="#F3EA12"/>
</svg>
