<svg width="29" height="32" viewBox="0 0 29 32" fill="none" xmlns="http://www.w3.org/2000/svg">
<path d="M8.61539 14.7692C6.98328 14.7692 5.41803 14.1209 4.26396 12.9668C3.10989 11.8127 2.46154 10.2475 2.46154 8.61539V3.69231C2.46154 3.36589 2.59121 3.05284 2.82202 2.82202C3.05284 2.59121 3.36589 2.46154 3.69231 2.46154H4.92308C5.2495 2.46154 5.56255 2.33187 5.79336 2.10105C6.02418 1.87024 6.15385 1.55719 6.15385 1.23077C6.15385 0.904349 6.02418 0.591298 5.79336 0.360484C5.56255 0.12967 5.2495 0 4.92308 0H3.69231C2.71305 0 1.77389 0.38901 1.08145 1.08145C0.38901 1.77389 0 2.71305 0 3.69231V8.61539C0.00158206 10.0058 0.340642 11.3751 0.988061 12.6056C1.63548 13.8362 2.57191 14.8912 3.71692 15.68C4.81702 16.6499 5.70918 17.8326 6.33955 19.1568C6.96992 20.481 7.32543 21.9192 7.38462 23.3846C7.38462 25.6696 8.29231 27.8609 9.908 29.4766C11.5237 31.0923 13.7151 32 16 32C18.2849 32 20.4763 31.0923 22.092 29.4766C23.7077 27.8609 24.6154 25.6696 24.6154 23.3846V21.9815C25.7756 21.682 26.7867 20.9696 27.4592 19.9778C28.1317 18.9861 28.4194 17.7832 28.2685 16.5945C28.1175 15.4058 27.5381 14.3129 26.6391 13.5208C25.74 12.7287 24.5829 12.2917 23.3846 12.2917C22.1864 12.2917 21.0293 12.7287 20.1302 13.5208C19.2311 14.3129 18.6518 15.4058 18.5008 16.5945C18.3498 17.7832 18.6375 18.9861 19.31 19.9778C19.9825 20.9696 20.9937 21.682 22.1538 21.9815V23.3846C22.1538 25.0167 21.5055 26.582 20.3514 27.736C19.1974 28.8901 17.6321 29.5385 16 29.5385C14.3679 29.5385 12.8026 28.8901 11.6486 27.736C10.4945 26.582 9.84615 25.0167 9.84615 23.3846C9.90846 21.9174 10.2678 20.4781 10.9025 19.1538C11.5371 17.8295 12.4339 16.6477 13.5385 15.68C14.6789 14.8884 15.6106 13.8322 16.2536 12.6019C16.8967 11.3715 17.2319 10.0036 17.2308 8.61539V3.69231C17.2308 2.71305 16.8418 1.77389 16.1493 1.08145C15.4569 0.38901 14.5177 0 13.5385 0H12.3077C11.9813 0 11.6682 0.12967 11.4374 0.360484C11.2066 0.591298 11.0769 0.904349 11.0769 1.23077C11.0769 1.55719 11.2066 1.87024 11.4374 2.10105C11.6682 2.33187 11.9813 2.46154 12.3077 2.46154H13.5385C13.8649 2.46154 14.1779 2.59121 14.4087 2.82202C14.6396 3.05284 14.7692 3.36589 14.7692 3.69231V8.61539C14.7692 9.42352 14.6101 10.2237 14.3008 10.9704C13.9915 11.717 13.5382 12.3954 12.9668 12.9668C12.3954 13.5382 11.717 13.9915 10.9704 14.3008C10.2237 14.6101 9.42352 14.7692 8.61539 14.7692ZM23.3846 19.6923C22.7318 19.6923 22.1057 19.433 21.644 18.9713C21.1824 18.5097 20.9231 17.8836 20.9231 17.2308C20.9231 16.5779 21.1824 15.9518 21.644 15.4902C22.1057 15.0286 22.7318 14.7692 23.3846 14.7692C24.0375 14.7692 24.6636 15.0286 25.1252 15.4902C25.5868 15.9518 25.8462 16.5779 25.8462 17.2308C25.8462 17.8836 25.5868 18.5097 25.1252 18.9713C24.6636 19.433 24.0375 19.6923 23.3846 19.6923Z" fill="#F9F9F9"/>
</svg>
