<svg width="30" height="30" viewBox="0 0 30 30" fill="none" xmlns="http://www.w3.org/2000/svg">
<path d="M3.33333 0C2.46296 0 1.57565 0.318881 0.947266 0.947266C0.318881 1.57565 0 2.46296 0 3.33333V26.6667C0 27.537 0.318881 28.4243 0.947266 29.0527C1.57565 29.6811 2.46296 30 3.33333 30H26.6667C27.537 30 28.4243 29.6811 29.0527 29.0527C29.6811 28.4243 30 27.537 30 26.6667V3.33333C30 2.46296 29.6811 1.57565 29.0527 0.947266C28.4243 0.318881 27.537 0 26.6667 0H3.33333ZM3.33333 3.33333H26.6667V20H22.8223L20.7259 14.4141C20.6062 14.0973 20.3929 13.8245 20.1144 13.632C19.8358 13.4395 19.5053 13.3364 19.1667 13.3364C18.8281 13.3364 18.4975 13.4395 18.219 13.632C17.9404 13.8245 17.7271 14.0973 17.6074 14.4141L15.5111 20H13.8835L11.6374 8.02734C11.5652 7.64076 11.3586 7.29214 11.0542 7.04314C10.7498 6.79414 10.3672 6.66079 9.97396 6.66667C9.58968 6.67294 9.21938 6.81181 8.92574 7.05977C8.6321 7.30773 8.43317 7.64954 8.36263 8.02734L6.11654 20H3.33333V3.33333ZM10 17.373L10.8626 21.9727C10.934 22.3548 11.1368 22.7 11.4358 22.9485C11.7348 23.1969 12.1112 23.3331 12.5 23.3333H16.6667C17.0056 23.3331 17.3365 23.2295 17.615 23.0364C17.8936 22.8434 18.1067 22.5699 18.2259 22.2526L19.1667 19.7428L20.1074 22.2526C20.2266 22.5699 20.4397 22.8434 20.7183 23.0364C20.9969 23.2295 21.3277 23.3331 21.6667 23.3333H26.6667V26.6667H3.33333V23.3333H7.5C7.88877 23.3331 8.26522 23.1969 8.56422 22.9485C8.86322 22.7 9.06596 22.3548 9.13737 21.9727L10 17.373Z" fill="#457AFF"/>
</svg>
