<svg width="17" height="36" viewBox="0 0 17 36" fill="none" xmlns="http://www.w3.org/2000/svg">
<path d="M3.96524e-07 3.47727L4.23956e-08 32.5227C1.90132e-08 34.4405 1.5249 36 3.4 36L13.6 36C15.4751 36 17 34.4405 17 32.5227L17 3.47727C17 1.55946 15.4751 1.80493e-07 13.6 1.58623e-07L3.4 3.96556e-08C1.5249 1.77856e-08 4.19906e-07 1.55946 3.96524e-07 3.47727ZM13.6 3.47727L13.6 32.5227C13.6 32.616 13.5728 32.6798 13.5728 32.7076C13.5728 32.7191 13.5762 32.7256 13.5864 32.7273L3.4782 32.7469C3.4612 32.7355 3.4 32.6618 3.4 32.5227L3.4 29.4545L8.5 29.4545L8.5 26.1818L3.4 26.1818L3.4 22.9091L10.2 22.9091L10.2 19.6364L3.4 19.6364L3.4 16.3636L8.5 16.3636L8.5 13.0909L3.4 13.0909L3.4 9.81818L10.2 9.81818L10.2 6.54546L3.4 6.54546L3.4 3.47727C3.4017 3.348 3.4476 3.27764 3.4136 3.27273L13.5218 3.25309C13.5388 3.26455 13.6 3.33818 13.6 3.47727Z" fill="#457AFF"/>
</svg>
