<svg width="10" height="20" viewBox="0 0 10 20" fill="none" xmlns="http://www.w3.org/2000/svg">
<path d="M1.24991 7.91659H8.74991C8.82585 7.91635 8.90028 7.89541 8.96519 7.85601C9.03011 7.81662 9.08306 7.76027 9.11833 7.69302C9.1536 7.62578 9.16987 7.55019 9.16537 7.47439C9.16088 7.39859 9.1358 7.32545 9.09283 7.26284L5.34283 1.84617C5.18741 1.62159 4.81325 1.62159 4.65741 1.84617L0.907414 7.26284C0.864007 7.32531 0.838553 7.39849 0.833816 7.47442C0.829079 7.55035 0.84524 7.62612 0.880544 7.69351C0.915849 7.7609 0.968945 7.81732 1.03407 7.85665C1.09919 7.89598 1.17384 7.91671 1.24991 7.91659Z" fill="#457AFF"/>
<path d="M1.24991 12.0834H8.74991C8.82585 12.0837 8.90028 12.1046 8.96519 12.144C9.03011 12.1834 9.08306 12.2397 9.11833 12.307C9.1536 12.3742 9.16987 12.4498 9.16537 12.5256C9.16088 12.6014 9.1358 12.6746 9.09283 12.7372L5.34283 18.1538C5.18741 18.3784 4.81325 18.3784 4.65741 18.1538L0.907414 12.7372C0.864007 12.6747 0.838553 12.6015 0.833816 12.5256C0.829079 12.4497 0.84524 12.3739 0.880544 12.3065C0.915849 12.2391 0.968945 12.1827 1.03407 12.1434C1.09919 12.104 1.17384 12.0833 1.24991 12.0834Z" fill="#457AFF"/>
</svg>
