<svg width="34" height="30" viewBox="0 0 34 30" fill="none" xmlns="http://www.w3.org/2000/svg">
<path d="M17.0002 0C18.7683 0 20.464 0.702379 21.7142 1.95262C22.9645 3.20286 23.6668 4.89856 23.6668 6.66667C23.6668 7.88333 23.3502 9.01667 22.7668 10H27.0002C28.5835 10 29.9168 11.1167 30.2502 12.6C33.6002 25.95 33.6668 26.3 33.6668 26.6667C33.6668 27.5507 33.3156 28.3986 32.6905 29.0237C32.0654 29.6488 31.2176 30 30.3335 30H3.66683C2.78277 30 1.93493 29.6488 1.30981 29.0237C0.684685 28.3986 0.333496 27.5507 0.333496 26.6667C0.333496 26.3 0.400163 25.95 3.75016 12.6C4.0835 11.1167 5.41683 10 7.00016 10H11.2335C10.6377 8.99067 10.3267 7.8387 10.3335 6.66667C10.3335 4.89856 11.0359 3.20286 12.2861 1.95262C13.5364 0.702379 15.2321 0 17.0002 0ZM17.0002 3.33333C16.1161 3.33333 15.2683 3.68452 14.6431 4.30964C14.018 4.93476 13.6668 5.78261 13.6668 6.66667C13.6668 7.55072 14.018 8.39857 14.6431 9.02369C15.2683 9.64881 16.1161 10 17.0002 10C17.8842 10 18.7321 9.64881 19.3572 9.02369C19.9823 8.39857 20.3335 7.55072 20.3335 6.66667C20.3335 5.78261 19.9823 4.93476 19.3572 4.30964C18.7321 3.68452 17.8842 3.33333 17.0002 3.33333Z" fill="#457AFF"/>
</svg>
