<svg width="34" height="34" viewBox="0 0 34 34" fill="none" xmlns="http://www.w3.org/2000/svg">
<path d="M19.3121 7.7852L24.7246 1.53758C25.3485 0.817622 26.4925 0.820821 27.2172 1.54718L31.6682 6.00611C32.9929 7.33243 33.3721 9.30191 32.6057 10.881C28.0274 20.3604 20.3824 28.0161 10.9094 32.6077C9.33189 33.3741 7.36401 32.9949 6.03929 31.6686L1.54676 27.168C0.8188 26.4401 0.817202 25.2898 1.54356 24.6658L7.81518 19.2821C8.47114 18.7189 9.49028 18.7925 10.1478 19.4517L12.3301 21.6372C12.4418 21.7543 12.5889 21.8314 12.7487 21.8569C12.9086 21.8823 13.0723 21.8546 13.2149 21.778C16.7819 19.7238 19.7409 16.761 21.7903 13.1913C21.8671 13.0485 21.8949 12.8845 21.8695 12.7244C21.844 12.5643 21.7668 12.4169 21.6496 12.3049L19.4737 10.1275C18.8145 9.4651 18.7425 8.44116 19.3121 7.7836V7.7852Z" stroke="#F3EA12" stroke-width="2" stroke-linecap="round" stroke-linejoin="round"/>
</svg>
