<svg width="34" height="34" viewBox="0 0 34 34" fill="none" xmlns="http://www.w3.org/2000/svg">
<path d="M19.3123 7.7852L24.7248 1.53758C25.3488 0.817622 26.4927 0.820821 27.2175 1.54718L31.6684 6.00611C32.9931 7.33243 33.3723 9.30191 32.6059 10.881C28.0276 20.3604 20.3826 28.0161 10.9096 32.6077C9.33214 33.3741 7.36425 32.9949 6.03953 31.6686L1.547 27.168C0.819044 26.4401 0.817446 25.2898 1.5438 24.6658L7.81543 19.2821C8.47139 18.7189 9.49053 18.7925 10.1481 19.4517L12.3304 21.6372C12.4421 21.7543 12.5891 21.8314 12.749 21.8569C12.9088 21.8823 13.0726 21.8546 13.2151 21.778C16.7822 19.7238 19.7411 16.761 21.7906 13.1913C21.8673 13.0485 21.8951 12.8845 21.8697 12.7244C21.8443 12.5643 21.767 12.4169 21.6498 12.3049L19.4739 10.1275C18.8148 9.4651 18.7428 8.44116 19.3123 7.7836V7.7852Z" stroke="#F9F9F9" stroke-width="2" stroke-linecap="round" stroke-linejoin="round"/>
</svg>
