<svg width="24" height="24" viewBox="0 0 24 24" fill="none" xmlns="http://www.w3.org/2000/svg">
<path d="M13.8302 18.9993C13.6808 18.9998 13.5332 18.9668 13.3982 18.9028C13.2632 18.8388 13.1443 18.7453 13.0502 18.6293L8.22016 12.6293C8.07308 12.4504 7.99268 12.2259 7.99268 11.9943C7.99268 11.7627 8.07308 11.5382 8.22016 11.3593L13.2202 5.3593C13.3899 5.15508 13.6338 5.02666 13.8982 5.00228C14.1627 4.9779 14.4259 5.05956 14.6302 5.2293C14.8344 5.39904 14.9628 5.64295 14.9872 5.90738C15.0116 6.1718 14.9299 6.43508 14.7602 6.6393L10.2902 11.9993L14.6102 17.3593C14.7324 17.5061 14.8101 17.6848 14.834 17.8744C14.8579 18.0639 14.827 18.2563 14.7449 18.4289C14.6629 18.6014 14.5331 18.7468 14.371 18.8479C14.2089 18.949 14.0212 19.0015 13.8302 18.9993Z" fill="#575368"/>
</svg>
