<svg width="40" height="40" viewBox="0 0 40 40" fill="none" xmlns="http://www.w3.org/2000/svg">
<path d="M8.33333 5C7.46296 5 6.57565 5.31888 5.94727 5.94727C5.31888 6.57565 5 7.46296 5 8.33333V31.6667C5 32.537 5.31888 33.4243 5.94727 34.0527C6.57565 34.6811 7.46296 35 8.33333 35H31.6667C32.537 35 33.4243 34.6811 34.0527 34.0527C34.6811 33.4243 35 32.537 35 31.6667V8.33333C35 7.46296 34.6811 6.57565 34.0527 5.94727C33.4243 5.31888 32.537 5 31.6667 5H8.33333ZM8.33333 8.33333H31.6667V25H27.8223L25.7259 19.4141C25.6062 19.0973 25.3929 18.8245 25.1144 18.632C24.8358 18.4395 24.5053 18.3364 24.1667 18.3364C23.8281 18.3364 23.4975 18.4395 23.219 18.632C22.9404 18.8245 22.7271 19.0973 22.6074 19.4141L20.5111 25H18.8835L16.6374 13.0273C16.5652 12.6408 16.3586 12.2921 16.0542 12.0431C15.7498 11.7941 15.3672 11.6608 14.974 11.6667C14.5897 11.6729 14.2194 11.8118 13.9257 12.0598C13.6321 12.3077 13.4332 12.6495 13.3626 13.0273L11.1165 25H8.33333V8.33333ZM15 22.373L15.8626 26.9727C15.934 27.3548 16.1368 27.7 16.4358 27.9485C16.7348 28.1969 17.1112 28.3331 17.5 28.3333H21.6667C22.0056 28.3331 22.3365 28.2295 22.615 28.0364C22.8936 27.8434 23.1067 27.5699 23.2259 27.2526L24.1667 24.7428L25.1074 27.2526C25.2266 27.5699 25.4397 27.8434 25.7183 28.0364C25.9969 28.2295 26.3277 28.3331 26.6667 28.3333H31.6667V31.6667H8.33333V28.3333H12.5C12.8888 28.3331 13.2652 28.1969 13.5642 27.9485C13.8632 27.7 14.066 27.3548 14.1374 26.9727L15 22.373Z" fill="#457AFF"/>
</svg>
