<svg width="12" height="12" viewBox="0 0 12 12" fill="none" xmlns="http://www.w3.org/2000/svg">
<rect x="1.00049" y="0.683594" width="10.5323" height="10.5323" rx="5.26615" transform="rotate(0.253377 1.00049 0.683594)" fill="#0369A1"/>
<g clip-path="url(#clip0)">
<path d="M3.44074 4.55762C3.44157 4.37139 3.51633 4.19313 3.64859 4.06203C3.78085 3.93094 3.95977 3.85775 4.14599 3.85857L6.25243 3.86789C6.43865 3.86871 6.61692 3.94348 6.74802 4.07574C6.87911 4.208 6.9523 4.38692 6.95147 4.57314L6.93905 7.38173C6.93823 7.56795 6.86346 7.74621 6.7312 7.87731C6.59894 8.00841 6.42002 8.08159 6.2338 8.08077L4.12736 8.07145C3.94114 8.07063 3.76288 7.99586 3.63178 7.8636C3.50068 7.73134 3.4275 7.55242 3.42832 7.3662L3.44074 4.55762ZM7.84605 4.96539C7.78761 4.99427 7.73837 5.03885 7.70384 5.09413C7.6693 5.14941 7.65084 5.21321 7.65052 5.27839L7.64431 6.68269C7.64405 6.74787 7.66195 6.81183 7.69599 6.86742C7.73004 6.923 7.77888 6.96801 7.83706 6.9974L8.53765 7.35158C8.59105 7.37856 8.65045 7.39144 8.71022 7.38902C8.76999 7.38659 8.82815 7.36893 8.87918 7.33771C8.93021 7.3065 8.97242 7.26276 9.00179 7.21065C9.03117 7.15854 9.04675 7.09979 9.04705 7.03997L9.05636 4.93353C9.05659 4.87371 9.04154 4.81482 9.01262 4.76246C8.9837 4.71009 8.94189 4.66598 8.89113 4.63431C8.84038 4.60265 8.78238 4.58447 8.72263 4.58152C8.66289 4.57856 8.60338 4.59092 8.54975 4.61742L7.84605 4.96539Z" fill="#E0F2FE"/>
</g>
<defs>
<clipPath id="clip0">
<rect width="7.02153" height="7.02153" fill="white" transform="translate(2.74805 2.44727) rotate(0.253377)"/>
</clipPath>
</defs>
</svg>
