<svg width="32" height="32" viewBox="0 0 32 32" fill="none" xmlns="http://www.w3.org/2000/svg">
<path d="M12.89 23.376V12.708H11.624C10.7173 13.1913 9.84099 13.7297 9 14.32V15.71C9.75 15.196 10.938 14.47 11.516 14.156H11.54V23.376H12.89ZM15.266 20.766C15.36 22.046 16.454 23.578 18.672 23.578C21.188 23.578 22.672 21.446 22.672 17.836C22.672 13.968 21.11 12.5 18.766 12.5C16.914 12.5 15.172 13.844 15.172 16.118C15.172 18.438 16.82 19.658 18.524 19.658C20.016 19.658 20.984 18.906 21.29 18.078H21.344C21.336 20.71 20.422 22.406 18.734 22.406C17.406 22.406 16.718 21.506 16.634 20.766H15.266ZM21.172 16.132C21.172 17.524 20.054 18.492 18.804 18.492C17.602 18.492 16.516 17.726 16.516 16.092C16.516 14.446 17.68 13.672 18.852 13.672C20.118 13.672 21.172 14.468 21.172 16.132Z" fill="#F3EA12"/>
<path d="M7 0C7.26522 0 7.51957 0.105357 7.70711 0.292893C7.89464 0.48043 8 0.734784 8 1V2H24V1C24 0.734784 24.1054 0.48043 24.2929 0.292893C24.4804 0.105357 24.7348 0 25 0C25.2652 0 25.5196 0.105357 25.7071 0.292893C25.8946 0.48043 26 0.734784 26 1V2H28C29.0609 2 30.0783 2.42143 30.8284 3.17157C31.5786 3.92172 32 4.93913 32 6V28C32 29.0609 31.5786 30.0783 30.8284 30.8284C30.0783 31.5786 29.0609 32 28 32H4C2.93913 32 1.92172 31.5786 1.17157 30.8284C0.421427 30.0783 0 29.0609 0 28V6C0 4.93913 0.421427 3.92172 1.17157 3.17157C1.92172 2.42143 2.93913 2 4 2H6V1C6 0.734784 6.10536 0.48043 6.29289 0.292893C6.48043 0.105357 6.73478 0 7 0V0ZM2 8V28C2 28.5304 2.21071 29.0391 2.58579 29.4142C2.96086 29.7893 3.46957 30 4 30H28C28.5304 30 29.0391 29.7893 29.4142 29.4142C29.7893 29.0391 30 28.5304 30 28V8H2Z" fill="#F3EA12"/>
</svg>
