<svg width="40" height="40" viewBox="0 0 40 40" fill="none" xmlns="http://www.w3.org/2000/svg">
<path d="M11 5.47727L11 34.5227C11 36.4405 12.5249 38 14.4 38L24.6 38C26.4751 38 28 36.4405 28 34.5227L28 5.47727C28 3.55946 26.4751 2 24.6 2L14.4 2C12.5249 2 11 3.55946 11 5.47727ZM24.6 5.47727L24.6 34.5227C24.6 34.616 24.5728 34.6798 24.5728 34.7076C24.5728 34.7191 24.5762 34.7256 24.5864 34.7273L14.4782 34.7469C14.4612 34.7355 14.4 34.6618 14.4 34.5227L14.4 31.4545L19.5 31.4545L19.5 28.1818L14.4 28.1818L14.4 24.9091L21.2 24.9091L21.2 21.6364L14.4 21.6364L14.4 18.3636L19.5 18.3636L19.5 15.0909L14.4 15.0909L14.4 11.8182L21.2 11.8182L21.2 8.54546L14.4 8.54546L14.4 5.47727C14.4017 5.348 14.4476 5.27764 14.4136 5.27273L24.5218 5.25309C24.5388 5.26455 24.6 5.33818 24.6 5.47727Z" fill="#457AFF"/>
</svg>
