<svg width="32" height="32" viewBox="0 0 32 32" fill="none" xmlns="http://www.w3.org/2000/svg">
<path d="M14 28C14 28 12 28 12 26C12 24 14 18 22 18C30 18 32 24 32 26C32 28 30 28 30 28H14ZM22 16C23.5913 16 25.1174 15.3679 26.2426 14.2426C27.3679 13.1174 28 11.5913 28 10C28 8.4087 27.3679 6.88258 26.2426 5.75736C25.1174 4.63214 23.5913 4 22 4C20.4087 4 18.8826 4.63214 17.7574 5.75736C16.6321 6.88258 16 8.4087 16 10C16 11.5913 16.6321 13.1174 17.7574 14.2426C18.8826 15.3679 20.4087 16 22 16V16Z" fill="#F3EA12"/>
<path fill-rule="evenodd" clip-rule="evenodd" d="M10.432 28.0009C10.1355 27.3765 9.98765 26.6919 10 26.0009C10 23.2909 11.36 20.5009 13.872 18.5609C12.6182 18.1745 11.3119 17.9856 10 18.0009C2 18.0009 0 24.0009 0 26.0009C0 28.0009 2 28.0009 2 28.0009H10.432Z" fill="#F3EA12"/>
<path d="M9 16C10.3261 16 11.5979 15.4732 12.5355 14.5355C13.4732 13.5979 14 12.3261 14 11C14 9.67392 13.4732 8.40215 12.5355 7.46447C11.5979 6.52678 10.3261 6 9 6C7.67392 6 6.40215 6.52678 5.46447 7.46447C4.52678 8.40215 4 9.67392 4 11C4 12.3261 4.52678 13.5979 5.46447 14.5355C6.40215 15.4732 7.67392 16 9 16V16Z" fill="#F3EA12"/>
</svg>
