<svg width="40" height="40" viewBox="0 0 40 40" fill="none" xmlns="http://www.w3.org/2000/svg">
<path d="M31.0817 8.93551L30.6076 9.40954L20.3537 19.6635L20.0002 20.017L19.6466 19.6635L14.5119 14.5287L12.8622 16.1784L20.0002 23.3163L32.2573 11.0592L32.7313 10.5852L33.0505 11.1747C33.5307 12.0615 33.8335 13.0711 33.8335 14.1667C33.8335 16.7858 32.1591 19.5404 30.2844 21.8458C28.3917 24.1732 26.2039 26.15 25.021 27.2187L25.0197 27.2199L31.0817 8.93551ZM31.0817 8.93551L30.4921 8.61631M31.0817 8.93551L30.4921 8.61631M30.4921 8.61631C29.6053 8.13612 28.5958 7.83333 27.5002 7.83333C25.8556 7.83333 24.5518 8.41697 23.6629 8.99696C22.8621 9.51951 22.3817 10.0494 22.2699 10.1817L20.0002 12.6023L17.7304 10.1816C17.7296 10.1807 17.7288 10.1798 17.7281 10.179L17.7048 10.1519C17.6856 10.1299 17.6595 10.1007 17.6267 10.0652C17.561 9.99426 17.4684 9.89855 17.3496 9.78653C17.1122 9.56278 16.7687 9.27232 16.3255 8.98406C15.4393 8.4076 14.1433 7.83333 12.5002 7.83333C9.00735 7.83333 6.16683 10.6739 6.16683 14.1667C6.16683 16.7858 7.84121 19.5404 9.71595 21.8458C11.6087 24.1732 13.7965 26.15 14.9793 27.2187L14.9807 27.22L14.9807 27.22C15.2727 27.4837 15.526 27.7154 15.7339 27.9084M30.4921 8.61631L24.2676 27.9074M24.2676 27.9074L24.2669 27.9081C23.0118 29.0779 21.5283 30.4212 20.334 31.4921L20.0002 31.7914L19.6664 31.4921C18.4721 30.4212 16.9872 29.0765 15.7339 27.9084M24.2676 27.9074C24.4723 27.7157 24.7244 27.4868 25.0196 27.22L24.2676 27.9074ZM15.7339 27.9084C15.7337 27.9083 15.7336 27.9082 15.7335 27.9081L16.0744 27.5423M15.7339 27.9084C15.734 27.9085 15.7341 27.9086 15.7342 27.9087L16.0744 27.5423M16.0744 27.5423C15.8644 27.3473 15.6093 27.114 15.3159 26.849L20.0002 31.1198C18.8068 30.0498 17.3244 28.7073 16.0744 27.5423ZM19.6038 8.78782L19.6038 8.78792L19.604 8.78814L19.6042 8.78834L20.0002 9.30396L20.3962 8.78834L20.3963 8.78814L20.3965 8.78792L20.3966 8.78782L20.3967 8.78762L20.4003 8.78311L20.4191 8.75964C20.4368 8.73796 20.4646 8.7045 20.5023 8.66094C20.5779 8.57378 20.6932 8.44642 20.8473 8.2922C21.1557 7.98342 21.6173 7.56898 22.2232 7.15411C23.435 6.32451 25.2132 5.5 27.5002 5.5C32.2874 5.5 36.1668 9.37948 36.1668 14.1667C36.1668 17.4606 34.2174 20.767 31.9028 23.5653C30.0062 25.8581 27.9239 27.7422 26.5985 28.9414C26.3131 29.1997 26.0628 29.4261 25.857 29.6181C24.5465 30.8397 23 32.2368 21.7799 33.3295C21.1701 33.8757 20.6423 34.3453 20.2671 34.6784C20.1667 34.7675 20.0773 34.8468 20.0002 34.9151C19.923 34.8468 19.8336 34.7675 19.7333 34.6784C19.358 34.3453 18.8302 33.8757 18.2204 33.3295C17.0003 32.2367 15.4537 30.8396 14.1432 29.618C13.9374 29.4261 13.6871 29.1996 13.4018 28.9414C12.0764 27.7422 9.99408 25.8581 8.09752 23.5653C5.78296 20.767 3.8335 17.4606 3.8335 14.1667C3.8335 9.37948 7.71297 5.5 12.5002 5.5C14.7871 5.5 16.5653 6.32451 17.7771 7.15411C18.3831 7.56898 18.8446 7.98342 19.1531 8.2922C19.3071 8.44642 19.4224 8.57378 19.498 8.66094C19.5358 8.7045 19.5635 8.73796 19.5812 8.75964L19.6001 8.78311L19.6036 8.78762L19.6038 8.78782Z" fill="#457AFF" stroke="#457AFF"/>
</svg>
