<svg width="40" height="40" viewBox="0 0 40 40" fill="none" xmlns="http://www.w3.org/2000/svg">
<path d="M20.0002 5C21.7683 5 23.464 5.70238 24.7142 6.95262C25.9645 8.20286 26.6668 9.89856 26.6668 11.6667C26.6668 12.8833 26.3502 14.0167 25.7668 15H30.0002C31.5835 15 32.9168 16.1167 33.2502 17.6C36.6002 30.95 36.6668 31.3 36.6668 31.6667C36.6668 32.5507 36.3156 33.3986 35.6905 34.0237C35.0654 34.6488 34.2176 35 33.3335 35H6.66683C5.78277 35 4.93493 34.6488 4.30981 34.0237C3.68469 33.3986 3.3335 32.5507 3.3335 31.6667C3.3335 31.3 3.40016 30.95 6.75016 17.6C7.0835 16.1167 8.41683 15 10.0002 15H14.2335C13.6377 13.9907 13.3267 12.8387 13.3335 11.6667C13.3335 9.89856 14.0359 8.20286 15.2861 6.95262C16.5364 5.70238 18.2321 5 20.0002 5ZM20.0002 8.33333C19.1161 8.33333 18.2683 8.68452 17.6431 9.30964C17.018 9.93476 16.6668 10.7826 16.6668 11.6667C16.6668 12.5507 17.018 13.3986 17.6431 14.0237C18.2683 14.6488 19.1161 15 20.0002 15C20.8842 15 21.7321 14.6488 22.3572 14.0237C22.9823 13.3986 23.3335 12.5507 23.3335 11.6667C23.3335 10.7826 22.9823 9.93476 22.3572 9.30964C21.7321 8.68452 20.8842 8.33333 20.0002 8.33333Z" fill="#457AFF"/>
</svg>
