<svg width="19" height="19" viewBox="0 0 19 19" fill="none" xmlns="http://www.w3.org/2000/svg">
<path fill-rule="evenodd" clip-rule="evenodd" d="M5.58088 6.91323C5.74547 6.74868 5.96867 6.65625 6.2014 6.65625C6.43414 6.65625 6.65734 6.74868 6.82193 6.91323L9.71217 9.80346L12.6024 6.91323C12.7679 6.75335 12.9897 6.66488 13.2198 6.66688C13.4499 6.66888 13.67 6.76119 13.8328 6.92392C13.9955 7.08665 14.0878 7.30679 14.0898 7.53691C14.0918 7.76704 14.0033 7.98875 13.8435 8.15428L10.3327 11.665C10.1681 11.8296 9.9449 11.922 9.71217 11.922C9.47944 11.922 9.25623 11.8296 9.09164 11.665L5.58088 8.15428C5.41633 7.98969 5.3239 7.76649 5.3239 7.53375C5.3239 7.30102 5.41633 7.07782 5.58088 6.91323Z" fill="#71717A"/>
</svg>
