<svg width="414" height="313" viewBox="0 0 414 313" fill="none" xmlns="http://www.w3.org/2000/svg">
<rect x="0.5" y="0.5" width="413" height="312" rx="19.5" fill="#EAFAE5" stroke="#C3C7D2"/>
<path d="M276.336 269.117C276.336 266.872 276.771 265.195 277.641 264.086C278.516 262.971 279.807 262.414 281.516 262.414C282.104 262.414 282.568 262.464 282.906 262.562V263.68C282.505 263.549 282.047 263.484 281.531 263.484C280.307 263.484 279.372 263.867 278.727 264.633C278.081 265.393 277.727 266.591 277.664 268.227H277.758C278.331 267.331 279.237 266.883 280.477 266.883C281.503 266.883 282.31 267.193 282.898 267.812C283.492 268.432 283.789 269.273 283.789 270.336C283.789 271.523 283.464 272.458 282.812 273.141C282.167 273.818 281.292 274.156 280.188 274.156C279.005 274.156 278.068 273.714 277.375 272.828C276.682 271.938 276.336 270.701 276.336 269.117ZM280.172 273.055C280.911 273.055 281.484 272.823 281.891 272.359C282.302 271.891 282.508 271.216 282.508 270.336C282.508 269.581 282.318 268.987 281.938 268.555C281.557 268.122 280.99 267.906 280.234 267.906C279.766 267.906 279.336 268.003 278.945 268.195C278.555 268.388 278.242 268.654 278.008 268.992C277.779 269.331 277.664 269.682 277.664 270.047C277.664 270.583 277.768 271.083 277.977 271.547C278.185 272.01 278.479 272.378 278.859 272.648C279.245 272.919 279.682 273.055 280.172 273.055Z" fill="#180126"/>
<path d="M244.25 246.375H242.555V249H241.312V246.375H235.758V245.242L241.18 237.516H242.555V245.195H244.25V246.375ZM241.312 245.195V241.398C241.312 240.654 241.339 239.812 241.391 238.875H241.328C241.078 239.375 240.844 239.789 240.625 240.117L237.055 245.195H241.312Z" fill="#180126"/>
<path d="M320.633 295H313.125V293.883L316.133 290.859C317.049 289.932 317.654 289.271 317.945 288.875C318.237 288.479 318.456 288.094 318.602 287.719C318.747 287.344 318.82 286.94 318.82 286.508C318.82 285.898 318.635 285.417 318.266 285.062C317.896 284.703 317.383 284.523 316.727 284.523C316.253 284.523 315.802 284.602 315.375 284.758C314.953 284.914 314.482 285.198 313.961 285.609L313.273 284.727C314.326 283.852 315.471 283.414 316.711 283.414C317.784 283.414 318.625 283.69 319.234 284.242C319.844 284.789 320.148 285.526 320.148 286.453C320.148 287.177 319.945 287.893 319.539 288.602C319.133 289.31 318.372 290.206 317.258 291.289L314.758 293.734V293.797H320.633V295ZM330.328 292.375H328.633V295H327.391V292.375H321.836V291.242L327.258 283.516H328.633V291.195H330.328V292.375ZM327.391 291.195V287.398C327.391 286.654 327.417 285.812 327.469 284.875H327.406C327.156 285.375 326.922 285.789 326.703 286.117L323.133 291.195H327.391Z" fill="#180126"/>
<path d="M40.0078 201H38.7422V192.859C38.7422 192.182 38.763 191.542 38.8047 190.938C38.6953 191.047 38.5729 191.161 38.4375 191.281C38.3021 191.401 37.6823 191.909 36.5781 192.805L35.8906 191.914L38.9141 189.578H40.0078V201Z" fill="#180126"/>
<path d="M42.7109 225H35.2031V223.883L38.2109 220.859C39.1276 219.932 39.7318 219.271 40.0234 218.875C40.3151 218.479 40.5339 218.094 40.6797 217.719C40.8255 217.344 40.8984 216.94 40.8984 216.508C40.8984 215.898 40.7135 215.417 40.3438 215.062C39.974 214.703 39.4609 214.523 38.8047 214.523C38.3307 214.523 37.8802 214.602 37.4531 214.758C37.0312 214.914 36.5599 215.198 36.0391 215.609L35.3516 214.727C36.4036 213.852 37.5495 213.414 38.7891 213.414C39.862 213.414 40.7031 213.69 41.3125 214.242C41.9219 214.789 42.2266 215.526 42.2266 216.453C42.2266 217.177 42.0234 217.893 41.6172 218.602C41.2109 219.31 40.4505 220.206 39.3359 221.289L36.8359 223.734V223.797H42.7109V225Z" fill="#180126"/>
<path d="M43.25 271.375H41.5547V274H40.3125V271.375H34.7578V270.242L40.1797 262.516H41.5547V270.195H43.25V271.375ZM40.3125 270.195V266.398C40.3125 265.654 40.3385 264.812 40.3906 263.875H40.3281C40.0781 264.375 39.8438 264.789 39.625 265.117L36.0547 270.195H40.3125Z" fill="#180126"/>
<path d="M38.7734 288.023C39.9766 288.023 40.9219 288.323 41.6094 288.922C42.3021 289.516 42.6484 290.331 42.6484 291.367C42.6484 292.549 42.2708 293.477 41.5156 294.148C40.7656 294.82 39.7292 295.156 38.4062 295.156C37.1198 295.156 36.138 294.951 35.4609 294.539V293.289C35.8255 293.523 36.2786 293.708 36.8203 293.844C37.362 293.974 37.8958 294.039 38.4219 294.039C39.3385 294.039 40.0495 293.823 40.5547 293.391C41.0651 292.958 41.3203 292.333 41.3203 291.516C41.3203 289.922 40.3438 289.125 38.3906 289.125C37.8958 289.125 37.2344 289.201 36.4062 289.352L35.7344 288.922L36.1641 283.578H41.8438V284.773H37.2734L36.9844 288.203C37.5833 288.083 38.1797 288.023 38.7734 288.023Z" fill="#180126"/>
<path d="M42.2812 240.266C42.2812 240.995 42.0755 241.591 41.6641 242.055C41.2578 242.518 40.6797 242.828 39.9297 242.984V243.047C40.8464 243.161 41.526 243.453 41.9688 243.922C42.4115 244.391 42.6328 245.005 42.6328 245.766C42.6328 246.854 42.2552 247.693 41.5 248.281C40.7448 248.865 39.6719 249.156 38.2812 249.156C37.6771 249.156 37.1224 249.109 36.6172 249.016C36.1172 248.927 35.6302 248.768 35.1562 248.539V247.305C35.651 247.549 36.1771 247.737 36.7344 247.867C37.2969 247.992 37.8281 248.055 38.3281 248.055C40.3021 248.055 41.2891 247.281 41.2891 245.734C41.2891 244.349 40.2005 243.656 38.0234 243.656H36.8984V242.539H38.0391C38.9297 242.539 39.6354 242.344 40.1562 241.953C40.6771 241.557 40.9375 241.01 40.9375 240.312C40.9375 239.755 40.7448 239.318 40.3594 239C39.9792 238.682 39.4609 238.523 38.8047 238.523C38.3047 238.523 37.8333 238.591 37.3906 238.727C36.9479 238.862 36.4427 239.112 35.875 239.477L35.2188 238.602C35.6875 238.232 36.2266 237.943 36.8359 237.734C37.4505 237.521 38.0964 237.414 38.7734 237.414C39.8828 237.414 40.7448 237.669 41.3594 238.18C41.974 238.685 42.2812 239.38 42.2812 240.266Z" fill="#180126"/>
<path d="M191.271 70.1562H184.914V80H180.256V70.1562H159.426V65.9082L179.758 36.9336H184.914V65.7324H191.271V70.1562ZM180.256 65.7324V51.4941C180.256 48.7012 180.354 45.5469 180.549 42.0312H180.314C179.377 43.9062 178.498 45.459 177.678 46.6895L164.289 65.7324H180.256ZM196.955 76.8945C196.955 75.5859 197.248 74.5996 197.834 73.9355C198.439 73.252 199.299 72.9102 200.412 72.9102C201.545 72.9102 202.424 73.252 203.049 73.9355C203.693 74.5996 204.016 75.5859 204.016 76.8945C204.016 78.1641 203.693 79.1406 203.049 79.8242C202.404 80.5078 201.525 80.8496 200.412 80.8496C199.416 80.8496 198.586 80.5469 197.922 79.9414C197.277 79.3164 196.955 78.3008 196.955 76.8945ZM211.926 61.6895C211.926 53.2715 213.557 46.9824 216.818 42.8223C220.1 38.6426 224.943 36.5527 231.35 36.5527C233.557 36.5527 235.295 36.7383 236.564 37.1094V41.2988C235.061 40.8105 233.342 40.5664 231.408 40.5664C226.818 40.5664 223.312 42.002 220.891 44.873C218.469 47.7246 217.141 52.2168 216.906 58.3496H217.258C219.406 54.9902 222.805 53.3105 227.453 53.3105C231.301 53.3105 234.328 54.4727 236.535 56.7969C238.762 59.1211 239.875 62.2754 239.875 66.2598C239.875 70.7129 238.654 74.2188 236.213 76.7773C233.791 79.3164 230.51 80.5859 226.369 80.5859C221.936 80.5859 218.42 78.9258 215.822 75.6055C213.225 72.2656 211.926 67.627 211.926 61.6895ZM226.311 76.4551C229.084 76.4551 231.232 75.5859 232.756 73.8477C234.299 72.0898 235.07 69.5605 235.07 66.2598C235.07 63.4277 234.357 61.2012 232.932 59.5801C231.506 57.959 229.377 57.1484 226.545 57.1484C224.787 57.1484 223.176 57.5098 221.711 58.2324C220.246 58.9551 219.074 59.9512 218.195 61.2207C217.336 62.4902 216.906 63.8086 216.906 65.1758C216.906 67.1875 217.297 69.0625 218.078 70.8008C218.859 72.5391 219.963 73.916 221.389 74.9316C222.834 75.9473 224.475 76.4551 226.311 76.4551Z" fill="#180126"/>
<path d="M276.258 107.842L276 107.686L275.742 107.842L270.576 110.96L271.947 105.084L272.015 104.79L271.787 104.592L267.223 100.638L273.232 100.128L273.533 100.103L273.65 99.8251L276 94.2813L278.35 99.8251L278.467 100.103L278.768 100.128L284.777 100.638L280.213 104.592L279.985 104.79L280.053 105.084L281.424 110.96L276.258 107.842Z" fill="#FFD43E" stroke="#180126"/>
<path d="M242.258 107.842L242 107.686L241.742 107.842L236.576 110.96L237.947 105.084L238.015 104.79L237.787 104.592L233.223 100.638L239.232 100.128L239.533 100.103L239.65 99.8251L242 94.2813L244.35 99.8251L244.467 100.103L244.768 100.128L250.777 100.638L246.213 104.592L245.985 104.79L246.053 105.084L247.424 110.96L242.258 107.842Z" fill="#FFD43E" stroke="#180126"/>
<path d="M208.258 107.842L208 107.686L207.742 107.842L202.576 110.96L203.947 105.084L204.015 104.79L203.787 104.592L199.223 100.638L205.232 100.128L205.533 100.103L205.65 99.8251L208 94.2813L210.35 99.8251L210.467 100.103L210.768 100.128L216.777 100.638L212.213 104.592L211.985 104.79L212.053 105.084L213.424 110.96L208.258 107.842Z" fill="#FFD43E" stroke="#180126"/>
<path d="M174.258 107.842L174 107.686L173.742 107.842L168.576 110.96L169.947 105.084L170.015 104.79L169.787 104.592L165.223 100.638L171.232 100.128L171.533 100.103L171.65 99.8251L174 94.2813L176.35 99.8251L176.467 100.103L176.768 100.128L182.777 100.638L178.213 104.592L177.985 104.79L178.053 105.084L179.424 110.96L174.258 107.842Z" fill="#FFD43E" stroke="#180126"/>
<path d="M140.258 107.842L140 107.686L139.742 107.842L134.576 110.96L135.947 105.084L136.015 104.79L135.787 104.592L131.223 100.638L137.232 100.128L137.533 100.103L137.65 99.8251L140 94.2813L142.35 99.8251L142.467 100.103L142.768 100.128L148.777 100.638L144.213 104.592L143.985 104.79L144.053 105.084L145.424 110.96L140.258 107.842Z" fill="#FFD43E" stroke="#180126"/>
<path d="M22.2584 199.842L22 199.686L21.7416 199.842L16.5761 202.96L17.9469 197.084L18.0155 196.79L17.7874 196.592L13.2231 192.638L19.2323 192.128L19.5327 192.103L19.6504 191.825L22 186.281L24.3496 191.825L24.4673 192.103L24.7677 192.128L30.7769 192.638L26.2126 196.592L25.9845 196.79L26.0531 197.084L27.4239 202.96L22.2584 199.842Z" fill="#FFD43E" stroke="#180126"/>
<path d="M22.2584 224.842L22 224.686L21.7416 224.842L16.5761 227.96L17.9469 222.084L18.0155 221.79L17.7874 221.592L13.2231 217.638L19.2323 217.128L19.5327 217.103L19.6504 216.825L22 211.281L24.3496 216.825L24.4673 217.103L24.7677 217.128L30.7769 217.638L26.2126 221.592L25.9845 221.79L26.0531 222.084L27.4239 227.96L22.2584 224.842Z" fill="#FFD43E" stroke="#180126"/>
<path d="M22.2584 247.842L22 247.686L21.7416 247.842L16.5761 250.96L17.9469 245.084L18.0155 244.79L17.7874 244.592L13.2231 240.638L19.2323 240.128L19.5327 240.103L19.6504 239.825L22 234.281L24.3496 239.825L24.4673 240.103L24.7677 240.128L30.7769 240.638L26.2126 244.592L25.9845 244.79L26.0531 245.084L27.4239 250.96L22.2584 247.842Z" fill="#FFD43E" stroke="#180126"/>
<path d="M22.2584 272.842L22 272.686L21.7416 272.842L16.5761 275.96L17.9469 270.084L18.0155 269.79L17.7874 269.592L13.2231 265.638L19.2323 265.128L19.5327 265.103L19.6504 264.825L22 259.281L24.3496 264.825L24.4673 265.103L24.7677 265.128L30.7769 265.638L26.2126 269.592L25.9845 269.79L26.0531 270.084L27.4239 275.96L22.2584 272.842Z" fill="#FFD43E" stroke="#180126"/>
<path d="M22.2584 293.842L22 293.686L21.7416 293.842L16.5761 296.96L17.9469 291.084L18.0155 290.79L17.7874 290.592L13.2231 286.638L19.2323 286.128L19.5327 286.103L19.6504 285.825L22 280.281L24.3496 285.825L24.4673 286.103L24.7677 286.128L30.7769 286.638L26.2126 290.592L25.9845 290.79L26.0531 291.084L27.4239 296.96L22.2584 293.842Z" fill="#FFD43E" stroke="#180126"/>
<path d="M174.117 136.266C174.117 136.995 173.911 137.591 173.5 138.055C173.094 138.518 172.516 138.828 171.766 138.984V139.047C172.682 139.161 173.362 139.453 173.805 139.922C174.247 140.391 174.469 141.005 174.469 141.766C174.469 142.854 174.091 143.693 173.336 144.281C172.581 144.865 171.508 145.156 170.117 145.156C169.513 145.156 168.958 145.109 168.453 145.016C167.953 144.927 167.466 144.768 166.992 144.539V143.305C167.487 143.549 168.013 143.737 168.57 143.867C169.133 143.992 169.664 144.055 170.164 144.055C172.138 144.055 173.125 143.281 173.125 141.734C173.125 140.349 172.036 139.656 169.859 139.656H168.734V138.539H169.875C170.766 138.539 171.471 138.344 171.992 137.953C172.513 137.557 172.773 137.01 172.773 136.312C172.773 135.755 172.581 135.318 172.195 135C171.815 134.682 171.297 134.523 170.641 134.523C170.141 134.523 169.669 134.591 169.227 134.727C168.784 134.862 168.279 135.112 167.711 135.477L167.055 134.602C167.523 134.232 168.062 133.943 168.672 133.734C169.286 133.521 169.932 133.414 170.609 133.414C171.719 133.414 172.581 133.669 173.195 134.18C173.81 134.685 174.117 135.38 174.117 136.266ZM184.242 142.375H182.547V145H181.305V142.375H175.75V141.242L181.172 133.516H182.547V141.195H184.242V142.375ZM181.305 141.195V137.398C181.305 136.654 181.331 135.812 181.383 134.875H181.32C181.07 135.375 180.836 135.789 180.617 136.117L177.047 141.195H181.305ZM191.625 140.25V145H190.297V133.578H193.43C194.831 133.578 195.865 133.846 196.531 134.383C197.203 134.919 197.539 135.727 197.539 136.805C197.539 138.315 196.773 139.336 195.242 139.867L198.344 145H196.773L194.008 140.25H191.625ZM191.625 139.109H193.445C194.383 139.109 195.07 138.924 195.508 138.555C195.945 138.18 196.164 137.62 196.164 136.875C196.164 136.12 195.94 135.576 195.492 135.242C195.049 134.909 194.336 134.742 193.352 134.742H191.625V139.109ZM203.609 145.156C202.344 145.156 201.344 144.771 200.609 144C199.88 143.229 199.516 142.159 199.516 140.789C199.516 139.409 199.854 138.312 200.531 137.5C201.214 136.688 202.128 136.281 203.273 136.281C204.346 136.281 205.195 136.635 205.82 137.344C206.445 138.047 206.758 138.977 206.758 140.133V140.953H200.859C200.885 141.958 201.138 142.721 201.617 143.242C202.102 143.763 202.781 144.023 203.656 144.023C204.578 144.023 205.49 143.831 206.391 143.445V144.602C205.932 144.799 205.497 144.94 205.086 145.023C204.68 145.112 204.188 145.156 203.609 145.156ZM203.258 137.367C202.57 137.367 202.021 137.591 201.609 138.039C201.203 138.487 200.964 139.107 200.891 139.898H205.367C205.367 139.081 205.185 138.456 204.82 138.023C204.456 137.586 203.935 137.367 203.258 137.367ZM210.852 145L207.602 136.438H208.992L210.836 141.516C211.253 142.703 211.497 143.474 211.57 143.828H211.633C211.69 143.552 211.87 142.982 212.172 142.117C212.479 141.247 213.164 139.354 214.227 136.438H215.617L212.367 145H210.852ZM218.289 145H216.992V136.438H218.289V145ZM216.883 134.117C216.883 133.82 216.956 133.604 217.102 133.469C217.247 133.328 217.43 133.258 217.648 133.258C217.857 133.258 218.036 133.328 218.188 133.469C218.339 133.609 218.414 133.826 218.414 134.117C218.414 134.409 218.339 134.628 218.188 134.773C218.036 134.914 217.857 134.984 217.648 134.984C217.43 134.984 217.247 134.914 217.102 134.773C216.956 134.628 216.883 134.409 216.883 134.117ZM224.656 145.156C223.391 145.156 222.391 144.771 221.656 144C220.927 143.229 220.562 142.159 220.562 140.789C220.562 139.409 220.901 138.312 221.578 137.5C222.26 136.688 223.174 136.281 224.32 136.281C225.393 136.281 226.242 136.635 226.867 137.344C227.492 138.047 227.805 138.977 227.805 140.133V140.953H221.906C221.932 141.958 222.185 142.721 222.664 143.242C223.148 143.763 223.828 144.023 224.703 144.023C225.625 144.023 226.536 143.831 227.438 143.445V144.602C226.979 144.799 226.544 144.94 226.133 145.023C225.727 145.112 225.234 145.156 224.656 145.156ZM224.305 137.367C223.617 137.367 223.068 137.591 222.656 138.039C222.25 138.487 222.01 139.107 221.938 139.898H226.414C226.414 139.081 226.232 138.456 225.867 138.023C225.503 137.586 224.982 137.367 224.305 137.367ZM237.016 145L235.445 139.977C235.346 139.669 235.161 138.971 234.891 137.883H234.828C234.62 138.794 234.438 139.497 234.281 139.992L232.664 145H231.164L228.828 136.438H230.188C230.74 138.589 231.159 140.227 231.445 141.352C231.737 142.477 231.904 143.234 231.945 143.625H232.008C232.065 143.328 232.156 142.945 232.281 142.477C232.411 142.003 232.523 141.628 232.617 141.352L234.188 136.438H235.594L237.125 141.352C237.417 142.247 237.615 143 237.719 143.609H237.781C237.802 143.422 237.857 143.133 237.945 142.742C238.039 142.352 238.583 140.25 239.578 136.438H240.922L238.555 145H237.016ZM248 142.664C248 143.461 247.703 144.076 247.109 144.508C246.516 144.94 245.682 145.156 244.609 145.156C243.474 145.156 242.589 144.977 241.953 144.617V143.414C242.365 143.622 242.805 143.786 243.273 143.906C243.747 144.026 244.203 144.086 244.641 144.086C245.318 144.086 245.839 143.979 246.203 143.766C246.568 143.547 246.75 143.216 246.75 142.773C246.75 142.44 246.604 142.156 246.312 141.922C246.026 141.682 245.464 141.401 244.625 141.078C243.828 140.781 243.26 140.523 242.922 140.305C242.589 140.081 242.339 139.828 242.172 139.547C242.01 139.266 241.93 138.93 241.93 138.539C241.93 137.841 242.214 137.292 242.781 136.891C243.349 136.484 244.128 136.281 245.117 136.281C246.039 136.281 246.94 136.469 247.82 136.844L247.359 137.898C246.5 137.544 245.721 137.367 245.023 137.367C244.409 137.367 243.945 137.464 243.633 137.656C243.32 137.849 243.164 138.115 243.164 138.453C243.164 138.682 243.221 138.878 243.336 139.039C243.456 139.201 243.646 139.354 243.906 139.5C244.167 139.646 244.667 139.857 245.406 140.133C246.422 140.503 247.107 140.875 247.461 141.25C247.82 141.625 248 142.096 248 142.664Z" fill="#180126"/>
<rect x="49" y="193" width="15" height="4" fill="#C4C4C4"/>
<rect x="49" y="217" width="23" height="4" fill="#C4C4C4"/>
<rect x="49" y="241" width="183" height="4" fill="#C4C4C4"/>
<rect x="49" y="266" width="223" height="4" fill="#C4C4C4"/>
<rect x="49" y="287" width="258" height="4" fill="#C4C4C4"/>
</svg>
