<svg width="321" height="118" viewBox="0 0 321 118" fill="none" xmlns="http://www.w3.org/2000/svg">
<path d="M266.336 86.1172C266.336 83.8724 266.771 82.1953 267.641 81.0859C268.516 79.9714 269.807 79.4141 271.516 79.4141C272.104 79.4141 272.568 79.4635 272.906 79.5625V80.6797C272.505 80.5495 272.047 80.4844 271.531 80.4844C270.307 80.4844 269.372 80.8672 268.727 81.6328C268.081 82.3932 267.727 83.5911 267.664 85.2266H267.758C268.331 84.3307 269.237 83.8828 270.477 83.8828C271.503 83.8828 272.31 84.1927 272.898 84.8125C273.492 85.4323 273.789 86.2734 273.789 87.3359C273.789 88.5234 273.464 89.4583 272.812 90.1406C272.167 90.8177 271.292 91.1562 270.188 91.1562C269.005 91.1562 268.068 90.7135 267.375 89.8281C266.682 88.9375 266.336 87.7005 266.336 86.1172ZM270.172 90.0547C270.911 90.0547 271.484 89.8229 271.891 89.3594C272.302 88.8906 272.508 88.2161 272.508 87.3359C272.508 86.5807 272.318 85.987 271.938 85.5547C271.557 85.1224 270.99 84.9062 270.234 84.9062C269.766 84.9062 269.336 85.0026 268.945 85.1953C268.555 85.388 268.242 85.6536 268.008 85.9922C267.779 86.3307 267.664 86.6823 267.664 87.0469C267.664 87.5833 267.768 88.0833 267.977 88.5469C268.185 89.0104 268.479 89.3776 268.859 89.6484C269.245 89.9193 269.682 90.0547 270.172 90.0547Z" fill="#180126"/>
<path d="M234.25 63.375H232.555V66H231.312V63.375H225.758V62.2422L231.18 54.5156H232.555V62.1953H234.25V63.375ZM231.312 62.1953V58.3984C231.312 57.6536 231.339 56.8125 231.391 55.875H231.328C231.078 56.375 230.844 56.7891 230.625 57.1172L227.055 62.1953H231.312Z" fill="#180126"/>
<path d="M310.633 112H303.125V110.883L306.133 107.859C307.049 106.932 307.654 106.271 307.945 105.875C308.237 105.479 308.456 105.094 308.602 104.719C308.747 104.344 308.82 103.94 308.82 103.508C308.82 102.898 308.635 102.417 308.266 102.062C307.896 101.703 307.383 101.523 306.727 101.523C306.253 101.523 305.802 101.602 305.375 101.758C304.953 101.914 304.482 102.198 303.961 102.609L303.273 101.727C304.326 100.852 305.471 100.414 306.711 100.414C307.784 100.414 308.625 100.69 309.234 101.242C309.844 101.789 310.148 102.526 310.148 103.453C310.148 104.177 309.945 104.893 309.539 105.602C309.133 106.31 308.372 107.206 307.258 108.289L304.758 110.734V110.797H310.633V112ZM320.328 109.375H318.633V112H317.391V109.375H311.836V108.242L317.258 100.516H318.633V108.195H320.328V109.375ZM317.391 108.195V104.398C317.391 103.654 317.417 102.812 317.469 101.875H317.406C317.156 102.375 316.922 102.789 316.703 103.117L313.133 108.195H317.391Z" fill="#180126"/>
<path d="M30.0078 18H28.7422V9.85938C28.7422 9.18229 28.763 8.54167 28.8047 7.9375C28.6953 8.04688 28.5729 8.16146 28.4375 8.28125C28.3021 8.40104 27.6823 8.90885 26.5781 9.80469L25.8906 8.91406L28.9141 6.57812H30.0078V18Z" fill="#180126"/>
<path d="M32.7109 42H25.2031V40.8828L28.2109 37.8594C29.1276 36.9323 29.7318 36.2708 30.0234 35.875C30.3151 35.4792 30.5339 35.0938 30.6797 34.7188C30.8255 34.3438 30.8984 33.9401 30.8984 33.5078C30.8984 32.8984 30.7135 32.4167 30.3438 32.0625C29.974 31.7031 29.4609 31.5234 28.8047 31.5234C28.3307 31.5234 27.8802 31.6016 27.4531 31.7578C27.0312 31.9141 26.5599 32.1979 26.0391 32.6094L25.3516 31.7266C26.4036 30.8516 27.5495 30.4141 28.7891 30.4141C29.862 30.4141 30.7031 30.6901 31.3125 31.2422C31.9219 31.7891 32.2266 32.526 32.2266 33.4531C32.2266 34.1771 32.0234 34.8932 31.6172 35.6016C31.2109 36.3099 30.4505 37.2057 29.3359 38.2891L26.8359 40.7344V40.7969H32.7109V42Z" fill="#180126"/>
<path d="M33.25 88.375H31.5547V91H30.3125V88.375H24.7578V87.2422L30.1797 79.5156H31.5547V87.1953H33.25V88.375ZM30.3125 87.1953V83.3984C30.3125 82.6536 30.3385 81.8125 30.3906 80.875H30.3281C30.0781 81.375 29.8438 81.7891 29.625 82.1172L26.0547 87.1953H30.3125Z" fill="#180126"/>
<path d="M28.7734 105.023C29.9766 105.023 30.9219 105.323 31.6094 105.922C32.3021 106.516 32.6484 107.331 32.6484 108.367C32.6484 109.549 32.2708 110.477 31.5156 111.148C30.7656 111.82 29.7292 112.156 28.4062 112.156C27.1198 112.156 26.138 111.951 25.4609 111.539V110.289C25.8255 110.523 26.2786 110.708 26.8203 110.844C27.362 110.974 27.8958 111.039 28.4219 111.039C29.3385 111.039 30.0495 110.823 30.5547 110.391C31.0651 109.958 31.3203 109.333 31.3203 108.516C31.3203 106.922 30.3438 106.125 28.3906 106.125C27.8958 106.125 27.2344 106.201 26.4062 106.352L25.7344 105.922L26.1641 100.578H31.8438V101.773H27.2734L26.9844 105.203C27.5833 105.083 28.1797 105.023 28.7734 105.023Z" fill="#180126"/>
<path d="M32.2812 57.2656C32.2812 57.9948 32.0755 58.5911 31.6641 59.0547C31.2578 59.5182 30.6797 59.8281 29.9297 59.9844V60.0469C30.8464 60.1615 31.526 60.4531 31.9688 60.9219C32.4115 61.3906 32.6328 62.0052 32.6328 62.7656C32.6328 63.8542 32.2552 64.6927 31.5 65.2812C30.7448 65.8646 29.6719 66.1562 28.2812 66.1562C27.6771 66.1562 27.1224 66.1094 26.6172 66.0156C26.1172 65.9271 25.6302 65.7682 25.1562 65.5391V64.3047C25.651 64.5495 26.1771 64.737 26.7344 64.8672C27.2969 64.9922 27.8281 65.0547 28.3281 65.0547C30.3021 65.0547 31.2891 64.2812 31.2891 62.7344C31.2891 61.349 30.2005 60.6562 28.0234 60.6562H26.8984V59.5391H28.0391C28.9297 59.5391 29.6354 59.3438 30.1562 58.9531C30.6771 58.5573 30.9375 58.0104 30.9375 57.3125C30.9375 56.7552 30.7448 56.3177 30.3594 56C29.9792 55.6823 29.4609 55.5234 28.8047 55.5234C28.3047 55.5234 27.8333 55.5911 27.3906 55.7266C26.9479 55.862 26.4427 56.112 25.875 56.4766L25.2188 55.6016C25.6875 55.2318 26.2266 54.9427 26.8359 54.7344C27.4505 54.5208 28.0964 54.4141 28.7734 54.4141C29.8828 54.4141 30.7448 54.6693 31.3594 55.1797C31.974 55.6849 32.2812 56.3802 32.2812 57.2656Z" fill="#180126"/>
<path d="M12.2584 16.8419L12 16.686L11.7416 16.8419L6.57613 19.9596L7.94693 14.0836L8.01549 13.7897L7.78739 13.5921L3.22308 9.63803L9.23227 9.12821L9.5327 9.10272L9.65036 8.82511L12 3.2813L14.3496 8.82511L14.4673 9.10272L14.7677 9.12821L20.7769 9.63803L16.2126 13.5921L15.9845 13.7897L16.0531 14.0836L17.4239 19.9596L12.2584 16.8419Z" fill="#FFD43E" stroke="#180126"/>
<path d="M12.2584 41.8419L12 41.686L11.7416 41.8419L6.57613 44.9596L7.94693 39.0836L8.01549 38.7897L7.78739 38.5921L3.22308 34.638L9.23227 34.1282L9.5327 34.1027L9.65036 33.8251L12 28.2813L14.3496 33.8251L14.4673 34.1027L14.7677 34.1282L20.7769 34.638L16.2126 38.5921L15.9845 38.7897L16.0531 39.0836L17.4239 44.9596L12.2584 41.8419Z" fill="#FFD43E" stroke="#180126"/>
<path d="M12.2584 64.8419L12 64.686L11.7416 64.8419L6.57613 67.9596L7.94693 62.0836L8.01549 61.7897L7.78739 61.5921L3.22308 57.638L9.23227 57.1282L9.5327 57.1027L9.65036 56.8251L12 51.2813L14.3496 56.8251L14.4673 57.1027L14.7677 57.1282L20.7769 57.638L16.2126 61.5921L15.9845 61.7897L16.0531 62.0836L17.4239 67.9596L12.2584 64.8419Z" fill="#FFD43E" stroke="#180126"/>
<path d="M12.2584 89.8419L12 89.686L11.7416 89.8419L6.57613 92.9596L7.94693 87.0836L8.01549 86.7897L7.78739 86.5921L3.22308 82.638L9.23227 82.1282L9.5327 82.1027L9.65036 81.8251L12 76.2813L14.3496 81.8251L14.4673 82.1027L14.7677 82.1282L20.7769 82.638L16.2126 86.5921L15.9845 86.7897L16.0531 87.0836L17.4239 92.9596L12.2584 89.8419Z" fill="#FFD43E" stroke="#180126"/>
<path d="M12.2584 110.842L12 110.686L11.7416 110.842L6.57613 113.96L7.94693 108.084L8.01549 107.79L7.78739 107.592L3.22308 103.638L9.23227 103.128L9.5327 103.103L9.65036 102.825L12 97.2813L14.3496 102.825L14.4673 103.103L14.7677 103.128L20.7769 103.638L16.2126 107.592L15.9845 107.79L16.0531 108.084L17.4239 113.96L12.2584 110.842Z" fill="#FFD43E" stroke="#180126"/>
<rect x="39" y="10" width="15" height="4" fill="#C4C4C4"/>
<rect x="39" y="34" width="23" height="4" fill="#C4C4C4"/>
<rect x="39" y="58" width="183" height="4" fill="#C4C4C4"/>
<rect x="39" y="83" width="223" height="4" fill="#C4C4C4"/>
<rect x="39" y="104" width="258" height="4" fill="#C4C4C4"/>
</svg>
