<svg width="160" height="24" viewBox="0 0 160 24" fill="none" xmlns="http://www.w3.org/2000/svg">
<path d="M148.258 16.8419L148 16.686L147.742 16.8419L142.576 19.9596L143.947 14.0836L144.015 13.7897L143.787 13.5921L139.223 9.63803L145.232 9.12821L145.533 9.10272L145.65 8.82511L148 3.2813L150.35 8.82511L150.467 9.10272L150.768 9.12821L156.777 9.63803L152.213 13.5921L151.985 13.7897L152.053 14.0836L153.424 19.9596L148.258 16.8419Z" fill="#FFD43E" stroke="#180126"/>
<path d="M114.258 16.8419L114 16.686L113.742 16.8419L108.576 19.9596L109.947 14.0836L110.015 13.7897L109.787 13.5921L105.223 9.63803L111.232 9.12821L111.533 9.10272L111.65 8.82511L114 3.2813L116.35 8.82511L116.467 9.10272L116.768 9.12821L122.777 9.63803L118.213 13.5921L117.985 13.7897L118.053 14.0836L119.424 19.9596L114.258 16.8419Z" fill="#FFD43E" stroke="#180126"/>
<path d="M80.2584 16.8419L80 16.686L79.7416 16.8419L74.5761 19.9596L75.9469 14.0836L76.0155 13.7897L75.7874 13.5921L71.2231 9.63803L77.2323 9.12821L77.5327 9.10272L77.6504 8.82511L80 3.2813L82.3496 8.82511L82.4673 9.10272L82.7677 9.12821L88.7769 9.63803L84.2126 13.5921L83.9845 13.7897L84.0531 14.0836L85.4239 19.9596L80.2584 16.8419Z" fill="#FFD43E" stroke="#180126"/>
<path d="M46.2584 16.8419L46 16.686L45.7416 16.8419L40.5761 19.9596L41.9469 14.0836L42.0155 13.7897L41.7874 13.5921L37.2231 9.63803L43.2323 9.12821L43.5327 9.10272L43.6504 8.82511L46 3.2813L48.3496 8.82511L48.4673 9.10272L48.7677 9.12821L54.7769 9.63803L50.2126 13.5921L49.9845 13.7897L50.0531 14.0836L51.4239 19.9596L46.2584 16.8419Z" fill="#FFD43E" stroke="#180126"/>
<path d="M12.2584 16.8419L12 16.686L11.7416 16.8419L6.57613 19.9596L7.94693 14.0836L8.01549 13.7897L7.78739 13.5921L3.22308 9.63803L9.23227 9.12821L9.5327 9.10272L9.65036 8.82511L12 3.2813L14.3496 8.82511L14.4673 9.10272L14.7677 9.12821L20.7769 9.63803L16.2126 13.5921L15.9845 13.7897L16.0531 14.0836L17.4239 19.9596L12.2584 16.8419Z" fill="#FFD43E" stroke="#180126"/>
</svg>
