<svg width="275" height="38" viewBox="0 0 275 38" fill="none" xmlns="http://www.w3.org/2000/svg">
<path d="M12.5435 6.86865C10.4357 6.86865 8.80371 7.66357 7.64746 9.25342C6.49121 10.8312 5.91309 13.0353 5.91309 15.8657C5.91309 21.7554 8.12321 24.7002 12.5435 24.7002C14.3983 24.7002 16.6445 24.2365 19.2822 23.3091V28.0063C17.1143 28.9097 14.6934 29.3613 12.0195 29.3613C8.17741 29.3613 5.23861 28.1991 3.20312 25.8745C1.16764 23.5379 0.149902 20.1896 0.149902 15.8296C0.149902 13.0835 0.64974 10.6807 1.64941 8.62109C2.64909 6.54948 4.08236 4.96566 5.94922 3.86963C7.82812 2.76156 10.0262 2.20752 12.5435 2.20752C15.1089 2.20752 17.6864 2.8278 20.2759 4.06836L18.4692 8.62109C17.4816 8.15137 16.488 7.74186 15.4883 7.39258C14.4886 7.04329 13.507 6.86865 12.5435 6.86865ZM32.6501 12.3428C31.4818 12.3428 30.5664 12.7161 29.904 13.4629C29.2416 14.1976 28.8622 15.2454 28.7658 16.6064H36.4982C36.4742 15.2454 36.1188 14.1976 35.4323 13.4629C34.7458 12.7161 33.8184 12.3428 32.6501 12.3428ZM33.427 29.3613C30.175 29.3613 27.6337 28.464 25.8029 26.6694C23.9722 24.8748 23.0568 22.3335 23.0568 19.0454C23.0568 15.661 23.8999 13.0474 25.5861 11.2046C27.2844 9.34977 29.627 8.42236 32.614 8.42236C35.4685 8.42236 37.6906 9.23535 39.2805 10.8613C40.8703 12.4873 41.6652 14.7336 41.6652 17.6001V20.2739H28.6394C28.6996 21.8397 29.1633 23.0622 30.0305 23.9414C30.8977 24.8206 32.1141 25.2603 33.6799 25.2603C34.8964 25.2603 36.0466 25.1338 37.1306 24.8809C38.2146 24.6279 39.3467 24.2244 40.5271 23.6704V27.9341C39.5635 28.4159 38.5337 28.7712 37.4377 29C36.3417 29.2409 35.0048 29.3613 33.427 29.3613ZM64.5902 29H59.08V17.2026C59.08 15.7453 58.821 14.6553 58.3031 13.9326C57.7852 13.1979 56.9602 12.8306 55.828 12.8306C54.2864 12.8306 53.1723 13.3485 52.4857 14.3843C51.7992 15.408 51.456 17.1123 51.456 19.4971V29H45.9457V8.80176H50.1552L50.8959 11.3853H51.203C51.8173 10.4097 52.6604 9.67497 53.7323 9.18115C54.8163 8.67529 56.0448 8.42236 57.4179 8.42236C59.7665 8.42236 61.5491 9.06071 62.7655 10.3374C63.982 11.6021 64.5902 13.4328 64.5902 15.8296V29ZM78.5724 24.9712C79.5359 24.9712 80.6922 24.7604 82.0411 24.3389V28.4399C80.6681 29.0542 78.9819 29.3613 76.9825 29.3613C74.7784 29.3613 73.1705 28.8073 72.1588 27.6992C71.1591 26.5791 70.6593 24.9049 70.6593 22.6768V12.939H68.0216V10.6084L71.0567 8.76562L72.6466 4.50195H76.1695V8.80176H81.8243V12.939H76.1695V22.6768C76.1695 23.4596 76.3863 24.0378 76.8199 24.4111C77.2656 24.7845 77.8497 24.9712 78.5724 24.9712ZM100.251 29L99.5101 26.4165H99.221C98.6308 27.356 97.7937 28.0846 96.7098 28.6025C95.6258 29.1084 94.3912 29.3613 93.0061 29.3613C90.6334 29.3613 88.8449 28.729 87.6404 27.4644C86.436 26.1877 85.8338 24.3569 85.8338 21.9722V8.80176H91.344V20.5991C91.344 22.0565 91.603 23.1525 92.1209 23.8872C92.6388 24.6099 93.4638 24.9712 94.596 24.9712C96.1377 24.9712 97.2518 24.4593 97.9383 23.4355C98.6248 22.3997 98.9681 20.6895 98.9681 18.3047V8.80176H104.478V29H100.251ZM121.333 8.42236C122.08 8.42236 122.7 8.47656 123.194 8.58496L122.778 13.752C122.333 13.6315 121.791 13.5713 121.152 13.5713C119.394 13.5713 118.021 14.0229 117.033 14.9263C116.058 15.8296 115.57 17.0942 115.57 18.7202V29H110.06V8.80176H114.233L115.046 12.1982H115.317C115.943 11.0661 116.786 10.1567 117.846 9.47021C118.918 8.77165 120.08 8.42236 121.333 8.42236ZM123.771 8.80176H129.805L133.617 20.1655C133.942 21.1532 134.165 22.3215 134.285 23.6704H134.394C134.526 22.4299 134.785 21.2616 135.171 20.1655L138.91 8.80176H144.818L136.273 31.5835C135.49 33.6912 134.37 35.269 132.912 36.3169C131.467 37.3647 129.775 37.8887 127.836 37.8887C126.884 37.8887 125.951 37.7863 125.035 37.5815V33.2095C125.698 33.366 126.42 33.4443 127.203 33.4443C128.179 33.4443 129.028 33.1432 129.751 32.541C130.485 31.9508 131.057 31.0535 131.467 29.8491L131.792 28.8555L123.771 8.80176ZM179.015 29H173.433V17.6001H162.972V29H157.372V2.58691H162.972V12.939H173.433V2.58691H179.015V29ZM193.431 12.3428C192.263 12.3428 191.347 12.7161 190.685 13.4629C190.022 14.1976 189.643 15.2454 189.547 16.6064H197.279C197.255 15.2454 196.9 14.1976 196.213 13.4629C195.527 12.7161 194.599 12.3428 193.431 12.3428ZM194.208 29.3613C190.956 29.3613 188.415 28.464 186.584 26.6694C184.753 24.8748 183.838 22.3335 183.838 19.0454C183.838 15.661 184.681 13.0474 186.367 11.2046C188.065 9.34977 190.408 8.42236 193.395 8.42236C196.249 8.42236 198.471 9.23535 200.061 10.8613C201.651 12.4873 202.446 14.7336 202.446 17.6001V20.2739H189.42C189.48 21.8397 189.944 23.0622 190.811 23.9414C191.679 24.8206 192.895 25.2603 194.461 25.2603C195.677 25.2603 196.827 25.1338 197.911 24.8809C198.995 24.6279 200.128 24.2244 201.308 23.6704V27.9341C200.344 28.4159 199.315 28.7712 198.219 29C197.123 29.2409 195.786 29.3613 194.208 29.3613ZM219.554 29L218.488 26.2539H218.343C217.416 27.4222 216.458 28.2352 215.471 28.6929C214.495 29.1385 213.218 29.3613 211.641 29.3613C209.701 29.3613 208.172 28.8073 207.052 27.6992C205.944 26.5911 205.39 25.0133 205.39 22.9658C205.39 20.8219 206.136 19.2441 207.63 18.2324C209.135 17.2087 211.4 16.6426 214.423 16.5342L217.928 16.4258V15.5405C217.928 13.493 216.88 12.4692 214.784 12.4692C213.17 12.4692 211.273 12.957 209.093 13.9326L207.269 10.2109C209.593 8.99447 212.171 8.38623 215.001 8.38623C217.711 8.38623 219.789 8.9764 221.234 10.1567C222.679 11.3371 223.402 13.1317 223.402 15.5405V29H219.554ZM217.928 19.6416L215.796 19.7139C214.194 19.762 213.002 20.0511 212.219 20.5811C211.436 21.111 211.044 21.918 211.044 23.002C211.044 24.5557 211.936 25.3325 213.718 25.3325C214.995 25.3325 216.013 24.9652 216.771 24.2305C217.542 23.4958 217.928 22.5202 217.928 21.3037V19.6416ZM234.403 29H228.893V0.888672H234.403V29ZM248.512 24.9712C249.475 24.9712 250.631 24.7604 251.98 24.3389V28.4399C250.607 29.0542 248.921 29.3613 246.922 29.3613C244.718 29.3613 243.11 28.8073 242.098 27.6992C241.098 26.5791 240.599 24.9049 240.599 22.6768V12.939H237.961V10.6084L240.996 8.76562L242.586 4.50195H246.109V8.80176H251.764V12.939H246.109V22.6768C246.109 23.4596 246.326 24.0378 246.759 24.4111C247.205 24.7845 247.789 24.9712 248.512 24.9712ZM274.526 29H269.016V17.2026C269.016 14.2879 267.932 12.8306 265.764 12.8306C264.222 12.8306 263.108 13.3545 262.421 14.4023C261.735 15.4502 261.392 17.1484 261.392 19.4971V29H255.881V0.888672H261.392V6.61572C261.392 7.06136 261.35 8.10921 261.265 9.75928L261.139 11.3853H261.428C262.656 9.40999 264.608 8.42236 267.281 8.42236C269.654 8.42236 271.455 9.06071 272.683 10.3374C273.912 11.6141 274.526 13.4448 274.526 15.8296V29Z" fill="#457AFF"/>
</svg>
