<svg width="543" height="328" viewBox="0 0 543 328" fill="none" xmlns="http://www.w3.org/2000/svg">
<g clip-path="url(#clip0)">
<path d="M28.3304 327.267C28.2941 327.106 24.7809 311.011 31.9557 297.643C39.1305 284.276 54.4456 278.381 54.5995 278.322L55.2995 278.059L55.4648 278.792C55.5011 278.952 59.0143 295.047 51.8395 308.415C44.6651 321.783 29.3496 327.678 29.1957 327.736L28.4954 328L28.3304 327.267ZM54.3395 279.847C51.2718 281.173 39.1642 286.976 33.1045 298.266C27.0442 309.557 28.8727 322.909 29.4557 326.211C32.5222 324.889 44.6249 319.095 50.6907 307.793C56.7507 296.502 54.9229 283.151 54.3395 279.847V279.847Z" fill="#F1F1F1"/>
<path d="M46.3569 303.726C33.4635 311.519 28.4978 326.999 28.4978 326.999C28.4978 326.999 44.4365 329.843 57.3299 322.05C70.2234 314.257 75.1891 298.777 75.1891 298.777C75.1891 298.777 59.2503 295.933 46.3569 303.726Z" fill="#F1F1F1"/>
<path d="M241.611 178.792C241.808 177.772 241.78 176.721 241.528 175.714C241.277 174.707 240.809 173.767 240.157 172.961C239.505 172.155 238.685 171.502 237.755 171.049C236.825 170.596 235.807 170.353 234.774 170.337L228.803 155.252L218.793 156.661L227.523 177.846C227.612 179.592 228.336 181.245 229.557 182.491C230.779 183.737 232.412 184.489 234.149 184.606C235.886 184.722 237.604 184.195 238.98 183.123C240.355 182.052 241.292 180.511 241.611 178.792Z" fill="#9F616A"/>
<path d="M223.171 173.491L220.069 166.06L200.741 129.098L201.792 60.7051L201.994 60.6782C214.361 59.0366 222.729 116.286 223.079 118.724L235.291 160.684L238.198 169.932L223.171 173.491Z" fill="#072AC8"/>
<path d="M193.473 317.709L202.87 317.709L207.34 281.293L193.471 281.294L193.473 317.709Z" fill="#9F616A"/>
<path d="M191.076 314.627L209.582 314.626H209.583C212.711 314.626 215.71 315.875 217.922 318.097C220.134 320.319 221.376 323.332 221.377 326.475V326.86L191.076 326.861L191.076 314.627Z" fill="#2F2E41"/>
<path d="M107.069 303.325L114.779 308.723L139.17 281.414L127.791 273.448L107.069 303.325Z" fill="#9F616A"/>
<path d="M106.857 299.419L122.04 310.049L122.041 310.049C124.607 311.846 126.358 314.593 126.908 317.687C127.458 320.78 126.762 323.966 124.974 326.545L124.755 326.861L99.895 309.456L106.857 299.419Z" fill="#2F2E41"/>
<path d="M188.308 309.15L187.902 240.837L181.989 197.882L170.966 235.657L170.944 235.688L130.996 293.955L115.452 286.042L115.537 285.839C116.487 283.569 138.871 230.254 144.888 230.254C145.413 230.291 145.94 230.199 146.422 229.986C146.904 229.773 147.327 229.446 147.656 229.032C149.422 226.663 147.984 221.635 147.969 221.585C146.246 214.41 150.577 211.966 151.44 211.558L153.759 163.444L154 163.461L216.892 167.893L214.254 228.048L208.578 306.864L208.383 306.886L188.308 309.15Z" fill="#2F2E41"/>
<path d="M217.853 178.554L217.581 178.532L149.942 173.054L150.109 150.569L153.42 91.8607L153.438 91.82L166.921 62.4137L176.478 58.0658L190.421 57.3286L190.455 57.3372L203.181 60.5046L216.418 155.976L217.853 178.554Z" fill="#072AC8"/>
<path d="M192.607 49.7927C201.237 45.053 204.408 34.1818 199.691 25.5113C194.973 16.8408 184.152 13.6543 175.522 18.394C166.892 23.1338 163.72 34.0049 168.438 42.6754C173.156 51.346 183.976 54.5325 192.607 49.7927Z" fill="#9F616A"/>
<path d="M166.154 38.5842V31.6131C166.154 31.6131 160.558 24.992 166.714 23.3241C166.714 23.3241 168.392 6.64552 182.941 14.4289C182.941 14.4289 203.085 11.0932 200.847 22.7682C200.847 22.7682 205.883 19.7202 204.204 27.5036L200.958 40.0412C200.958 40.0412 202.526 31.7592 197.49 30.6473L194.692 28.9794C194.692 28.9794 186.858 36.7628 175.107 27.3115C175.107 27.3115 170.071 26.1039 170.631 31.1075C171.19 36.1111 166.154 38.5842 166.154 38.5842Z" fill="#2F2E41"/>
<path d="M182.21 161.763C182.221 160.724 182.006 159.696 181.579 158.75C181.152 157.804 180.523 156.964 179.738 156.289C178.953 155.613 178.03 155.119 177.034 154.841C176.038 154.563 174.993 154.507 173.973 154.679L165.405 140.915L155.81 144.106L168.181 163.373C168.581 165.074 169.589 166.57 171.013 167.575C172.437 168.581 174.178 169.027 175.908 168.828C177.637 168.63 179.233 167.801 180.395 166.499C181.557 165.197 182.203 163.511 182.21 161.763Z" fill="#9F616A"/>
<path d="M160.08 157.424L144.578 125.805L144.592 125.728C144.655 125.378 150.894 90.5692 155.667 77.7746C160.469 64.8989 167.043 62.3138 167.321 62.2101L167.459 62.1582L173.354 67.8385L165.189 122.593L173.99 149.001L160.08 157.424Z" fill="#072AC8"/>
<path d="M543 0H512.986V30.1545H543V0Z" fill="#F1F1F1"/>
<path d="M308.106 117.34H278.092V147.495H308.106V117.34Z" fill="#F1F1F1"/>
<path d="M294.938 134.281H532.23V13.5918H294.938V134.281Z" fill="white"/>
<path d="M534.187 136.248H292.981V11.625H534.187V136.248ZM296.896 132.314H530.272V15.5582H296.896V132.314Z" fill="#E5E5E5"/>
<path d="M505.99 55.9272H323.421V62.01H505.99V55.9272Z" fill="#E5E5E5"/>
<path d="M505.99 70.6787H323.421V76.7615H505.99V70.6787Z" fill="#E5E5E5"/>
<path d="M505.99 92.46H472.061V97.7387H505.99V92.46Z" fill="#072AC8"/>
<path d="M249.248 327.974H0.652483C0.479433 327.974 0.313471 327.905 0.191107 327.782C0.068743 327.659 0 327.492 0 327.318C0 327.144 0.068743 326.977 0.191107 326.855C0.313471 326.732 0.479433 326.663 0.652483 326.663H249.248C249.421 326.663 249.587 326.732 249.71 326.855C249.832 326.977 249.901 327.144 249.901 327.318C249.901 327.492 249.832 327.659 249.71 327.782C249.587 327.905 249.421 327.974 249.248 327.974Z" fill="#CBCBCB"/>
</g>
<defs>
<clipPath id="clip0">
<rect width="543" height="328" fill="white"/>
</clipPath>
</defs>
</svg>
