<svg width="57" height="56" viewBox="0 0 57 56" fill="none" xmlns="http://www.w3.org/2000/svg">
<path d="M7.77628 11.6666H3.1333V48.9999C3.1333 51.5666 5.22264 53.6666 7.77628 53.6666H44.9201V48.9999H7.77628V11.6666ZM35.6341 34.9999H40.2771V11.6666H35.6341V20.9999H30.9912V11.6666H26.3482V25.6666H35.6341V34.9999ZM49.5631 2.33325H17.0622C14.5086 2.33325 12.4193 4.43325 12.4193 6.99992V39.6666C12.4193 42.2332 14.5086 44.3333 17.0622 44.3333H49.5631C52.1167 44.3333 54.2061 42.2332 54.2061 39.6666V6.99992C54.2061 4.43325 52.1167 2.33325 49.5631 2.33325ZM49.5631 39.6666H17.0622V6.99992H49.5631V39.6666Z" fill="#072AC8"/>
</svg>
