<svg width="56" height="56" viewBox="0 0 56 56" fill="none" xmlns="http://www.w3.org/2000/svg">
<path d="M48.9439 2.33337H16.4431C13.8895 2.33337 11.8001 4.43337 11.8001 7.00004V39.6667C11.8001 42.2334 13.8895 44.3334 16.4431 44.3334H48.9439C51.4976 44.3334 53.5869 42.2334 53.5869 39.6667V7.00004C53.5869 4.43337 51.4976 2.33337 48.9439 2.33337ZM48.9439 39.6667H16.4431V7.00004H48.9439V39.6667ZM7.15714 11.6667H2.51416V49C2.51416 51.5667 4.6035 53.6667 7.15714 53.6667H44.301V49H7.15714V11.6667ZM39.658 30.3334V26.8334C39.658 24.8967 38.1026 23.3334 36.1757 23.3334C38.1026 23.3334 39.658 21.77 39.658 19.8334V16.3334C39.658 13.7434 37.5686 11.6667 35.015 11.6667H25.729V16.3334H35.015V21H30.372V25.6667H35.015V30.3334H25.729V35H35.015C37.5686 35 39.658 32.9234 39.658 30.3334Z" fill="#072AC8"/>
</svg>
