<svg width="57" height="56" viewBox="0 0 57 56" fill="none" xmlns="http://www.w3.org/2000/svg">
<path d="M7.79142 11.6667H3.14844V49C3.14844 51.5667 5.23778 53.6667 7.79142 53.6667H44.9352V49H7.79142V11.6667ZM49.5782 2.33337H17.0774C14.5237 2.33337 12.4344 4.43337 12.4344 7.00004V39.6667C12.4344 42.2334 14.5237 44.3334 17.0774 44.3334H49.5782C52.1319 44.3334 54.2212 42.2334 54.2212 39.6667V7.00004C54.2212 4.43337 52.1319 2.33337 49.5782 2.33337ZM49.5782 39.6667H17.0774V7.00004H49.5782V39.6667ZM40.2923 30.3334H31.0063V25.6667H35.6493C38.2029 25.6667 40.2923 23.59 40.2923 21V16.3334C40.2923 13.7434 38.2029 11.6667 35.6493 11.6667H26.3633V16.3334H35.6493V21H31.0063C28.4527 21 26.3633 23.0767 26.3633 25.6667V35H40.2923V30.3334Z" fill="#072AC8"/>
</svg>
