<svg width="56" height="56" viewBox="0 0 56 56" fill="none" xmlns="http://www.w3.org/2000/svg">
<path d="M7.19767 11.6667H2.55469V49C2.55469 51.5667 4.64403 53.6667 7.19767 53.6667H44.3415V49H7.19767V11.6667ZM32.734 35H37.377V11.6667H28.0911V16.3334H32.734V35ZM48.9845 2.33337H16.4836C13.93 2.33337 11.8406 4.43337 11.8406 7.00004V39.6667C11.8406 42.2334 13.93 44.3334 16.4836 44.3334H48.9845C51.5381 44.3334 53.6274 42.2334 53.6274 39.6667V7.00004C53.6274 4.43337 51.5381 2.33337 48.9845 2.33337ZM48.9845 39.6667H16.4836V7.00004H48.9845V39.6667Z" fill="#072AC8"/>
</svg>
