<svg width="429" height="274" viewBox="0 0 429 274" fill="none" xmlns="http://www.w3.org/2000/svg">
<g clip-path="url(#clip0)">
<path d="M100.503 270.901C105.993 265.943 109.328 258.111 108.453 250.487C107.579 242.862 102.162 235.853 95.1361 234.234C88.1102 232.614 80.101 237.096 77.967 244.432C76.7925 230.29 75.4392 215.555 68.4041 203.511C62.034 192.606 51.0008 184.803 39.0434 183.408C27.0859 182.012 14.4963 187.284 7.03885 197.371C-0.418579 207.458 -2.24451 222.122 2.97848 233.702C6.82607 242.234 13.9147 248.582 21.3418 253.748C45.3414 270.297 74.1259 277.028 102.399 272.7L100.503 270.901Z" fill="#F2F2F2"/>
<path d="M18.8635 187.576C28.7298 196.165 37.7812 205.771 45.8867 216.255C58.5716 232.607 68.8365 250.94 76.3235 270.616C76.8716 272.052 74.6907 272.676 74.1487 271.257C61.8986 239.279 42.3424 211.095 17.2687 189.281C16.1428 188.301 17.7468 186.604 18.8635 187.576Z" fill="white"/>
<path d="M290.77 269.554C283.23 262.745 278.65 251.987 279.851 241.515C281.052 231.042 288.492 221.415 298.142 219.191C307.792 216.967 318.793 223.123 321.724 233.198C323.337 213.774 325.196 193.536 334.858 176.994C343.608 162.016 358.762 151.299 375.185 149.381C391.609 147.464 408.901 154.706 419.143 168.56C429.386 182.414 431.894 202.556 424.72 218.462C419.436 230.179 409.7 238.899 399.498 245.994C366.953 268.627 326.581 278.066 288.166 272.024" fill="#F2F2F2"/>
<path d="M402.903 155.107C389.351 166.904 376.919 180.098 365.786 194.498C354.652 208.883 344.849 224.389 336.516 240.797C331.858 250.002 327.673 259.471 323.981 269.163C323.229 271.134 326.224 271.992 326.968 270.043C333.508 252.956 341.599 236.596 351.124 221.196C360.604 205.852 371.454 191.527 383.521 178.422C390.347 171.013 397.548 164.011 405.093 157.448C406.639 156.102 404.436 153.772 402.903 155.107L402.903 155.107Z" fill="white"/>
<path d="M121.004 273.4H300.908V76.1201C300.908 34.1473 268.958 0 229.686 0H192.226C152.954 0 121.004 34.1473 121.004 76.1201V273.4Z" fill="#F2F2F2"/>
<path d="M158.463 273.4H300.907V76.1201C300.947 60.0371 296.182 44.3605 287.306 31.3729C286.979 30.8963 286.652 30.4258 286.316 29.9605C282.023 23.9426 276.914 18.6427 271.157 14.2358C270.832 13.9829 270.506 13.7344 270.175 13.486C265.358 9.92356 260.148 7.01136 254.662 4.81566C254.337 4.6837 254.005 4.55149 253.673 4.42468C248.712 2.53251 243.57 1.23639 238.34 0.560239C238.016 0.512908 237.683 0.47587 237.35 0.438832C232.255 -0.14351 227.115 -0.14351 222.019 0.438832C221.687 0.47587 221.354 0.512903 221.026 0.560745C215.798 1.23694 210.657 2.5329 205.697 4.4247C205.365 4.55151 205.034 4.68372 204.707 4.81593C199.289 6.98393 194.141 9.85268 189.375 13.3581C189.044 13.6012 188.713 13.8497 188.386 14.0982C185.16 16.5597 182.129 19.302 179.325 22.297C177.077 24.6994 174.981 27.2601 173.054 29.9621C172.718 30.4259 172.392 30.8963 172.065 31.3722C163.189 44.3599 158.424 60.0368 158.463 76.1201V273.4Z" fill="#CCCCCC"/>
<path d="M170.046 185.164C165.69 185.164 162.16 181.391 162.16 176.736C162.16 172.081 165.69 168.307 170.046 168.307C174.401 168.307 177.932 172.081 177.932 176.736C177.932 181.391 174.401 185.164 170.046 185.164Z" fill="#072AC8"/>
<path d="M135.741 267.491H141.784L144.659 242.581L135.74 242.581L135.741 267.491Z" fill="#FFB8B8"/>
<path d="M146.1 265.646H134.447V273.488H153.438C153.438 272.458 153.248 271.439 152.879 270.487C152.511 269.536 151.97 268.671 151.289 267.943C150.608 267.215 149.799 266.637 148.908 266.243C148.018 265.849 147.064 265.646 146.1 265.646Z" fill="#2F2E41"/>
<path d="M105.675 267.491H111.718L114.593 242.581L105.674 242.581L105.675 267.491Z" fill="#FFB8B8"/>
<path d="M116.034 265.646H104.381V273.488H123.372C123.372 272.458 123.182 271.439 122.814 270.487C122.445 269.536 121.904 268.671 121.223 267.943C120.542 267.215 119.733 266.637 118.842 266.243C117.952 265.849 116.998 265.646 116.034 265.646Z" fill="#2F2E41"/>
<path d="M166.055 178.405C166.49 177.721 166.779 176.943 166.902 176.126C167.024 175.309 166.978 174.473 166.766 173.678C166.554 172.882 166.182 172.146 165.675 171.52C165.168 170.895 164.539 170.397 163.832 170.059L143.29 109.55L133.183 115.445L156.637 173.27C156.185 174.577 156.198 176.015 156.673 177.313C157.147 178.61 158.051 179.676 159.212 180.309C160.373 180.942 161.711 181.098 162.972 180.747C164.233 180.396 165.33 179.563 166.055 178.405Z" fill="#FFB8B8"/>
<path d="M108.762 189.775C109.434 189.364 110.013 188.8 110.458 188.123C110.904 187.447 111.205 186.674 111.341 185.86C111.477 185.045 111.444 184.209 111.245 183.409C111.046 182.61 110.685 181.867 110.188 181.233L116.552 117.224L105.049 117.785L102.404 180.747C101.463 181.71 100.884 183.008 100.778 184.397C100.673 185.785 101.047 187.166 101.831 188.279C102.615 189.392 103.753 190.159 105.031 190.435C106.308 190.711 107.636 190.476 108.762 189.775Z" fill="#FFB8B8"/>
<path d="M127.113 98.3417C120.427 98.3417 115.007 92.5491 115.007 85.4034C115.007 78.2578 120.427 72.4651 127.113 72.4651C133.799 72.4651 139.219 78.2578 139.219 85.4034C139.219 92.5491 133.799 98.3417 127.113 98.3417Z" fill="#FFB8B8"/>
<path d="M108.839 175.218H145.336L145.292 174.914C145.226 174.461 138.787 129.38 143.536 114.631C144.013 113.182 143.971 111.595 143.419 110.177C142.867 108.759 141.843 107.609 140.545 106.949H140.545C133.757 103.533 120.727 99.3258 109.73 109.535C108.111 111.062 106.847 112.971 106.038 115.11C105.229 117.249 104.897 119.56 105.067 121.86L108.839 175.218Z" fill="#072AC8"/>
<path d="M138.327 136.042L154.758 132.479L147.056 112.973C146.595 111.083 145.452 109.466 143.877 108.477C142.302 107.487 140.424 107.205 138.655 107.693C136.887 108.181 135.371 109.399 134.441 111.08C133.512 112.761 133.243 114.767 133.696 116.659L138.327 136.042Z" fill="#072AC8"/>
<path d="M117.282 142.657L118.27 118.456C119.019 113.906 116.582 109.606 112.835 108.903C109.086 108.202 105.426 111.358 104.673 115.94L100.96 138.554L117.282 142.657Z" fill="#072AC8"/>
<path d="M110.054 172.32C104.181 196.224 103.54 226.616 105.125 259.766L113.011 258.713L127.305 195.499L135.191 259.766L144.063 259.24C146.713 224.456 149.294 194.595 145.049 174.954L110.054 172.32Z" fill="#2F2E41"/>
<path d="M119.136 95.4024C121.395 97.9736 125.589 96.5933 125.883 93.0808C125.906 92.8081 125.904 92.5337 125.878 92.2613C125.726 90.7054 124.885 89.2929 125.086 87.6501C125.132 87.2412 125.275 86.8516 125.501 86.5181C127.3 83.9424 131.525 87.6701 133.223 85.3384C134.265 83.9088 133.04 81.6577 133.84 80.0598C134.894 77.9508 138.019 78.9912 139.978 77.8362C142.158 76.5511 142.028 72.9765 140.593 70.8022C138.843 68.1506 135.774 66.7357 132.744 66.5318C129.714 66.3279 126.705 67.2033 123.876 68.3815C120.662 69.7203 117.474 71.5704 115.496 74.591C113.091 78.2644 112.86 83.2028 114.063 87.4981C114.794 90.111 117.292 93.3029 119.136 95.4024Z" fill="#2F2E41"/>
<path d="M14.7957 273.739H378.692C378.847 273.739 378.996 273.673 379.106 273.555C379.215 273.437 379.277 273.278 379.277 273.112C379.277 272.946 379.215 272.787 379.106 272.669C378.996 272.552 378.847 272.485 378.692 272.485H14.7957C14.6403 272.485 14.4915 272.552 14.3818 272.669C14.2721 272.787 14.2105 272.946 14.2105 273.112C14.2105 273.278 14.2721 273.437 14.3818 273.555C14.4915 273.673 14.6403 273.739 14.7957 273.739Z" fill="#3F3D56"/>
<path d="M197.648 216.244H261.723C262.567 216.249 263.378 215.896 263.979 215.263C264.579 214.629 264.92 213.767 264.927 212.865V60.0086C264.92 59.1067 264.579 58.2444 263.979 57.6108C263.378 56.9773 262.567 56.6242 261.723 56.6291H197.648C196.804 56.6242 195.992 56.9773 195.392 57.6108C194.791 58.2444 194.45 59.1067 194.444 60.0086V212.865C194.45 213.767 194.791 214.629 195.392 215.263C195.992 215.896 196.804 216.249 197.648 216.244Z" fill="white"/>
<path d="M194.444 106.089H264.927V107.142H194.444V106.089Z" fill="#CCCCCC"/>
<path d="M194.198 166.2H264.681V167.254H194.198V166.2Z" fill="#CCCCCC"/>
<path d="M241.761 56.6292H242.747V216.771H241.761V56.6292Z" fill="#CCCCCC"/>
<path d="M217.117 56.6292H218.103V216.771H217.117V56.6292Z" fill="#CCCCCC"/>
</g>
<defs>
<clipPath id="clip0">
<rect width="428.812" height="274" fill="white" transform="matrix(-1 0 0 1 428.812 0)"/>
</clipPath>
</defs>
</svg>
