<svg width="164" height="35" viewBox="0 0 164 35" fill="none" xmlns="http://www.w3.org/2000/svg">
<rect width="8.52864" height="25.5859" rx="2" transform="matrix(-1 0 0 1 21.7568 4.69922)" fill="#457AFF"/>
<rect width="8.52864" height="25.5859" rx="2" transform="matrix(0 -1 -1 0 30.2856 21.7563)" fill="#457AFF"/>
<path d="M29.4267 18.8465V17.4619C29.4267 17.1618 29.1834 16.9185 28.8833 16.9185C28.765 16.9185 28.65 16.9571 28.5557 17.0284L28.4756 17.0889C28.2398 17.2672 28.1146 17.556 28.1457 17.8501L28.1678 18.0581C28.2437 18.7744 27.6822 19.3986 26.9619 19.3986H26.2744C26.0206 19.3986 25.7979 19.5678 25.7299 19.8123C25.6298 20.1724 25.9006 20.5287 26.2744 20.5287H27.7445C28.6736 20.5287 29.4267 19.7756 29.4267 18.8465Z" fill="white"/>
<path d="M14.3847 27.9528C14.266 27.2105 14.9443 26.9442 15.5226 27.4244C15.7518 27.6147 15.9844 27.7347 16.2097 27.7207C17.8569 27.8133 18.9901 27.8056 19.7612 27.7042C20.1325 27.6553 20.5055 27.9318 20.5055 28.3063C20.5055 28.6085 20.2605 28.8534 19.9583 28.8534H15.6404C15.343 28.8534 15.0544 28.7517 14.8228 28.5651L14.6674 28.44C14.5162 28.3182 14.4154 28.1446 14.3847 27.9528Z" fill="white"/>
<path d="M8.24704 14.4837C8.53541 14.8755 8.24274 15.4073 7.75641 15.4183C7.23821 15.43 6.95876 15.5287 6.84009 15.8815C6.68123 16.3538 6.15365 16.6808 5.77291 16.3593C5.67836 16.2795 5.611 16.1701 5.59416 16.0475C5.37546 14.4554 6.83247 13.8908 8.00596 14.2993C8.10369 14.3333 8.1857 14.4004 8.24704 14.4837Z" fill="#FAFCFF"/>
<path d="M50.2891 14.4297C49.3776 14.4297 48.6719 14.7734 48.1719 15.4609C47.6719 16.1432 47.4219 17.0964 47.4219 18.3203C47.4219 20.8672 48.3776 22.1406 50.2891 22.1406C51.0911 22.1406 52.0625 21.9401 53.2031 21.5391V23.5703C52.2656 23.9609 51.2188 24.1562 50.0625 24.1562C48.401 24.1562 47.1302 23.6536 46.25 22.6484C45.3698 21.638 44.9297 20.1901 44.9297 18.3047C44.9297 17.1172 45.1458 16.0781 45.5781 15.1875C46.0104 14.2917 46.6302 13.6068 47.4375 13.1328C48.25 12.6536 49.2005 12.4141 50.2891 12.4141C51.3984 12.4141 52.513 12.6823 53.6328 13.2188L52.8516 15.1875C52.4245 14.9844 51.9948 14.8073 51.5625 14.6562C51.1302 14.5052 50.7057 14.4297 50.2891 14.4297ZM58.8703 16.7969C58.3651 16.7969 57.9693 16.9583 57.6828 17.2812C57.3964 17.599 57.2323 18.0521 57.1906 18.6406H60.5344C60.524 18.0521 60.3703 17.599 60.0734 17.2812C59.7766 16.9583 59.3755 16.7969 58.8703 16.7969ZM59.2063 24.1562C57.8 24.1562 56.701 23.7682 55.9094 22.9922C55.1177 22.2161 54.7219 21.1172 54.7219 19.6953C54.7219 18.2318 55.0865 17.1016 55.8156 16.3047C56.55 15.5026 57.563 15.1016 58.8547 15.1016C60.0891 15.1016 61.05 15.4531 61.7375 16.1562C62.425 16.8594 62.7688 17.8307 62.7688 19.0703V20.2266H57.1359C57.162 20.9036 57.3625 21.4323 57.7375 21.8125C58.1125 22.1927 58.6385 22.3828 59.3156 22.3828C59.8417 22.3828 60.3391 22.3281 60.8078 22.2188C61.2766 22.1094 61.7661 21.9349 62.2766 21.6953V23.5391C61.8599 23.7474 61.4146 23.901 60.9406 24C60.4667 24.1042 59.8885 24.1562 59.2063 24.1562ZM72.5688 24H70.1859V18.8984C70.1859 18.2682 70.074 17.7969 69.85 17.4844C69.626 17.1667 69.2693 17.0078 68.7797 17.0078C68.113 17.0078 67.6313 17.2318 67.3344 17.6797C67.0375 18.1224 66.8891 18.8594 66.8891 19.8906V24H64.5063V15.2656H66.3266L66.6469 16.3828H66.7797C67.0453 15.9609 67.4099 15.6432 67.8734 15.4297C68.3422 15.2109 68.8734 15.1016 69.4672 15.1016C70.4828 15.1016 71.2536 15.3776 71.7797 15.9297C72.3057 16.4766 72.5688 17.2682 72.5688 18.3047V24ZM78.5016 22.2578C78.9182 22.2578 79.4182 22.1667 80.0016 21.9844V23.7578C79.4078 24.0234 78.6786 24.1562 77.8141 24.1562C76.8609 24.1562 76.1656 23.9167 75.7281 23.4375C75.2958 22.9531 75.0797 22.2292 75.0797 21.2656V17.0547H73.9391V16.0469L75.2516 15.25L75.9391 13.4062H77.4625V15.2656H79.9078V17.0547H77.4625V21.2656C77.4625 21.6042 77.5562 21.8542 77.7437 22.0156C77.9365 22.1771 78.1891 22.2578 78.5016 22.2578ZM87.7625 24L87.4422 22.8828H87.3172C87.062 23.2891 86.7 23.6042 86.2313 23.8281C85.7625 24.0469 85.2286 24.1562 84.6297 24.1562C83.6036 24.1562 82.8302 23.8828 82.3094 23.3359C81.7885 22.7839 81.5281 21.9922 81.5281 20.9609V15.2656H83.9109V20.3672C83.9109 20.9974 84.0229 21.4714 84.2469 21.7891C84.4708 22.1016 84.8276 22.2578 85.3172 22.2578C85.9839 22.2578 86.4656 22.0365 86.7625 21.5938C87.0594 21.1458 87.2078 20.4062 87.2078 19.375V15.2656H89.5906V24H87.7625ZM96.7656 15.1016C97.0885 15.1016 97.3568 15.125 97.5703 15.1719L97.3906 17.4062C97.1979 17.3542 96.9635 17.3281 96.6875 17.3281C95.9271 17.3281 95.3333 17.5234 94.9062 17.9141C94.4844 18.3047 94.2734 18.8516 94.2734 19.5547V24H91.8906V15.2656H93.6953L94.0469 16.7344H94.1641C94.4349 16.2448 94.7995 15.8516 95.2578 15.5547C95.7214 15.2526 96.224 15.1016 96.7656 15.1016ZM97.7062 15.2656H100.316L101.964 20.1797C102.105 20.6068 102.201 21.112 102.253 21.6953H102.3C102.357 21.1589 102.469 20.6536 102.636 20.1797L104.253 15.2656H106.808L103.112 25.1172C102.774 26.0286 102.29 26.7109 101.659 27.1641C101.034 27.6172 100.303 27.8438 99.4641 27.8438C99.0526 27.8438 98.649 27.7995 98.2531 27.7109V25.8203C98.5396 25.888 98.8521 25.9219 99.1906 25.9219C99.6125 25.9219 99.9797 25.7917 100.292 25.5312C100.61 25.276 100.857 24.888 101.034 24.3672L101.175 23.9375L97.7062 15.2656ZM121.369 24H118.955V19.0703H114.431V24H112.009V12.5781H114.431V17.0547H118.955V12.5781H121.369V24ZM127.489 16.7969C126.984 16.7969 126.588 16.9583 126.302 17.2812C126.015 17.599 125.851 18.0521 125.809 18.6406H129.153C129.143 18.0521 128.989 17.599 128.692 17.2812C128.395 16.9583 127.994 16.7969 127.489 16.7969ZM127.825 24.1562C126.419 24.1562 125.32 23.7682 124.528 22.9922C123.736 22.2161 123.341 21.1172 123.341 19.6953C123.341 18.2318 123.705 17.1016 124.434 16.3047C125.169 15.5026 126.182 15.1016 127.473 15.1016C128.708 15.1016 129.669 15.4531 130.356 16.1562C131.044 16.8594 131.387 17.8307 131.387 19.0703V20.2266H125.755C125.781 20.9036 125.981 21.4323 126.356 21.8125C126.731 22.1927 127.257 22.3828 127.934 22.3828C128.46 22.3828 128.958 22.3281 129.427 22.2188C129.895 22.1094 130.385 21.9349 130.895 21.6953V23.5391C130.479 23.7474 130.033 23.901 129.559 24C129.085 24.1042 128.507 24.1562 127.825 24.1562ZM138.672 24L138.211 22.8125H138.148C137.747 23.3177 137.333 23.6693 136.906 23.8672C136.484 24.0599 135.932 24.1562 135.25 24.1562C134.411 24.1562 133.75 23.9167 133.266 23.4375C132.786 22.9583 132.547 22.276 132.547 21.3906C132.547 20.4635 132.87 19.7812 133.516 19.3438C134.167 18.901 135.146 18.6562 136.453 18.6094L137.969 18.5625V18.1797C137.969 17.2943 137.516 16.8516 136.609 16.8516C135.911 16.8516 135.091 17.0625 134.148 17.4844L133.359 15.875C134.365 15.349 135.479 15.0859 136.703 15.0859C137.875 15.0859 138.773 15.3411 139.398 15.8516C140.023 16.362 140.336 17.138 140.336 18.1797V24H138.672ZM137.969 19.9531L137.047 19.9844C136.354 20.0052 135.839 20.1302 135.5 20.3594C135.161 20.5885 134.992 20.9375 134.992 21.4062C134.992 22.0781 135.378 22.4141 136.148 22.4141C136.701 22.4141 137.141 22.2552 137.469 21.9375C137.802 21.6198 137.969 21.1979 137.969 20.6719V19.9531ZM144.98 24H142.597V11.8438H144.98V24ZM150.967 22.2578C151.384 22.2578 151.884 22.1667 152.467 21.9844V23.7578C151.873 24.0234 151.144 24.1562 150.28 24.1562C149.327 24.1562 148.631 23.9167 148.194 23.4375C147.761 22.9531 147.545 22.2292 147.545 21.2656V17.0547H146.405V16.0469L147.717 15.25L148.405 13.4062H149.928V15.2656H152.373V17.0547H149.928V21.2656C149.928 21.6042 150.022 21.8542 150.209 22.0156C150.402 22.1771 150.655 22.2578 150.967 22.2578ZM162.103 24H159.72V18.8984C159.72 17.638 159.252 17.0078 158.314 17.0078C157.647 17.0078 157.166 17.2344 156.869 17.6875C156.572 18.1406 156.423 18.875 156.423 19.8906V24H154.041V11.8438H156.423V14.3203C156.423 14.513 156.405 14.9661 156.369 15.6797L156.314 16.3828H156.439C156.97 15.5286 157.814 15.1016 158.97 15.1016C159.996 15.1016 160.775 15.3776 161.306 15.9297C161.838 16.4818 162.103 17.2734 162.103 18.3047V24Z" fill="#457AFF"/>
</svg>
