<svg width="119" height="24" viewBox="0 0 119 24" fill="none" xmlns="http://www.w3.org/2000/svg">
<path d="M117 9.24L109.81 8.62L107 2L104.19 8.63L97 9.24L102.46 13.97L100.82 21L107 17.27L113.18 21L111.55 13.97L117 9.24ZM107 15.4V6.1L108.71 10.14L113.09 10.52L109.77 13.4L110.77 17.68L107 15.4Z" fill="#072AC8"/>
<path d="M12 17.27L18.18 21L16.54 13.97L22 9.24L14.81 8.63L12 2L9.19 8.63L2 9.24L7.46 13.97L5.82 21L12 17.27Z" fill="#072AC8"/>
<path d="M36 17.27L42.18 21L40.54 13.97L46 9.24L38.81 8.63L36 2L33.19 8.63L26 9.24L31.46 13.97L29.82 21L36 17.27Z" fill="#072AC8"/>
<path d="M60 17.27L66.18 21L64.54 13.97L70 9.24L62.81 8.63L60 2L57.19 8.63L50 9.24L55.46 13.97L53.82 21L60 17.27Z" fill="#072AC8"/>
<path d="M84 17.27L90.18 21L88.54 13.97L94 9.24L86.81 8.63L84 2L81.19 8.63L74 9.24L79.46 13.97L77.82 21L84 17.27Z" fill="#072AC8"/>
</svg>
