<svg width="471" height="447" viewBox="0 0 471 447" fill="none" xmlns="http://www.w3.org/2000/svg">
<path d="M236.653 447C366.08 447 471 392.498 471 325.267C471 258.036 366.08 203.535 236.653 203.535C107.227 203.535 2.30566 258.036 2.30566 325.267C2.30566 392.498 107.227 447 236.653 447Z" fill="#F5F5F5"/>
<path d="M386.786 341.171C421.307 341.171 449.292 325.051 449.292 305.168C449.292 285.284 421.307 269.165 386.786 269.165C352.265 269.165 324.28 285.284 324.28 305.168C324.28 325.051 352.265 341.171 386.786 341.171Z" fill="#E6E6E6"/>
<path d="M135.061 283.799C158.973 297.574 159.948 320.314 136.025 334.089C112.102 347.864 72.3703 347.454 48.4472 333.68C24.5242 319.905 24.5344 297.574 48.4472 283.799C72.36 270.025 111.127 270.025 135.061 283.799Z" fill="#E6E6E6"/>
<path d="M330.118 358.026L251.619 312.813C250.243 312.116 248.721 311.753 247.177 311.753C245.634 311.753 244.112 312.116 242.735 312.813L164.236 358.026C161.785 359.439 161.785 361.731 164.236 363.143L199.988 383.734L166.596 402.964C159.815 406.863 148.777 406.863 141.975 402.964L89.4512 372.712C86.5583 371.044 84.9579 368.946 84.9579 366.817C84.9579 364.689 86.5583 362.58 89.4512 360.912L135.994 334.099C136.24 333.971 136.456 333.795 136.632 333.582C136.807 333.368 136.937 333.121 137.014 332.856C137.091 332.591 137.114 332.313 137.08 332.039C137.047 331.765 136.958 331.5 136.82 331.261C136.681 331.022 136.496 330.814 136.274 330.648C136.053 330.483 135.8 330.363 135.532 330.298C135.263 330.232 134.983 330.221 134.71 330.266C134.437 330.311 134.176 330.41 133.943 330.558L87.42 357.351C83.2037 359.787 80.875 363.143 80.875 366.807C80.875 370.471 83.2037 373.817 87.42 376.253L139.944 406.504C144.385 408.788 149.31 409.979 154.306 409.979C159.303 409.979 164.227 408.788 168.668 406.504L204.112 386.098L242.776 408.357C244.153 409.054 245.675 409.417 247.218 409.417C248.762 409.417 250.284 409.054 251.66 408.357L330.159 363.143C332.57 361.731 332.57 359.439 330.118 358.026Z" fill="#E6E6E6"/>
<path d="M419.82 288.262C419.82 288.262 422.672 246.118 421.872 230.583C421.205 218.302 419.533 213.185 419.184 210.412C419.184 210.412 416.158 181.757 415.912 157.308C415.789 145.559 414.701 137.209 408.249 123.25L366.773 133.146C365.932 139.347 363.08 180.59 362.403 217.258C361.818 249.362 362.731 277.465 362.731 277.465V279.153C362.731 281.036 362.321 282.346 361.111 285.355C359.597 289.232 357.425 292.818 354.689 295.957C353.837 296.879 347.918 302.036 347.138 303.121C344.594 306.079 349.867 307.747 353.776 307.215C357.879 306.662 364.301 305.096 366.086 302.599C367.296 300.921 368.21 295.077 369.451 293.389C373.647 287.678 375.37 285.202 375.401 283.4C375.462 280.105 374.324 278.805 373.913 276.943C374.252 273.054 382.674 241.073 382.818 229.744C382.89 224.351 382.52 216.921 382.52 216.921L389.045 179.546C391.568 188.88 396 212.049 397.498 220.943C399.314 231.811 404.063 259.709 406.874 276.349C407.951 282.766 408.454 286.01 408.926 288.988L409.039 290.257C409.131 291.874 410.311 309.169 410.947 312.772C412.28 320.335 419.02 319.383 420.097 313.263C421.021 308.064 419.872 291.936 419.841 289.96L419.82 288.262Z" fill="#FFA8A7"/>
<path d="M419.82 288.262C421.728 288.262 420.476 295.64 420.969 300.358C421.492 305.424 423.154 309.129 423.636 313.273C424.283 316.896 423.725 320.63 422.046 323.907C420.723 326.977 414.055 331.07 411.521 326.762C408.987 322.453 408.443 317.469 408.741 312.741C409.038 308.013 408.741 304.841 408.833 301.126C408.925 297.851 406.514 289.49 408.987 289.019L409.1 290.288C409.992 292.059 418.999 292.406 419.902 290.012L419.82 288.262Z" fill="#37474F"/>
<path d="M375.831 287.422C376.415 289.786 375.831 296.275 375.831 296.275C375.831 296.275 374.805 298.516 371.142 300L369.501 290.974L375.831 287.422Z" fill="#263238"/>
<path d="M371.123 299.999L363.059 297.359L361.11 290.216L370.179 294.79L371.123 299.999Z" fill="black"/>
<path d="M362.731 279.153V277.465C361.634 277.997 359.223 286.808 355.961 292.816C352.986 298.332 347.087 301.402 345.169 303.807C342.604 307.01 347.59 311.155 355.581 309.446C359.551 308.596 365.563 306.069 367.194 303.398C368.825 300.726 369.369 295.814 370.702 293.849C372.036 291.884 375.206 289.623 375.832 287.392C376.353 285.378 376.353 283.265 375.832 281.251C375.206 279.204 374.652 276.759 373.954 276.984V278.529C373.421 279.614 371.482 280.883 367.45 281.108C365.481 281.2 363.614 280.903 362.731 279.153Z" fill="#37474F"/>
<path d="M365.931 132.614C365.931 132.614 363.192 162.978 362.31 189.863C361.428 216.747 362.218 251.44 362.218 251.44C362.218 251.44 364.998 253.426 371.122 253.702C377.247 253.978 379.329 251.942 379.329 251.942C379.329 251.942 383.074 239.753 383.658 231.177C384.029 226.535 384.029 221.87 383.658 217.228L389.126 181.348C389.126 181.348 396.061 216.675 396.851 220.943C397.641 225.211 404.278 262.964 404.278 262.964C404.278 262.964 406.884 265.358 413.572 265.235C419.492 265.123 421.205 263.004 421.205 263.004C421.205 263.004 422.631 239.855 422.302 229.969C422.025 221.25 420.025 214.311 419.625 208.652C419.225 202.993 418.999 170.786 418.599 158.506C418.199 146.225 417.173 135.684 406.638 120.906L365.931 132.614Z" fill="#455A64"/>
<path d="M389.168 181.378L384.613 158.863C384.613 158.863 376.683 156.817 372.979 151.966C372.979 151.966 374.005 157.328 382.212 160.757L387.054 183.149L385.372 206.298L389.168 181.378Z" fill="#37474F"/>
<path d="M307.981 127.015C310.903 127.46 313.887 127.24 316.711 126.371C315.471 125.752 314.31 124.986 313.254 124.089C312.77 123.7 312.456 123.139 312.379 122.524C312.303 121.909 312.469 121.288 312.844 120.793C313.223 120.384 314.167 121.336 316.301 121.939C319.03 122.707 321.009 122.871 323.636 124.385C324.627 124.96 325.791 125.164 326.918 124.958C333.32 123.761 348.246 116.771 355.089 113.128C356.484 107.448 358.905 99.0973 361.89 88.6791C364.65 79.0797 369.071 74.8838 376.129 75.0373L375.113 95.8838C375.113 95.8838 371.748 110.283 367.584 122.042C366.855 124.089 363.931 126.473 358.576 128.458C351.642 131.027 343.271 133.453 333.043 136.246C328.898 137.424 324.665 138.263 320.384 138.754C309.571 139.675 305.427 136.707 303.97 134.578C299.825 128.704 302.277 125.879 307.981 127.015Z" fill="#FFA8A7"/>
<path d="M394.318 74.8844L404.186 75.6417C403.337 79.6429 403.577 83.7982 404.884 87.6751C406.19 91.5519 408.514 95.0087 411.614 97.6856L407.213 115.37C407.356 117.56 410.988 124.928 414.507 132.849C407.89 141.692 375.432 144.711 364.845 136.943C366.476 128.613 367.697 122.288 368.025 119.126L367.491 107.694C354.217 96.8362 370.23 80.2879 376.129 75.0277L383.536 74.7002L394.318 74.8844Z" fill="#072AC8"/>
<path d="M435.875 162.988C435.159 162.43 434.591 161.706 434.223 160.877C433.854 160.049 433.696 159.143 433.762 158.239C433.936 156.592 434.316 154.524 435.003 153.726C435.69 152.928 439.999 147.084 441.907 150.482C443.959 154.187 443.538 155.691 443.538 155.691L435.875 162.988Z" fill="#F28F8F"/>
<path d="M422.58 241.093C417.949 240.94 413.439 239.578 409.5 237.143L358.279 207.628C350.37 203.074 343.917 191.95 343.917 182.831V139.962C343.912 138.527 343.529 137.119 342.807 135.878C342.085 134.637 341.048 133.608 339.801 132.893C338.555 132.178 337.141 131.802 335.703 131.803C334.265 131.804 332.852 132.183 331.607 132.9L313.675 143.257C313.441 143.405 313.18 143.504 312.907 143.549C312.634 143.594 312.355 143.583 312.086 143.518C311.817 143.452 311.565 143.333 311.343 143.167C311.122 143.001 310.936 142.793 310.798 142.554C310.659 142.315 310.571 142.05 310.537 141.776C310.504 141.502 310.527 141.224 310.604 140.959C310.681 140.694 310.811 140.447 310.986 140.234C311.161 140.02 311.378 139.844 311.623 139.716L329.607 129.349C331.476 128.272 333.597 127.705 335.756 127.704C337.915 127.703 340.036 128.268 341.907 129.343C343.778 130.418 345.332 131.965 346.414 133.829C347.496 135.693 348.068 137.808 348.072 139.962V182.831C348.072 190.507 353.714 200.229 360.382 204.087L411.603 233.582C418.159 237.358 424.242 238.013 428.715 235.444C433.188 232.875 435.66 227.257 435.66 219.735V165.004C435.66 155.732 441.6 145.048 449.181 140.678L461.686 133.514C461.919 133.366 462.181 133.267 462.454 133.222C462.727 133.177 463.006 133.188 463.275 133.253C463.544 133.319 463.796 133.438 464.018 133.604C464.239 133.77 464.424 133.978 464.563 134.217C464.701 134.456 464.79 134.721 464.823 134.995C464.857 135.269 464.834 135.547 464.757 135.812C464.68 136.077 464.55 136.324 464.375 136.537C464.2 136.751 463.983 136.927 463.738 137.055L451.232 144.219C445.016 147.801 439.763 157.308 439.763 164.994V219.725C439.763 228.792 436.563 235.628 430.767 238.975C428.276 240.397 425.449 241.128 422.58 241.093Z" fill="#37474F"/>
<path d="M334.078 146.215V149.561C334.078 154.913 330.313 161.432 325.656 164.103L294.593 182.003L263.007 163.807V136.523L293.639 122.38C298.512 120.138 306.226 120.486 310.884 123.157L325.636 131.662C330.283 134.343 334.078 140.862 334.078 146.215Z" fill="#37474F"/>
<path d="M293.639 122.38C298.512 120.138 306.226 120.486 310.884 123.157L325.636 131.662C330.283 134.333 330.098 138.324 325.225 140.576L294.562 154.698L262.966 136.513L293.639 122.38Z" fill="#455A64"/>
<path opacity="0.15" d="M297.548 148.148C298.771 148.945 299.79 150.018 300.52 151.28C301.251 152.543 301.674 153.959 301.754 155.414V177.857L294.573 181.951L262.986 163.755V136.523L270.988 132.838L297.548 148.148Z" fill="black"/>
<path d="M260.289 131.825C260.762 131.605 261.286 131.516 261.805 131.566C262.325 131.617 262.822 131.805 263.244 132.112L294.307 150.011C295.532 150.808 296.552 151.882 297.283 153.147C298.014 154.411 298.435 155.83 298.513 157.287V183.977C298.569 184.496 298.484 185.021 298.267 185.496C298.051 185.971 297.71 186.38 297.282 186.679C296.563 187.078 294.03 188.542 293.322 188.961C292.847 189.181 292.322 189.27 291.8 189.219C291.279 189.169 290.781 188.981 290.357 188.675L259.284 170.775C258.06 169.979 257.041 168.906 256.311 167.644C255.58 166.381 255.158 164.965 255.078 163.509V136.819C255.023 136.3 255.107 135.775 255.322 135.299C255.536 134.823 255.873 134.412 256.298 134.107L260.289 131.825Z" fill="#37474F"/>
<path d="M290.356 152.283L259.283 134.394C256.965 133.053 255.077 134.138 255.077 136.819V163.51C255.157 164.965 255.579 166.381 256.31 167.644C257.041 168.906 258.059 169.979 259.283 170.776L290.356 188.675C292.675 190.015 294.563 188.931 294.563 186.249V159.559C294.483 158.102 294.06 156.685 293.33 155.421C292.599 154.157 291.58 153.082 290.356 152.283Z" fill="#455A64"/>
<path d="M253.56 183.353V187.969C253.56 189.841 254.206 191.141 255.273 191.755L258.063 193.362C258.732 193.686 259.476 193.824 260.217 193.759C260.958 193.694 261.667 193.429 262.269 192.993L287.916 178.195V159.979L285.125 158.372L259.427 173.17C257.716 174.288 256.293 175.793 255.274 177.562C254.254 179.331 253.667 181.315 253.56 183.353ZM265.183 177.643C265.28 177.975 265.336 178.319 265.347 178.666C265.273 180.034 264.878 181.365 264.191 182.551C263.505 183.737 262.548 184.745 261.397 185.492C261.078 185.679 260.732 185.817 260.371 185.901C260.281 185.567 260.233 185.224 260.228 184.878C260.302 183.511 260.698 182.18 261.384 180.994C262.07 179.808 263.027 178.8 264.177 178.052C264.496 177.878 264.833 177.741 265.183 177.643Z" fill="#072AC8"/>
<path opacity="0.2" d="M257.919 193.26C257.973 193.307 258.032 193.348 258.094 193.383L257.991 193.322L255.293 191.756C254.216 191.162 253.58 189.863 253.58 187.98V183.364C253.647 181.313 254.245 179.314 255.314 177.562L258.104 179.168C257.045 180.925 256.452 182.922 256.381 184.971V189.586C256.306 190.782 256.691 191.96 257.458 192.882C257.596 193.026 257.751 193.153 257.919 193.26Z" fill="black"/>
<path opacity="0.5" d="M287.915 159.979L262.269 174.777C260.529 175.859 259.095 177.367 258.104 179.157L255.313 177.55C256.304 175.763 257.734 174.256 259.468 173.17L285.166 158.372L287.915 159.979Z" fill="white"/>
<path opacity="0.2" d="M265.346 178.667C265.345 178.297 265.296 177.929 265.202 177.572C266.895 177.111 268.136 178.165 268.136 180.273C268.063 181.64 267.668 182.97 266.983 184.155C266.299 185.341 265.345 186.35 264.197 187.099C262.371 188.123 260.812 187.601 260.381 185.902C260.743 185.823 261.09 185.685 261.407 185.493C262.554 184.742 263.508 183.734 264.192 182.548C264.876 181.362 265.272 180.033 265.346 178.667Z" fill="black"/>
<path d="M229.872 169.701V174.327C229.872 176.19 230.518 177.5 231.585 178.103L234.376 179.72C235.044 180.038 235.785 180.17 236.522 180.101C237.259 180.033 237.963 179.767 238.561 179.331L264.208 164.523V146.337L261.417 144.72L235.771 159.518C234.055 160.635 232.628 162.138 231.603 163.907C230.578 165.676 229.985 167.661 229.872 169.701ZM241.495 163.96C241.589 164.318 241.637 164.685 241.639 165.055C241.565 166.422 241.168 167.753 240.482 168.939C239.796 170.125 238.839 171.133 237.689 171.881C237.364 172.057 237.02 172.195 236.663 172.29C236.565 171.941 236.517 171.579 236.52 171.216C236.593 169.85 236.988 168.52 237.673 167.334C238.357 166.148 239.311 165.139 240.459 164.39C240.782 164.199 241.131 164.054 241.495 163.96Z" fill="#072AC8"/>
<path opacity="0.2" d="M234.499 179.792H234.447H234.376L231.585 178.165C230.508 177.561 229.872 176.261 229.872 174.378V169.763C229.883 168.777 230.039 167.797 230.334 166.856C230.643 165.849 231.066 164.881 231.596 163.97L234.386 165.567C234.121 166.023 233.885 166.494 233.678 166.979C233.041 168.354 232.692 169.845 232.652 171.359V175.975C232.565 177.163 232.931 178.34 233.678 179.27C233.92 179.489 234.197 179.666 234.499 179.792Z" fill="black"/>
<path opacity="0.5" d="M264.239 146.337L238.592 161.135C236.85 162.214 235.415 163.723 234.427 165.516L231.637 163.919C232.61 162.13 234.022 160.616 235.74 159.518L261.387 144.72L264.239 146.337Z" fill="white"/>
<path opacity="0.2" d="M241.629 165.045C241.631 164.679 241.586 164.314 241.495 163.96C243.178 163.489 244.429 164.553 244.429 166.661C244.356 168.028 243.961 169.358 243.276 170.544C242.592 171.729 241.637 172.738 240.49 173.488C238.654 174.511 237.105 173.989 236.674 172.28C237.037 172.204 237.384 172.065 237.7 171.871C238.846 171.121 239.8 170.112 240.482 168.926C241.165 167.74 241.558 166.41 241.629 165.045Z" fill="black"/>
<path d="M237.649 152.621C237.307 152.622 236.974 152.508 236.705 152.299C236.435 152.089 236.244 151.795 236.161 151.464L232.058 135.418C231.956 135.023 232.015 134.603 232.223 134.252C232.431 133.901 232.77 133.647 233.166 133.545C233.561 133.443 233.982 133.502 234.334 133.71C234.686 133.917 234.941 134.255 235.043 134.65L239.146 150.707C239.198 150.902 239.211 151.105 239.183 151.305C239.156 151.505 239.088 151.697 238.985 151.871C238.882 152.044 238.745 152.196 238.582 152.316C238.42 152.436 238.235 152.522 238.038 152.57C237.911 152.603 237.78 152.62 237.649 152.621Z" fill="#E0E0E0"/>
<path d="M226.097 159.315C225.751 159.315 225.415 159.2 225.143 158.987L209.868 146.942C209.699 146.82 209.557 146.666 209.45 146.489C209.343 146.311 209.273 146.114 209.244 145.908C209.216 145.703 209.229 145.494 209.283 145.294C209.338 145.094 209.433 144.907 209.562 144.744C209.691 144.581 209.851 144.447 210.034 144.348C210.217 144.249 210.418 144.188 210.625 144.168C210.831 144.149 211.04 144.172 211.238 144.235C211.436 144.298 211.619 144.401 211.776 144.537L227.051 156.572C227.37 156.825 227.577 157.195 227.625 157.599C227.673 158.003 227.559 158.41 227.308 158.731C227.164 158.915 226.981 159.063 226.771 159.164C226.561 159.265 226.33 159.317 226.097 159.315Z" fill="#E0E0E0"/>
<path d="M205.046 174.01C204.638 174.025 204.241 173.877 203.942 173.6C203.643 173.323 203.466 172.938 203.451 172.531C203.436 172.124 203.584 171.727 203.862 171.429C204.14 171.131 204.525 170.954 204.934 170.94L222.794 169.558C222.995 169.541 223.198 169.565 223.391 169.627C223.584 169.689 223.762 169.788 223.915 169.92C224.069 170.051 224.195 170.212 224.286 170.392C224.377 170.572 224.431 170.769 224.445 170.97C224.474 171.375 224.341 171.775 224.076 172.084C223.811 172.392 223.435 172.584 223.03 172.618L205.17 174L205.046 174.01Z" fill="#E0E0E0"/>
<path d="M449.837 146.286C449.489 142.505 448.927 138.747 448.155 135.029C445.821 126.306 442.71 117.809 438.86 109.638C437.147 106.374 433.28 101.615 430.541 97.5929C426.663 91.9131 423.934 88.7304 420.99 84.8722C414.506 76.4087 411.757 75.9175 404.186 75.6616C403.16 78.3531 400.821 89.3853 408.403 98.2991L424.652 115.39C425.575 116.874 435.506 133.811 437.157 140.064C437.443 141.176 437.304 142.354 436.768 143.369C435.47 146.236 434.516 149.245 433.926 152.334C433.444 154.504 432.151 156.223 432.592 156.561C433.137 156.924 433.789 157.093 434.443 157.041C435.096 156.99 435.713 156.719 436.193 156.274C437.353 155.032 438.299 153.608 438.994 152.058C439.299 152.038 439.604 152.082 439.892 152.186C440.179 152.29 440.441 152.453 440.662 152.663C440.883 152.874 441.058 153.128 441.175 153.41C441.292 153.692 441.349 153.994 441.343 154.299C441.435 155.558 440.861 157.308 440.42 159.488C440.338 159.918 440.235 160.409 440.04 161.596C439.872 162.398 439.776 163.213 439.753 164.032C441.805 164.41 443.949 163.162 447.395 159.938C450.504 156.929 450.709 152.979 449.837 146.286Z" fill="#FFA8A7"/>
<path d="M396.082 69.9103C396.144 67.8635 402.812 63.074 406.187 57.9775C409.265 53.2494 413.686 40.2523 403.325 36.0974C403.325 36.0974 405.561 29.8649 401.499 26.1909C397.436 22.5169 391.969 24.7888 391.107 26.3239C390.586 24.4102 389.46 22.7152 387.897 21.4909C386.333 20.2666 384.415 19.5784 382.428 19.5286C380.487 19.3828 378.559 19.9415 376.998 21.1017C375.437 22.262 374.349 23.9458 373.934 25.8429C372.295 25.135 370.461 25.0109 368.741 25.4917C367.02 25.9724 365.518 27.0287 364.486 28.4833C360.68 33.7128 365.727 38.5023 365.727 38.5023C365.073 38.943 364.55 39.5528 364.216 40.2666C363.882 40.9804 363.748 41.7713 363.829 42.555C364.127 44.7655 366.25 45.3079 366.497 46.4132C366.544 46.6444 366.515 46.8849 366.413 47.098C366.311 47.3111 366.143 47.4853 365.933 47.5942C365.723 47.703 365.483 47.7404 365.249 47.7009C365.016 47.6614 364.802 47.547 364.64 47.3752C364.695 47.6637 364.807 47.9386 364.969 48.1839C365.131 48.4292 365.34 48.6402 365.584 48.8047C365.828 48.9692 366.102 49.084 366.391 49.1425C366.68 49.201 366.977 49.2021 367.266 49.1456C369.656 49.0126 371.79 45.7684 371.79 45.7684L396.082 69.9103Z" fill="#263238"/>
<path d="M374.335 35.4424C371.257 36.7728 368.354 41.4497 368.395 54.5287C368.395 65.612 371.842 68.4161 373.524 69.2451C375.207 70.074 378.602 69.6442 381.875 69.1427V75.5185C381.875 75.5185 375.956 82.846 381.259 86.4893C394.924 84.1047 395.97 75.1603 395.97 75.1603L396.216 61.2626C396.216 61.2626 398.094 63.2275 401.346 60.3415C404.074 57.957 405.059 53.8737 403.007 51.6222C400.956 49.3708 398.33 49.1968 395.95 51.7041C395.95 51.7041 391.59 51.9907 385.034 47.8868C378.479 43.783 376.14 39.6178 374.335 35.4424Z" fill="#FFA8A7"/>
<path d="M382.203 61.4672C382.217 61.6785 382.188 61.8906 382.119 62.0909C382.05 62.2912 381.942 62.4758 381.8 62.6339C381.659 62.792 381.488 62.9205 381.296 63.0118C381.104 63.1032 380.896 63.1556 380.684 63.166C380.356 63.1924 380.026 63.1199 379.739 62.958C379.452 62.796 379.22 62.5519 379.073 62.2573C378.926 61.9626 378.871 61.6308 378.915 61.3046C378.959 60.9784 379.1 60.6728 379.319 60.4272C379.539 60.1815 379.827 60.0071 380.147 59.9263C380.467 59.8456 380.803 59.8622 381.114 59.9741C381.424 60.086 381.693 60.2881 381.888 60.5542C382.082 60.8203 382.191 61.1383 382.203 61.4672Z" fill="#B16668"/>
<path d="M373.759 50.742C373.757 51.0304 373.67 51.3118 373.509 51.5513C373.348 51.7908 373.12 51.9779 372.853 52.0895C372.587 52.201 372.293 52.2321 372.009 52.1789C371.725 52.1257 371.463 51.9905 371.255 51.7901C371.047 51.5897 370.903 51.3328 370.84 51.0514C370.777 50.77 370.798 50.4763 370.901 50.2067C371.004 49.9372 371.184 49.7037 371.418 49.5351C371.653 49.3664 371.932 49.2702 372.22 49.2581C372.419 49.2541 372.617 49.2893 372.802 49.3618C372.987 49.4343 373.156 49.5426 373.299 49.6806C373.442 49.8185 373.557 49.9833 373.636 50.1655C373.714 50.3477 373.756 50.5436 373.759 50.742Z" fill="#263238"/>
<path d="M385.117 51.4173C385.13 51.6287 385.102 51.8407 385.033 52.041C384.964 52.2413 384.855 52.4259 384.714 52.584C384.573 52.7421 384.401 52.8706 384.21 52.9619C384.018 53.0533 383.81 53.1057 383.598 53.1161C383.169 53.1189 382.756 52.9529 382.449 52.654C382.142 52.3552 381.965 51.9476 381.957 51.5196C381.95 51.3127 381.984 51.1064 382.058 50.9126C382.131 50.7188 382.241 50.5413 382.383 50.3902C382.525 50.2391 382.696 50.1174 382.885 50.032C383.074 49.9466 383.278 49.8992 383.485 49.8924C383.693 49.8857 383.9 49.9198 384.094 49.9928C384.288 50.0658 384.466 50.1763 384.618 50.3179C384.769 50.4595 384.891 50.6294 384.977 50.8181C385.062 51.0067 385.11 51.2103 385.117 51.4173Z" fill="#263238"/>
<path d="M372.734 44.8779L369.605 46.7098C369.717 46.9208 369.871 47.1067 370.058 47.2557C370.245 47.4048 370.461 47.514 370.692 47.5763C370.922 47.6387 371.164 47.6531 371.401 47.6184C371.637 47.5838 371.864 47.5009 372.068 47.375C372.479 47.1239 372.778 46.7245 372.902 46.2596C373.026 45.7947 372.966 45.2999 372.734 44.8779Z" fill="#263238"/>
<path d="M396.011 49.9023V56.0427C395.616 56.0527 395.223 55.9821 394.857 55.835C394.491 55.688 394.158 55.4677 393.881 55.1878C393.603 54.9079 393.386 54.5742 393.242 54.2073C393.098 53.8404 393.032 53.448 393.046 53.0544C393.049 52.2525 393.357 51.4816 393.907 50.8968C394.457 50.312 395.208 49.9567 396.011 49.9023Z" fill="#263238"/>
<path d="M377.801 49.2788L377.175 58.1209L372.497 57.0259L377.801 49.2788Z" fill="#F28F8F"/>
<path d="M381.916 69.1631C385.352 68.764 392.451 66.7991 393.61 63.9131C393.151 65.359 392.264 66.6325 391.066 67.5666C388.922 69.4087 381.905 71.3122 381.905 71.3122L381.916 69.1631Z" fill="#F28F8F"/>
<path d="M423.226 0.779882C424.535 1.27834 425.762 1.96814 426.868 2.82667C427.939 3.60757 428.86 4.57482 429.587 5.68194C430.278 6.74694 430.733 7.94737 430.92 9.20241C431.105 10.542 430.939 11.9065 430.438 13.1629C430.08 14.1689 429.525 15.0941 428.807 15.8852C428.165 16.5596 427.429 17.1386 426.622 17.6045C425.836 18.0521 425.012 18.4288 424.16 18.7302L421.739 19.6001C421.026 19.8568 420.34 20.1788 419.687 20.5621C419.072 20.8706 418.556 21.3459 418.2 21.9334C418.036 22.2077 417.802 22.4338 417.522 22.5884C417.388 22.662 417.24 22.7048 417.087 22.7136C416.934 22.7225 416.782 22.6972 416.64 22.6396L413.439 21.4422C413.288 21.3861 413.148 21.3001 413.03 21.1894C412.912 21.0786 412.818 20.9454 412.752 20.7975C412.682 20.6559 412.645 20.5001 412.645 20.3421C412.645 20.184 412.682 20.0282 412.752 19.8866C413.164 18.9019 413.771 18.0107 414.537 17.2668C415.232 16.6149 416.008 16.0543 416.845 15.5986C417.654 15.1655 418.498 14.8026 419.369 14.5138C420.231 14.2273 421.031 13.951 421.78 13.6644C422.456 13.4167 423.106 13.1012 423.719 12.7229C424.246 12.3897 424.649 11.8937 424.868 11.3106C425.07 10.7998 425.144 10.2474 425.083 9.7016C425.022 9.15576 424.829 8.63304 424.519 8.17902C423.747 7.06076 422.625 6.22939 421.328 5.81498C420.199 5.36683 418.959 5.27873 417.778 5.5628C416.596 5.84686 415.532 6.48914 414.732 7.40124C414.528 7.61692 414.288 7.7968 414.024 7.9334C413.74 8.02236 413.432 8.00043 413.163 7.872L409.757 6.59276C409.635 6.55071 409.524 6.48462 409.428 6.39845C409.333 6.31228 409.256 6.2078 409.203 6.09129C409.144 5.97188 409.113 5.84059 409.113 5.70752C409.113 5.57446 409.144 5.44316 409.203 5.32375C409.654 4.28026 410.359 3.36566 411.254 2.66293C412.251 1.83594 413.387 1.1915 414.609 0.759414C415.951 0.286277 417.361 0.0306022 418.784 0.00210099C420.301 -0.0265235 421.81 0.23758 423.226 0.779882ZM415.922 25.239C416.072 25.292 416.208 25.3759 416.323 25.4852C416.438 25.5946 416.529 25.7269 416.589 25.8735C416.652 26.0188 416.685 26.1756 416.685 26.334C416.685 26.4925 416.652 26.6492 416.589 26.7945L415.194 30.489C415.141 30.6383 415.056 30.7747 414.947 30.8893C414.837 31.004 414.705 31.0942 414.558 31.1542C414.412 31.2173 414.255 31.2499 414.096 31.2499C413.937 31.2499 413.78 31.2173 413.634 31.1542L410.013 29.7931C409.863 29.7401 409.727 29.6562 409.612 29.5468C409.497 29.4375 409.406 29.3052 409.346 29.1586C409.283 29.0133 409.25 28.8565 409.25 28.6981C409.25 28.5396 409.283 28.3829 409.346 28.2375L410.742 24.5431C410.796 24.3934 410.881 24.2564 410.99 24.1403C411.099 24.0242 411.231 23.9314 411.378 23.8676C411.524 23.8068 411.681 23.7755 411.839 23.7755C411.998 23.7755 412.155 23.8068 412.301 23.8676L415.922 25.239Z" fill="#072AC8"/>
<path d="M425.001 44.8881C425.108 44.9929 425.193 45.1179 425.251 45.2559C425.309 45.3938 425.339 45.5419 425.339 45.6915C425.339 45.8411 425.309 45.9892 425.251 46.1271C425.193 46.2651 425.108 46.3901 425.001 46.4949L422.437 49.1966C422.334 49.3056 422.21 49.3927 422.072 49.4525C421.935 49.5123 421.787 49.5437 421.637 49.5446C421.486 49.55 421.336 49.5257 421.195 49.473C421.055 49.4203 420.925 49.3403 420.816 49.2376L418.2 46.7302C418.091 46.6277 418.003 46.504 417.943 46.3668C417.883 46.2296 417.852 46.0817 417.851 45.932C417.843 45.7818 417.867 45.6315 417.919 45.4907C417.972 45.3498 418.054 45.2213 418.159 45.1133L420.734 42.4218C420.949 42.2111 421.238 42.0931 421.539 42.0931C421.84 42.0931 422.129 42.2111 422.344 42.4218L425.001 44.8881ZM440.389 26.334C441.343 27.2356 442.162 28.2696 442.821 29.4042C443.455 30.4793 443.896 31.6569 444.123 32.8837C444.316 34.0597 444.256 35.263 443.949 36.4144C443.622 37.5039 443.07 38.5134 442.33 39.3785C441.59 40.2437 440.678 40.9455 439.651 41.4393C438.848 41.7928 437.998 42.0272 437.127 42.1352C436.279 42.2304 435.425 42.2543 434.573 42.2068L432.152 42.0738C431.429 42.0349 430.705 42.0588 429.987 42.1454C429.344 42.2163 428.733 42.4643 428.223 42.8618C427.981 43.0438 427.693 43.1538 427.392 43.1791C427.248 43.1952 427.102 43.1787 426.965 43.1309C426.828 43.083 426.704 43.0051 426.602 42.9027L424.273 40.6922C424.049 40.4812 423.916 40.191 423.904 39.8837C423.889 39.7326 423.911 39.5801 423.968 39.4393C424.025 39.2985 424.116 39.1736 424.232 39.0753C424.947 38.3663 425.798 37.8093 426.735 37.4378C427.578 37.1256 428.457 36.9227 429.351 36.834C430.215 36.7625 431.083 36.7625 431.946 36.834C432.801 36.9091 433.601 36.9602 434.347 36.9875C435.033 37.022 435.721 36.9843 436.399 36.875C436.982 36.7844 437.52 36.5038 437.927 36.0767C438.287 35.7053 438.551 35.2526 438.698 34.7572C438.844 34.2618 438.868 33.7384 438.768 33.2317C438.513 31.9763 437.845 30.8417 436.871 30.008C436.051 29.2085 435.005 28.6811 433.873 28.4979C432.742 28.3147 431.582 28.4847 430.551 28.9846C430.298 29.0957 430.027 29.1615 429.751 29.179C429.611 29.1706 429.474 29.1336 429.349 29.0702C429.223 29.0069 429.112 28.9185 429.023 28.8106L426.54 26.4466C426.361 26.2853 426.251 26.062 426.232 25.8223C426.226 25.6957 426.246 25.5692 426.292 25.4511C426.338 25.3329 426.409 25.2258 426.499 25.1366C427.275 24.4005 428.218 23.8631 429.248 23.5708C430.418 23.2219 431.64 23.0798 432.859 23.1512C434.201 23.2328 435.521 23.53 436.768 24.0314C438.102 24.5559 439.319 25.3385 440.348 26.334H440.389Z" fill="#072AC8"/>
<g opacity="0.6">
<path opacity="0.6" d="M425.001 44.8881C425.108 44.9929 425.193 45.1179 425.251 45.2559C425.309 45.3938 425.339 45.5419 425.339 45.6915C425.339 45.8411 425.309 45.9892 425.251 46.1271C425.193 46.2651 425.108 46.3901 425.001 46.4949L422.437 49.1966C422.334 49.3056 422.21 49.3927 422.072 49.4525C421.935 49.5123 421.787 49.5437 421.637 49.5446C421.486 49.55 421.336 49.5257 421.195 49.473C421.055 49.4203 420.925 49.3403 420.816 49.2376L418.2 46.7302C418.091 46.6277 418.003 46.504 417.943 46.3668C417.883 46.2296 417.852 46.0817 417.851 45.932C417.843 45.7818 417.867 45.6315 417.919 45.4907C417.972 45.3498 418.054 45.2213 418.159 45.1133L420.734 42.4218C420.949 42.2111 421.238 42.0931 421.539 42.0931C421.84 42.0931 422.129 42.2111 422.344 42.4218L425.001 44.8881ZM440.389 26.334C441.343 27.2356 442.162 28.2696 442.821 29.4042C443.455 30.4793 443.896 31.6569 444.123 32.8837C444.316 34.0597 444.256 35.263 443.949 36.4144C443.622 37.5039 443.07 38.5134 442.33 39.3785C441.59 40.2437 440.678 40.9455 439.651 41.4393C438.848 41.7928 437.998 42.0272 437.127 42.1352C436.279 42.2304 435.425 42.2543 434.573 42.2068L432.152 42.0738C431.429 42.0349 430.705 42.0588 429.987 42.1454C429.344 42.2163 428.733 42.4643 428.223 42.8618C427.981 43.0438 427.693 43.1538 427.392 43.1791C427.248 43.1952 427.102 43.1787 426.965 43.1309C426.828 43.083 426.704 43.0051 426.602 42.9027L424.273 40.6922C424.049 40.4812 423.916 40.191 423.904 39.8837C423.889 39.7326 423.911 39.5801 423.968 39.4393C424.025 39.2985 424.116 39.1736 424.232 39.0753C424.947 38.3663 425.798 37.8093 426.735 37.4378C427.578 37.1256 428.457 36.9227 429.351 36.834C430.215 36.7625 431.083 36.7625 431.946 36.834C432.801 36.9091 433.601 36.9602 434.347 36.9875C435.033 37.022 435.721 36.9843 436.399 36.875C436.982 36.7844 437.52 36.5038 437.927 36.0767C438.287 35.7053 438.551 35.2526 438.698 34.7572C438.844 34.2618 438.868 33.7384 438.768 33.2317C438.513 31.9763 437.845 30.8417 436.871 30.008C436.051 29.2085 435.005 28.6811 433.873 28.4979C432.742 28.3147 431.582 28.4847 430.551 28.9846C430.298 29.0957 430.027 29.1615 429.751 29.179C429.611 29.1706 429.474 29.1336 429.349 29.0702C429.223 29.0069 429.112 28.9185 429.023 28.8106L426.54 26.4466C426.361 26.2853 426.251 26.062 426.232 25.8223C426.226 25.6957 426.246 25.5692 426.292 25.4511C426.338 25.3329 426.409 25.2258 426.499 25.1366C427.275 24.4005 428.218 23.8631 429.248 23.5708C430.418 23.2219 431.64 23.0798 432.859 23.1512C434.201 23.2328 435.521 23.53 436.768 24.0314C438.102 24.5559 439.319 25.3385 440.348 26.334H440.389Z" fill="white"/>
</g>
<path d="M59.9785 302.201C63.2305 304.176 67.5494 304.247 71.622 302.825L74.6996 281.334L60.3376 277.67L59.9785 302.201Z" fill="#FFA8A7"/>
<path d="M83.1518 322.771C83.5108 323.139 83.2954 325.841 82.8543 326.445C82.4131 327.049 79.9408 329.096 75.386 329.178C71.0466 329.249 67.1791 328.461 64.7581 326.711C62.3371 324.961 61.1779 323.129 61.065 320.653C60.9522 318.176 61.3625 315.832 60.2956 313.878C59.2287 311.923 57.9464 310.286 57.6181 309.324C57.2328 307.581 57.2328 305.775 57.6181 304.033L83.1518 322.771Z" fill="#263238"/>
<path d="M72.6167 301.925C72.6369 302.858 72.7678 303.785 73.0065 304.688C73.5659 306.623 74.3545 308.485 75.3557 310.235C75.8537 311.147 76.4123 312.026 77.0279 312.865C78.2487 314.492 79.808 315.853 81.1313 317.419C82.5361 318.903 83.381 320.827 83.5216 322.863C83.5216 326.261 79.7772 327.213 76.915 327.561C73.8049 327.939 70.6491 327.614 67.6823 326.609C66.1296 326.114 64.753 325.182 63.7177 323.926C62.6824 322.67 62.0322 321.142 61.8452 319.527C61.7323 318.575 61.8452 317.623 61.7836 316.672C61.5281 314.488 60.7313 312.402 59.4652 310.603C58.729 309.562 58.1098 308.443 57.6186 307.267C56.839 305.128 57.6802 302.805 58.3572 300.748C58.942 298.977 59.3831 296.838 60.0397 297.043C60.0397 297.401 60.0397 298.199 60.0397 298.199C60.2243 298.599 60.6757 298.885 60.7885 299.356C60.895 299.842 61.0425 300.318 61.2296 300.778C61.509 301.491 62.0038 302.099 62.6453 302.518C62.7582 301.239 62.871 299.96 62.9736 298.691C62.9445 298.489 62.9618 298.283 63.0243 298.089C63.0868 297.895 63.1927 297.718 63.3342 297.571C63.4756 297.424 63.6487 297.311 63.8405 297.241C64.0322 297.171 64.2374 297.145 64.4406 297.166C66.847 296.727 69.3062 296.654 71.7344 296.951C71.9174 296.965 72.0958 297.014 72.2595 297.097C72.4232 297.179 72.569 297.293 72.6885 297.432C72.8137 297.704 72.8531 298.007 72.8013 298.302C72.6744 299.505 72.6127 300.715 72.6167 301.925Z" fill="#072AC8"/>
<path opacity="0.2" d="M72.6167 301.925C72.6369 302.858 72.7678 303.785 73.0065 304.688C73.5659 306.623 74.3545 308.485 75.3557 310.235C75.8537 311.147 76.4123 312.026 77.0279 312.865C78.2487 314.492 79.808 315.853 81.1313 317.419C82.5361 318.903 83.381 320.827 83.5216 322.863C83.5216 326.261 79.7772 327.213 76.915 327.561C73.8049 327.939 70.6491 327.614 67.6823 326.609C66.1296 326.114 64.753 325.182 63.7177 323.926C62.6824 322.67 62.0322 321.142 61.8452 319.527C61.7323 318.575 61.8452 317.623 61.7836 316.672C61.5281 314.488 60.7313 312.402 59.4652 310.603C58.729 309.562 58.1098 308.443 57.6186 307.267C56.839 305.128 57.6802 302.805 58.3572 300.748C58.942 298.977 59.3831 296.838 60.0397 297.043C60.0397 297.401 60.0397 298.199 60.0397 298.199C60.2243 298.599 60.6757 298.885 60.7885 299.356C60.895 299.842 61.0425 300.318 61.2296 300.778C61.509 301.491 62.0038 302.099 62.6453 302.518C62.7582 301.239 62.871 299.96 62.9736 298.691C62.9445 298.489 62.9618 298.283 63.0243 298.089C63.0868 297.895 63.1927 297.718 63.3342 297.571C63.4756 297.424 63.6487 297.311 63.8405 297.241C64.0322 297.171 64.2374 297.145 64.4406 297.166C66.847 296.727 69.3062 296.654 71.7344 296.951C71.9174 296.965 72.0958 297.014 72.2595 297.097C72.4232 297.179 72.569 297.293 72.6885 297.432C72.8137 297.704 72.8531 298.007 72.8013 298.302C72.6744 299.505 72.6127 300.715 72.6167 301.925Z" fill="black"/>
<path d="M75.7766 310.971C74.5661 309.948 71.7347 309.794 70.1754 309.876C68.5957 309.929 67.0544 310.376 65.6924 311.176C65.4912 311.298 65.2538 311.348 65.0203 311.316C64.7868 311.284 64.5713 311.173 64.4101 311.002C64.3153 310.902 64.2436 310.783 64.2 310.653C64.1563 310.522 64.1418 310.384 64.1575 310.247C64.1731 310.111 64.2185 309.979 64.2905 309.862C64.3625 309.745 64.4594 309.645 64.5742 309.569C66.0817 308.589 67.8329 308.047 69.6317 308.003C73.5095 307.942 74.5353 308.638 74.5353 308.638C74.5353 308.638 76.2178 309.866 75.7766 310.971Z" fill="#455A64"/>
<path d="M78.495 314.594C76.9562 313.571 73.8376 313.571 72.2783 313.622C70.7275 313.695 69.2236 314.175 67.9184 315.014C67.7161 315.139 67.4766 315.19 67.2408 315.158C67.005 315.126 66.7876 315.014 66.6258 314.84C66.5298 314.74 66.4572 314.62 66.4133 314.489C66.3695 314.358 66.3553 314.219 66.372 314.082C66.3887 313.945 66.4358 313.813 66.5099 313.696C66.5839 313.579 66.6831 313.481 66.8002 313.407C68.3165 312.372 70.0939 311.783 71.9295 311.708C75.7559 311.636 76.71 312.475 76.71 312.475C77.1499 312.669 77.5395 312.961 77.8489 313.328C78.1583 313.695 78.3793 314.128 78.495 314.594Z" fill="#455A64"/>
<path d="M68.3079 304.288C69.928 304.094 71.5707 304.32 73.0782 304.943C73.7244 305.363 74.104 306.437 73.6629 306.683C72.3324 306.067 70.8698 305.789 69.4056 305.874C67.9719 305.938 66.5597 306.246 65.2303 306.785C64.8918 306.908 64.502 307.092 64.2045 307.256C64.0949 307.312 63.9748 307.345 63.8519 307.352C63.729 307.36 63.6058 307.342 63.4902 307.299C63.3746 307.257 63.269 307.191 63.18 307.106C63.0911 307.021 63.0208 306.919 62.9734 306.806C62.9091 306.616 62.9128 306.411 62.9839 306.224C63.0551 306.037 63.1892 305.881 63.3633 305.782C64.8861 304.939 66.5719 304.429 68.3079 304.288Z" fill="#455A64"/>
<path d="M100.459 294.126C102.962 300.379 106.881 298.455 112.852 294.853L113.755 273.505L98.5615 272.103L100.459 294.126Z" fill="#FFA8A7"/>
<path d="M135.769 309.18C136.046 310.185 135.929 311.257 135.441 312.179C134.969 313.038 130.219 315.392 124.013 314.635C119.411 314.07 115.046 312.281 111.374 309.457C109.086 307.758 106.635 307.338 103.557 306.99C100.479 306.642 98.1713 305.578 97.566 304.104C96.9608 302.631 97.8841 300.195 97.8841 300.195L135.769 309.18Z" fill="#263238"/>
<path d="M111.6 289.5C112.16 289.382 112.712 289.225 113.251 289.029C113.552 288.918 113.884 288.918 114.185 289.029C114.575 289.203 114.698 289.674 114.79 290.053C114.878 290.979 115.056 291.894 115.323 292.785C115.743 293.525 116.3 294.178 116.965 294.709C118.443 296.029 120.056 297.192 121.776 298.178C123.756 299.386 125.705 300.338 127.747 301.392C129.788 302.446 132.65 303.203 134.271 304.462C136.62 306.243 136.713 310.388 133.84 311.861C131.368 313.14 124.966 314.328 118.452 312.097C114.893 310.879 111.097 306.816 106.378 306.192C103.372 305.803 99.3713 305.332 97.5555 302.947C96.899 301.924 97.4734 298.956 98.0069 295.487C98.489 292.417 98.9302 287.504 99.9253 287.832L99.9971 288.773L101.208 290.216C101.473 290.498 101.754 290.765 102.049 291.015C102.373 291.393 102.715 291.755 103.075 292.1C103.562 292.516 104.169 292.77 104.808 292.826C105.112 292.845 105.414 292.778 105.68 292.632C106.193 292.345 106.265 291.67 106.706 291.25C107.183 290.761 107.756 290.374 108.389 290.114C109.267 289.802 110.186 289.616 111.117 289.561C111.279 289.551 111.44 289.531 111.6 289.5Z" fill="#072AC8"/>
<path opacity="0.2" d="M111.6 289.5C112.16 289.382 112.712 289.225 113.251 289.029C113.552 288.918 113.884 288.918 114.185 289.029C114.575 289.203 114.698 289.674 114.79 290.053C114.878 290.979 115.056 291.894 115.323 292.785C115.743 293.525 116.3 294.178 116.965 294.709C118.443 296.029 120.056 297.192 121.776 298.178C123.756 299.386 125.705 300.338 127.747 301.392C129.788 302.446 132.65 303.203 134.271 304.462C136.62 306.243 136.713 310.388 133.84 311.861C131.368 313.14 124.966 314.328 118.452 312.097C114.893 310.879 111.097 306.816 106.378 306.192C103.372 305.803 99.3713 305.332 97.5555 302.947C96.899 301.924 97.4734 298.956 98.0069 295.487C98.489 292.417 98.9302 287.504 99.9253 287.832L99.9971 288.773L101.208 290.216C101.473 290.498 101.754 290.765 102.049 291.015C102.373 291.393 102.715 291.755 103.075 292.1C103.562 292.516 104.169 292.77 104.808 292.826C105.112 292.845 105.414 292.778 105.68 292.632C106.193 292.345 106.265 291.67 106.706 291.25C107.183 290.761 107.756 290.374 108.389 290.114C109.267 289.802 110.186 289.616 111.117 289.561C111.279 289.551 111.44 289.531 111.6 289.5Z" fill="black"/>
<path d="M119.057 296.357C118.86 295.932 118.559 295.562 118.183 295.282C117.807 295.001 117.367 294.818 116.903 294.75C115.549 294.422 113.076 295.302 111.507 296.459C111.358 296.567 111.237 296.71 111.157 296.875C111.076 297.04 111.037 297.223 111.043 297.406C111.049 297.59 111.1 297.77 111.191 297.929C111.283 298.089 111.412 298.223 111.568 298.321C111.766 298.44 111.995 298.497 112.226 298.485C112.456 298.472 112.678 298.39 112.861 298.25C114.597 296.831 116.823 296.15 119.057 296.357Z" fill="#455A64"/>
<path d="M123.171 298.987C122.895 298.551 122.518 298.188 122.071 297.928C121.625 297.668 121.123 297.519 120.607 297.493C118.49 297.472 116.422 298.12 114.698 299.345C114.552 299.446 114.433 299.58 114.35 299.737C114.268 299.894 114.225 300.069 114.225 300.246C114.225 300.423 114.268 300.597 114.35 300.754C114.433 300.911 114.552 301.045 114.698 301.146C114.89 301.262 115.113 301.316 115.337 301.301C115.56 301.287 115.774 301.204 115.949 301.064C116.919 300.198 118.071 299.561 119.322 299.201C120.573 298.841 121.889 298.768 123.171 298.987Z" fill="#455A64"/>
<path d="M127.747 301.382C127.427 300.976 127.023 300.643 126.563 300.406C126.103 300.169 125.597 300.035 125.079 300.011C123.037 300.027 121.052 300.686 119.406 301.894C119.264 301.999 119.149 302.138 119.072 302.298C118.995 302.457 118.957 302.633 118.964 302.81C118.97 302.988 119.019 303.161 119.107 303.315C119.194 303.469 119.318 303.599 119.468 303.695C119.654 303.82 119.877 303.881 120.101 303.868C120.325 303.855 120.539 303.769 120.709 303.623C121.625 302.727 122.739 302.057 123.961 301.668C125.183 301.279 126.48 301.181 127.747 301.382Z" fill="#455A64"/>
<path d="M59.5786 244.584C60.0403 234.278 62.2356 228.915 62.5433 226.06C62.5433 226.06 63.3846 169.364 64.7695 152.161L115.652 150.001C116.401 168.423 117.078 217.914 116.678 224.464C116.298 230.737 113.744 285.151 113.744 285.151C106.563 287.392 98.8998 284.127 98.8998 284.127C98.8998 284.127 94.6322 253.17 93.9347 246.344C93.4395 240.204 93.5977 234.029 94.4066 227.923L91.1546 183.845C91.1546 183.845 87.2255 218.026 85.2867 230.921C83.0708 245.668 73.5098 291.383 73.5098 291.383C66.6365 293.092 59.9479 290.135 59.9479 290.135C59.9479 290.135 58.9015 259.515 59.5786 244.584Z" fill="#455A64"/>
<path d="M91.1641 183.886L92.1284 177.807C95.0931 177.367 102.602 172.69 107.044 168.597C103.88 173.373 99.599 177.31 94.5699 180.069L94.416 227.943L91.1641 183.886Z" fill="#37474F"/>
<path d="M112.03 120.139C108.573 112.269 102.623 99.0157 102.623 99.0157L101.115 77.5244C103.316 77.5944 105.512 77.7891 107.691 78.1077C110.892 78.6092 115.97 81.6589 118.288 87.4104C120.022 91.678 129.029 117.713 129.029 117.713L144.725 109.465C148.746 106.916 150.172 102.69 152.736 100.254C155.301 97.8183 157.866 97.4499 160.707 95.4952C163.549 93.5405 164.667 91.9747 165.385 93.9294C166.103 95.8841 162.923 98.8826 162.308 99.6297C161.692 100.377 158.604 101.973 162.544 102.178C166.483 102.383 174.454 98.5552 176.362 97.9002C178.27 97.2452 178.106 99.5069 177.111 100.909C176.116 102.311 176.013 106.425 174.351 108.728C172.587 111.184 171.633 112.238 167.847 113.701C164.329 115.052 157.035 115.4 153.28 117.56C149.526 119.719 140.436 127.916 134.374 132.122C126.239 137.772 121.663 138.14 118.473 133.637C115.282 129.134 113.251 122.912 112.03 120.139Z" fill="#FFA8A7"/>
<path d="M98.9922 77.064C104.327 76.6546 110.615 76.9821 114.093 80.1341C116.873 82.6619 117.919 84.2277 121.017 92.9675C123.069 98.8315 127.46 112.34 127.46 112.34C121.431 113.697 116.021 117.004 112.072 121.745L102.07 99.3228L98.9922 77.064Z" fill="#E0E0E0"/>
<path d="M129.029 117.662C126.326 118.617 124 120.41 122.392 122.779C122.392 122.779 122.771 118.685 128.547 116.239L129.029 117.662Z" fill="#F28F8F"/>
<path d="M86.2203 76.1014C83.6936 75.9975 81.1656 76.2735 78.7213 76.9201C74.0331 78.1584 65.6313 80.5122 65.6313 80.5122C62.9641 81.8938 61.928 86.4991 61.3227 89.1497C59.3941 97.6336 64.4003 116.781 65.1697 124.242C65.9391 131.702 64.2772 154.555 64.2772 154.555C70.0117 161.186 101.085 165.587 116.216 154.555C116.216 154.555 116.873 102.085 115.385 94.5532C113.129 83.1526 109.774 77.7389 97.9459 77.0532L86.2203 76.1014Z" fill="#F5F5F5"/>
<path d="M92.8572 47.9583L89.4821 49.8106C89.2486 49.347 89.2003 48.8123 89.3469 48.3146C89.4936 47.8168 89.8242 47.3932 90.272 47.1293C90.495 47.0085 90.7404 46.934 90.9931 46.9105C91.2458 46.8869 91.5007 46.9147 91.7423 46.9922C91.984 47.0697 92.2073 47.1952 92.399 47.3613C92.5906 47.5273 92.7465 47.7304 92.8572 47.9583Z" fill="#263238"/>
<path d="M107.538 49.31L104.46 46.946C104.605 46.7383 104.79 46.5622 105.005 46.4284C105.22 46.2946 105.46 46.2058 105.711 46.1675C105.961 46.1292 106.217 46.1422 106.462 46.2056C106.707 46.2691 106.937 46.3817 107.137 46.5366C107.545 46.8615 107.813 47.3291 107.888 47.8443C107.962 48.3595 107.837 48.8837 107.538 49.31Z" fill="#263238"/>
<path d="M77.3465 37.2437C77.3465 37.2437 73.715 37.7451 72.3814 40.5083C71.2324 42.8826 71.6427 48.6136 73.1918 54.8358C74.0672 58.8729 75.3741 62.8048 77.0901 66.5639C77.6962 67.6289 78.6869 68.4232 79.8599 68.7847L79.665 61.3548L79.3982 56.2378C79.3982 56.2378 82.7118 51.7144 83.0811 48.0507C83.553 43.2817 82.5476 41.327 82.5476 41.327L77.3465 37.2437Z" fill="#263238"/>
<path d="M83.2042 44.4071C83.2177 48.0741 84.6889 51.586 87.2948 54.1723C89.9008 56.7585 93.4287 58.2079 97.1046 58.2025C104.757 58.2025 110.502 51.9086 110.441 44.2638C110.379 36.6191 104.634 30.4992 96.9712 30.5299C93.3034 30.5569 89.7957 32.0322 87.2157 34.633C84.6356 37.2337 83.1932 40.7481 83.2042 44.4071Z" fill="#263238"/>
<path d="M79.6651 55.3682C78.4136 56.453 77.398 53.6591 76.3516 52.5641C75.3052 51.469 71.8686 49.9954 70.1964 53.5875C68.5243 57.1796 71.6942 62.3887 74.2999 63.3916C75.0865 63.6887 75.9504 63.713 76.7525 63.4605C77.5546 63.208 78.2481 62.6934 78.7213 61.9998V78.3741C82.6709 85.4764 89.6365 85.2513 93.3603 84.8521C97.0842 84.453 97.8946 80.5948 95.1761 77.4837V72.3667C97.2452 72.6906 99.3433 72.7901 101.434 72.6635C104.84 72.1314 106.563 69.5933 107.589 65.8784C109.23 59.953 109.897 50.0056 107.589 38.5129C103.773 35.5655 90.5392 36.0567 82.5273 41.1225C83.153 51.4281 80.8551 54.2936 79.6651 55.3682Z" fill="#FFA8A7"/>
<path d="M108.265 32.8228C108.781 30.6894 109.012 28.4975 108.953 26.3038C108.953 25.4442 108.737 24.4003 107.927 24.0728C107.117 23.7453 106.316 24.3389 105.619 24.8097C102.664 26.7951 98.9917 27.3579 95.432 27.5524C89.2768 27.8901 79.8697 27.491 76.7408 34.2147C75.8688 36.0772 75.715 38.0422 77.4384 39.3316C78.975 40.3584 80.732 41.0105 82.5677 41.2351C85.6453 41.7775 88.7229 42.453 91.8825 42.8726C95.0421 43.2922 98.7968 43.7015 101.926 42.7395C104.562 41.931 107.24 41.2351 109.199 39.1474C110.897 37.327 111.855 34.941 111.887 32.4544C111.887 32.1065 111.815 31.6664 111.466 31.5743C111.292 31.5525 111.115 31.5884 110.963 31.6766L108.265 32.8228Z" fill="#263238"/>
<path d="M95.145 72.4794C95.145 72.4794 87.5332 70.9751 84.8865 69.573C83.3187 68.7628 82.0318 67.5004 81.1934 65.9502C81.5832 67.4988 82.2809 68.9535 83.2451 70.228C85.2045 72.7046 95.1245 74.4955 95.1245 74.4955L95.145 72.4794Z" fill="#F28F8F"/>
<path d="M93.616 52.9834C93.606 53.319 93.497 53.6443 93.3027 53.9185C93.1084 54.1928 92.8375 54.4039 92.5237 54.5254C92.2099 54.6469 91.8672 54.6736 91.5383 54.602C91.2094 54.5304 90.909 54.3637 90.6745 54.1227C90.44 53.8818 90.2818 53.5773 90.2198 53.2473C90.1577 52.9172 90.1945 52.5762 90.3256 52.2669C90.4566 51.9576 90.6761 51.6936 90.9566 51.508C91.2371 51.3224 91.5662 51.2233 91.9028 51.2231C92.3636 51.2312 92.8024 51.4209 93.1234 51.7507C93.4444 52.0805 93.6215 52.5237 93.616 52.9834Z" fill="#263238"/>
<path d="M96.0789 64.8034C96.0872 65.236 95.9235 65.6542 95.6236 65.9668C95.3238 66.2793 94.9121 66.4608 94.4786 66.4715C94.0423 66.4635 93.627 66.2835 93.3233 65.9709C93.0196 65.6584 92.8522 65.2387 92.8577 64.8034C92.8536 64.5897 92.8918 64.3773 92.97 64.1783C93.0482 63.9793 93.165 63.7977 93.3136 63.6437C93.4622 63.4898 93.6398 63.3665 93.8362 63.281C94.0325 63.1956 94.2438 63.1495 94.4581 63.1455C94.8925 63.1536 95.3063 63.3321 95.6097 63.6425C95.9131 63.9528 96.0817 64.3699 96.0789 64.8034Z" fill="#B16668"/>
<path d="M91.4623 47.6109L87.9333 49.8316C87.6422 49.3484 87.5501 48.7714 87.6763 48.2218C87.8026 47.6722 88.1374 47.1928 88.6104 46.8842C88.8444 46.7412 89.1048 46.6464 89.3762 46.6055C89.6475 46.5646 89.9244 46.5784 90.1903 46.6462C90.4562 46.7139 90.7058 46.8342 90.9243 46.9999C91.1428 47.1656 91.3257 47.3734 91.4623 47.6109Z" fill="#263238"/>
<path d="M103.915 45.4414L107.629 47.0993C107.529 47.3425 107.38 47.5629 107.192 47.7471C107.004 47.9314 106.781 48.0758 106.535 48.1714C106.29 48.2671 106.027 48.3121 105.764 48.3037C105.501 48.2953 105.242 48.2338 105.003 48.1227C104.518 47.8927 104.137 47.4897 103.936 46.9932C103.734 46.4967 103.727 45.943 103.915 45.4414Z" fill="#263238"/>
<path d="M105.876 52.4713C105.864 52.7938 105.758 53.1057 105.569 53.3683C105.381 53.6308 105.12 53.8324 104.818 53.9481C104.516 54.0638 104.186 54.0883 103.87 54.0188C103.554 53.9493 103.266 53.7887 103.04 53.5571C102.815 53.3254 102.663 53.0328 102.603 52.7156C102.543 52.3985 102.578 52.0707 102.703 51.773C102.828 51.4753 103.038 51.2208 103.306 51.0411C103.575 50.8614 103.891 50.7644 104.214 50.7622C104.662 50.7703 105.087 50.9546 105.399 51.2748C105.71 51.595 105.882 52.0252 105.876 52.4713Z" fill="#263238"/>
<path d="M97.4834 49.5859L98.0989 60.9661L103.505 59.5333L97.4834 49.5859Z" fill="#F28F8F"/>
<path d="M1.69946 96.4577C3.47419 97.4095 10.7065 102.486 14.6355 102.926C16.2974 103.11 16.7488 102.844 16.6873 102.414C16.6052 101.82 15.5486 100.93 15.2921 100.449C14.851 99.6098 12.2145 96.1302 13.2404 94.3086C14.2662 92.487 15.1587 94.2267 17.6003 96.6112C20.0418 98.9957 22.5449 99.8247 24.689 102.598C26.833 105.371 27.5511 109.762 31.1006 112.945L45.2369 122.575C45.2369 122.575 51.823 92.0878 54.7159 88.4957C57.7935 84.7194 70.9963 92.9475 68.2264 104.952C65.4566 116.956 59.1476 137.793 54.7569 141.876C51.9255 144.527 45.9653 142.029 38.5278 135.429C32.6496 130.209 24.5966 122.38 21.1908 119.607C17.7849 116.833 10.7065 115.339 7.45453 113.467C3.95635 111.42 3.18695 110.222 1.84308 107.51C0.581269 104.962 1.14549 100.879 0.396615 99.3232C-0.352263 97.7677 -0.106056 95.506 1.69946 96.4577Z" fill="#FFA8A7"/>
<path d="M65.6305 80.5132C70.1648 83.3378 70.3905 87.4518 70.6161 92.1594C70.6804 97.6699 69.8062 103.151 68.031 108.37C66.1126 114.295 63.0658 125.113 63.0658 125.113C63.0658 125.113 51.2274 125.389 45.1338 120.139C45.1338 120.139 47.9139 108.472 49.8733 99.6711C51.8327 90.8699 54.2126 81.5059 65.6305 80.5132Z" fill="#E0E0E0"/>
<path d="M45.1855 122.595C48.417 124.386 50.3148 128.234 50.8996 129.759C50.7597 127.983 50.1995 126.266 49.265 124.749C48.3305 123.231 47.0484 121.956 45.5241 121.029L45.1855 122.595Z" fill="#F28F8F"/>
<path d="M168.002 343.78L247.178 389.383V406.187L168.002 360.584V343.78Z" fill="#072AC8"/>
<path opacity="0.35" d="M168.002 343.78L247.178 389.383V406.187L168.002 360.584V343.78Z" fill="black"/>
<path d="M326.354 343.78L247.178 389.383V406.187L326.354 360.584V343.78Z" fill="#072AC8"/>
<path opacity="0.2" d="M326.354 343.78L247.178 389.383V406.187L326.354 360.584V343.78Z" fill="black"/>
<path d="M326.355 343.781L247.179 298.188L168.003 343.781L247.179 389.383L326.355 343.781Z" fill="#072AC8"/>
<path opacity="0.15" d="M326.355 343.781L247.179 298.188L168.003 343.781L247.179 389.383L326.355 343.781Z" fill="black"/>
<path opacity="0.1" d="M247.178 389.383V384.583L176.332 343.78H168.002L247.178 389.383Z" fill="black"/>
<path opacity="0.1" d="M247.178 298.188V302.988L318.024 343.781H326.354L247.178 298.188Z" fill="black"/>
<path d="M326.354 343.78H318.024L247.178 384.583V389.383L326.354 343.78Z" fill="#072AC8"/>
<path d="M247.179 298.188V302.988L176.333 343.781H168.003L247.179 298.188Z" fill="#072AC8"/>
<path d="M247.464 323.988L281.482 343.576C284.026 345.05 284.026 347.424 281.482 348.887L256.112 363.542C254.683 364.271 253.101 364.651 251.496 364.651C249.891 364.651 248.309 364.271 246.88 363.542L212.862 343.955C210.318 342.481 210.318 340.107 212.862 338.643L238.242 323.988C239.67 323.261 241.25 322.882 242.853 322.882C244.456 322.882 246.037 323.261 247.464 323.988Z" fill="#37474F"/>
<path d="M256.112 363.543L280.64 349.41L247.464 330.303C246.032 329.583 244.451 329.208 242.848 329.208C241.244 329.208 239.663 329.583 238.231 330.303L213.703 344.456L246.879 363.543C248.309 364.271 249.891 364.651 251.496 364.651C253.101 364.651 254.683 364.271 256.112 363.543Z" fill="#455A64"/>
<path d="M226.917 343.811L241.802 335.245C242.079 335.106 242.385 335.034 242.695 335.034C243.005 335.034 243.31 335.106 243.587 335.245L245.413 336.268C245.906 336.545 245.906 337.005 245.413 337.292L230.528 345.858C230.253 345.996 229.949 346.068 229.641 346.068C229.332 346.068 229.028 345.996 228.753 345.858L226.927 344.834C226.821 344.798 226.728 344.73 226.662 344.639C226.596 344.548 226.56 344.438 226.559 344.326C226.557 344.214 226.591 344.104 226.656 344.012C226.72 343.919 226.811 343.849 226.917 343.811Z" fill="#263238"/>
<path d="M249.147 356.634L264.033 348.069C264.308 347.93 264.612 347.858 264.92 347.858C265.228 347.858 265.532 347.93 265.807 348.069L267.644 349.092C268.136 349.368 268.136 349.829 267.644 350.115L252.758 358.681C252.483 358.82 252.179 358.892 251.871 358.892C251.563 358.892 251.259 358.82 250.984 358.681L249.158 357.658C249.051 357.622 248.958 357.553 248.892 357.462C248.826 357.371 248.79 357.262 248.789 357.15C248.788 357.037 248.822 356.927 248.886 356.835C248.95 356.743 249.042 356.673 249.147 356.634Z" fill="#263238"/>
<path d="M212.78 376.969C212.696 375.416 212.246 373.904 211.465 372.558C210.684 371.212 209.595 370.069 208.287 369.222C207.834 368.893 207.301 368.69 206.744 368.636C206.186 368.582 205.624 368.679 205.117 368.915L203.178 370.041C202.721 370.362 202.359 370.799 202.128 371.306C201.898 371.813 201.807 372.373 201.865 372.927C201.95 374.48 202.4 375.991 203.179 377.339C203.957 378.687 205.043 379.832 206.348 380.684C206.802 381.014 207.337 381.216 207.896 381.27C208.455 381.324 209.019 381.228 209.528 380.991L211.457 379.835C211.91 379.515 212.271 379.082 212.503 378.579C212.736 378.076 212.831 377.521 212.78 376.969Z" fill="#072AC8"/>
<path opacity="0.1" d="M206.348 370.379C207.656 371.225 208.745 372.368 209.526 373.715C210.307 375.061 210.758 376.572 210.842 378.126C210.842 380.981 208.79 382.137 206.348 380.715C205.044 379.863 203.958 378.717 203.179 377.37C202.4 376.022 201.95 374.511 201.865 372.958C201.865 370.113 203.876 368.956 206.348 370.379Z" fill="black"/>
<path d="M154.306 403.066C149.3 403.153 144.355 401.959 139.944 399.597L87.42 369.345C83.2037 366.91 80.875 363.553 80.875 359.889C80.875 356.226 83.2037 352.879 87.42 350.443L148.274 315.392C154.942 311.554 160.584 301.822 160.584 294.136V102.015C160.584 101.472 160.8 100.951 161.185 100.567C161.57 100.183 162.092 99.9678 162.636 99.9678C163.18 99.9678 163.702 100.183 164.087 100.567C164.472 100.951 164.688 101.472 164.688 102.015V294.136C164.688 303.408 158.389 314.307 150.326 318.943L89.4717 353.995C86.5788 355.663 84.9784 357.75 84.9784 359.889C84.9784 362.028 86.5788 364.126 89.4717 365.794L141.996 396.046C148.777 399.955 159.815 399.955 166.616 396.046L205.343 373.756C205.576 373.608 205.837 373.509 206.11 373.464C206.383 373.419 206.663 373.43 206.931 373.496C207.2 373.561 207.453 373.681 207.674 373.846C207.896 374.012 208.081 374.22 208.22 374.459C208.358 374.698 208.447 374.963 208.48 375.237C208.513 375.511 208.491 375.789 208.414 376.054C208.337 376.319 208.207 376.566 208.031 376.78C207.856 376.993 207.639 377.169 207.394 377.297L168.668 399.597C164.257 401.961 159.312 403.156 154.306 403.066Z" fill="#37474F"/>
<path d="M62.1424 28.5451C62.112 28.4064 62.1109 28.2628 62.1392 28.1236C62.1674 27.9844 62.2244 27.8526 62.3065 27.7366C62.3838 27.6153 62.4859 27.5116 62.6061 27.4322C62.7263 27.3529 62.8619 27.2997 63.0041 27.2761L67.9898 26.3141C68.1304 26.2823 68.2762 26.2805 68.4176 26.3087C68.559 26.3369 68.6929 26.3945 68.8105 26.4778C69.0488 26.6415 69.2143 26.8909 69.2721 27.1738L70.0415 31.165C70.0704 31.3044 70.0698 31.4484 70.0398 31.5876C70.0098 31.7268 69.9509 31.8582 69.8671 31.9735C69.7919 32.0956 69.6919 32.2006 69.5735 32.2816C69.4551 32.3627 69.321 32.4181 69.1798 32.4442L64.1838 33.396C64.0448 33.4263 63.9009 33.4274 63.7613 33.3992C63.6218 33.371 63.4897 33.3141 63.3734 33.2322C63.2518 33.1551 63.1478 33.0533 63.0682 32.9334C62.9887 32.8135 62.9354 32.6782 62.9118 32.5363L62.1424 28.5451ZM57.9774 6.99243C57.9491 6.85193 57.9489 6.70723 57.977 6.56669C58.0051 6.42614 58.0608 6.29254 58.1409 6.1736C58.221 6.05465 58.324 5.95272 58.4438 5.8737C58.5637 5.79467 58.698 5.74012 58.8391 5.71319L63.835 4.7512C63.9748 4.72235 64.1191 4.72293 64.2586 4.75288C64.3982 4.78284 64.5299 4.84152 64.6455 4.92517C64.7659 5.00119 64.8692 5.10143 64.9487 5.21949C65.0282 5.33754 65.0821 5.47083 65.1071 5.61085L68.3796 22.6708C68.4085 22.8103 68.4079 22.9542 68.3779 23.0934C68.3479 23.2326 68.2891 23.3641 68.2052 23.4793C68.129 23.5995 68.0285 23.7025 67.9102 23.7818C67.7918 23.8611 67.6582 23.9149 67.5179 23.9398L62.5219 24.9018C62.3822 24.9307 62.2379 24.9301 62.0983 24.9001C61.9588 24.8702 61.827 24.8115 61.7115 24.7278C61.591 24.6518 61.4878 24.5516 61.4083 24.4335C61.3288 24.3155 61.2748 24.1822 61.2499 24.0422L57.9774 6.99243Z" fill="#072AC8"/>
<path d="M53.8121 45.2471C53.7162 45.141 53.6422 45.0171 53.5944 44.8825C53.5466 44.7479 53.5259 44.6051 53.5336 44.4625C53.5412 44.3199 53.577 44.1802 53.6389 44.0514C53.7008 43.9226 53.7875 43.8072 53.8942 43.712L57.6796 40.3245C57.7853 40.2275 57.9102 40.1537 58.0463 40.1078C58.1823 40.062 58.3265 40.0452 58.4695 40.0585C58.6117 40.0615 58.7517 40.094 58.8806 40.1539C59.0096 40.2138 59.1246 40.2998 59.2184 40.4064L61.937 43.4766C62.0329 43.5826 62.1069 43.7065 62.1547 43.8412C62.2025 43.9758 62.2232 44.1185 62.2155 44.2612C62.2079 44.4038 62.1721 44.5435 62.1102 44.6723C62.0483 44.8011 61.9616 44.9164 61.8549 45.0117L58.1208 48.3582C58.0151 48.4552 57.8902 48.5291 57.7541 48.5749C57.618 48.6207 57.4738 48.6376 57.3308 48.6243C57.1887 48.6212 57.0487 48.5887 56.9197 48.5288C56.7908 48.4689 56.6758 48.3829 56.582 48.2763L53.8121 45.2471ZM39.1321 28.8728C38.9391 28.6569 38.8395 28.3736 38.8551 28.0848C38.8595 27.9421 38.8936 27.802 38.9555 27.6734C39.0173 27.5447 39.1054 27.4304 39.2142 27.3377L42.9996 23.9502C43.1044 23.8514 43.2289 23.7757 43.365 23.7281C43.5011 23.6804 43.6458 23.662 43.7895 23.6739C43.9325 23.6783 44.0729 23.7124 44.2019 23.774C44.3309 23.8357 44.4455 23.9236 44.5384 24.0321L56.1511 36.9883C56.2484 37.0937 56.3224 37.2183 56.3683 37.354C56.4143 37.4898 56.4311 37.6336 56.4178 37.7763C56.4148 37.9181 56.3822 38.0578 56.3221 38.1864C56.2621 38.315 56.1759 38.4298 56.069 38.5234L52.2734 41.9108C52.1689 42.0065 52.0457 42.0796 51.9115 42.1254C51.7773 42.1712 51.635 42.1887 51.4937 42.1769C51.3498 42.1753 51.2078 42.1434 51.077 42.0835C50.9462 42.0235 50.8296 41.9368 50.7346 41.8289L39.1321 28.8728Z" fill="#072AC8"/>
<g opacity="0.6">
<path opacity="0.6" d="M53.8121 45.2471C53.7162 45.141 53.6422 45.0171 53.5944 44.8825C53.5466 44.7479 53.5259 44.6051 53.5336 44.4625C53.5412 44.3199 53.577 44.1802 53.6389 44.0514C53.7008 43.9226 53.7875 43.8072 53.8942 43.712L57.6796 40.3245C57.7853 40.2275 57.9102 40.1537 58.0463 40.1078C58.1823 40.062 58.3265 40.0452 58.4695 40.0585C58.6117 40.0615 58.7517 40.094 58.8806 40.1539C59.0096 40.2138 59.1246 40.2998 59.2184 40.4064L61.937 43.4766C62.0329 43.5826 62.1069 43.7065 62.1547 43.8412C62.2025 43.9758 62.2232 44.1185 62.2155 44.2612C62.2079 44.4038 62.1721 44.5435 62.1102 44.6723C62.0483 44.8011 61.9616 44.9164 61.8549 45.0117L58.1208 48.3582C58.0151 48.4552 57.8902 48.5291 57.7541 48.5749C57.618 48.6207 57.4738 48.6376 57.3308 48.6243C57.1887 48.6212 57.0487 48.5887 56.9197 48.5288C56.7908 48.4689 56.6758 48.3829 56.582 48.2763L53.8121 45.2471ZM39.1321 28.8728C38.9391 28.6569 38.8395 28.3736 38.8551 28.0848C38.8595 27.9421 38.8936 27.802 38.9555 27.6734C39.0173 27.5447 39.1054 27.4304 39.2142 27.3377L42.9996 23.9502C43.1044 23.8514 43.2289 23.7757 43.365 23.7281C43.5011 23.6804 43.6458 23.662 43.7895 23.6739C43.9325 23.6783 44.0729 23.7124 44.2019 23.774C44.3309 23.8357 44.4455 23.9236 44.5384 24.0321L56.1511 36.9883C56.2484 37.0937 56.3224 37.2183 56.3683 37.354C56.4143 37.4898 56.4311 37.6336 56.4178 37.7763C56.4148 37.9181 56.3822 38.0578 56.3221 38.1864C56.2621 38.315 56.1759 38.4298 56.069 38.5234L52.2734 41.9108C52.1689 42.0065 52.0457 42.0796 51.9115 42.1254C51.7773 42.1712 51.635 42.1887 51.4937 42.1769C51.3498 42.1753 51.2078 42.1434 51.077 42.0835C50.9462 42.0235 50.8296 41.9368 50.7346 41.8289L39.1321 28.8728Z" fill="white"/>
</g>
<path d="M224.668 273.805L217.813 277.771C217.375 277.988 216.891 278.102 216.402 278.102C215.912 278.102 215.428 277.988 214.99 277.771L209.65 274.664L193.189 284.169C192.751 284.392 192.267 284.508 191.775 284.508C191.284 284.508 190.799 284.392 190.361 284.169L184.819 280.975C183.905 280.457 183.386 279.893 183.262 279.287L179.178 258.916C179.156 258.797 179.145 258.675 179.147 258.554C179.147 258.947 179.147 264.031 179.147 264.279C179.148 264.384 179.158 264.488 179.178 264.59L183.262 284.961C183.402 285.567 183.921 286.131 184.819 286.654L190.361 289.848C190.8 290.066 191.284 290.18 191.775 290.18C192.266 290.18 192.75 290.066 193.189 289.848L209.65 280.359L214.985 283.424C215.422 283.646 215.906 283.761 216.396 283.761C216.887 283.761 217.371 283.646 217.808 283.424L224.663 279.479C224.825 279.409 224.965 279.295 225.067 279.151C225.168 279.007 225.228 278.837 225.239 278.661V272.966C225.23 273.145 225.172 273.317 225.071 273.465C224.97 273.613 224.831 273.731 224.668 273.805Z" fill="#072AC8"/>
<path d="M224.403 271.372V265.678C224.392 265.854 224.332 266.023 224.23 266.167C224.129 266.311 223.989 266.425 223.827 266.496L219.328 269.084L224.185 271.88C224.318 271.743 224.396 271.563 224.403 271.372Z" fill="#072AC8"/>
<path d="M193.2 270.57L196.61 272.542L201.539 269.705L191.913 264.155L193.19 270.57H193.2Z" fill="#072AC8"/>
<path opacity="0.35" d="M193.2 270.57L196.61 272.542L201.539 269.705L191.913 264.155L193.19 270.57H193.2Z" fill="black"/>
<path opacity="0.2" d="M224.403 271.372V265.678C224.392 265.854 224.332 266.023 224.23 266.167C224.129 266.311 223.989 266.425 223.827 266.496L219.328 269.084L224.185 271.88C224.318 271.743 224.396 271.563 224.403 271.372Z" fill="black"/>
<path opacity="0.2" d="M224.668 273.805L217.813 277.771C217.379 278.005 216.89 278.119 216.396 278.102V283.797C216.891 283.815 217.38 283.698 217.813 283.46L224.668 279.516C224.831 279.445 224.97 279.332 225.072 279.187C225.174 279.043 225.233 278.874 225.244 278.698V273.003C225.228 273.176 225.167 273.341 225.065 273.482C224.964 273.623 224.827 273.735 224.668 273.805Z" fill="black"/>
<path opacity="0.25" d="M183.226 279.287L179.142 258.916C179.119 258.797 179.109 258.675 179.11 258.554C179.11 258.947 179.11 264.031 179.11 264.279C179.112 264.384 179.122 264.488 179.142 264.59L183.226 284.961C183.25 285.082 183.292 285.199 183.35 285.308V279.614C183.294 279.511 183.252 279.401 183.226 279.287Z" fill="black"/>
<path opacity="0.35" d="M191.752 284.501C191.26 284.513 190.774 284.397 190.341 284.165L184.798 280.971C184.191 280.677 183.686 280.208 183.351 279.625V285.319C183.688 285.902 184.192 286.37 184.798 286.665L190.341 289.859C190.775 290.09 191.261 290.204 191.752 290.191C191.806 290.196 191.86 290.196 191.913 290.191V284.501C191.86 284.509 191.806 284.509 191.752 284.501Z" fill="black"/>
<path opacity="0.2" d="M193.189 284.17C192.805 284.383 192.373 284.493 191.934 284.491V290.186C192.372 290.183 192.804 290.073 193.189 289.865L209.65 280.36V274.665L193.189 284.17Z" fill="black"/>
<path opacity="0.35" d="M214.984 277.771L209.649 274.665V280.36L214.984 283.424C215.414 283.662 215.9 283.778 216.39 283.761V278.066C215.904 278.094 215.418 277.992 214.984 277.771Z" fill="black"/>
<path d="M217.813 277.771C217.374 277.989 216.89 278.103 216.399 278.103C215.908 278.103 215.424 277.989 214.985 277.771L209.65 274.665L193.189 284.17C192.75 284.388 192.266 284.501 191.775 284.501C191.285 284.501 190.801 284.388 190.361 284.17L184.819 280.976C183.912 280.455 183.393 279.892 183.262 279.288L179.183 258.917C179.1 258.602 179.137 258.268 179.287 257.98C179.525 257.675 179.828 257.427 180.174 257.255L188.078 252.704C188.516 252.486 188.999 252.373 189.489 252.373C189.979 252.373 190.462 252.486 190.901 252.704L210.994 264.28L215.494 261.692C215.933 261.474 216.417 261.36 216.908 261.36C217.398 261.36 217.882 261.474 218.322 261.692L223.807 264.881C223.976 264.94 224.123 265.05 224.226 265.196C224.33 265.343 224.386 265.517 224.386 265.696C224.386 265.875 224.33 266.049 224.226 266.195C224.123 266.341 223.976 266.452 223.807 266.511L219.308 269.1L224.648 272.175C224.815 272.235 224.96 272.346 225.062 272.491C225.164 272.637 225.219 272.81 225.219 272.988C225.219 273.165 225.164 273.339 225.062 273.484C224.96 273.629 224.815 273.74 224.648 273.8L217.813 277.771ZM201.539 269.726L191.913 264.182L193.9 274.127L201.539 269.726Z" fill="#072AC8"/>
<path d="M261.503 248.599C261.415 250.126 260.855 251.59 259.9 252.787C258.782 254.309 256.916 255.826 254.3 257.337C251.834 258.782 249.175 259.868 246.402 260.563C243.856 261.193 241.241 261.501 238.618 261.479C236.15 261.459 233.696 261.12 231.316 260.469C229.077 259.861 226.909 259.022 224.845 257.964C223.35 257.184 221.781 256.321 220.138 255.375C218.495 254.43 216.96 253.505 215.535 252.6C213.903 251.589 212.439 250.329 211.197 248.868C210.154 247.704 209.535 246.223 209.443 244.664C209.474 245.565 209.406 249.349 209.443 250.359C209.534 251.919 210.152 253.402 211.197 254.568C212.442 256.026 213.906 257.285 215.535 258.3C216.967 259.208 218.502 260.131 220.138 261.07C221.775 262.009 223.343 262.871 224.845 263.658C226.916 264.714 229.092 265.552 231.337 266.159C233.717 266.807 236.171 267.146 238.638 267.168C241.262 267.188 243.877 266.879 246.423 266.247C249.196 265.552 251.855 264.466 254.321 263.022C256.943 261.513 258.81 259.996 259.92 258.471C260.948 257.205 261.511 255.627 261.519 253.998C261.467 253.154 261.524 249.888 261.503 248.599Z" fill="#072AC8"/>
<path opacity="0.35" d="M240.029 261.453C239.562 261.453 239.095 261.489 238.633 261.453C236.166 261.433 233.711 261.094 231.332 260.443C229.089 259.845 226.915 259.014 224.845 257.964C223.35 257.184 221.781 256.321 220.138 255.375C218.495 254.43 216.96 253.505 215.535 252.6C213.903 251.589 212.439 250.329 211.197 248.868C210.154 247.704 209.535 246.223 209.443 244.664C209.474 245.565 209.406 249.349 209.443 250.359C209.534 251.919 210.152 253.402 211.197 254.568C212.442 256.026 213.906 257.285 215.535 258.3C216.967 259.208 218.502 260.131 220.138 261.07C221.775 262.009 223.343 262.871 224.845 263.658C226.916 264.714 229.092 265.552 231.337 266.159C233.717 266.807 236.171 267.146 238.638 267.168C239.1 267.168 239.567 267.168 240.034 267.137L240.029 261.453Z" fill="black"/>
<path opacity="0.2" d="M261.503 248.599C261.415 250.127 260.855 251.59 259.9 252.787C258.782 254.309 256.916 255.826 254.3 257.338C251.835 258.782 249.175 259.868 246.402 260.563C244.313 261.072 242.178 261.371 240.029 261.454V267.148C242.179 267.07 244.314 266.772 246.402 266.258C249.175 265.563 251.835 264.477 254.3 263.032C256.923 261.524 258.789 260.007 259.9 258.482C260.927 257.216 261.491 255.638 261.498 254.009C261.467 253.155 261.524 249.888 261.503 248.599Z" fill="black"/>
<path d="M223.433 245.58C223.753 245.908 224.1 246.208 224.471 246.476C224.648 246.362 224.819 246.248 225.016 246.134C225.977 245.57 227.018 245.153 228.104 244.897C229.074 244.681 230.07 244.606 231.062 244.674C232.025 244.746 232.975 244.937 233.89 245.244C234.845 245.573 235.779 245.96 236.687 246.404C239.721 247.998 242.652 249.687 245.478 251.472C245.847 251.7 246.189 251.938 246.516 252.165C247.141 251.801 247.685 251.313 248.114 250.731C248.476 250.236 248.627 249.618 248.535 249.013C248.388 248.38 248.051 247.808 247.569 247.372C246.932 246.785 246.237 246.264 245.494 245.819C242.664 244.027 239.733 242.34 236.703 240.755C235.796 240.309 234.862 239.92 233.906 239.591C232.99 239.287 232.04 239.095 231.077 239.021C230.086 238.955 229.089 239.031 228.119 239.249C227.033 239.5 225.992 239.916 225.032 240.481C224.195 240.91 223.463 241.518 222.889 242.262C222.711 242.503 222.584 242.779 222.516 243.07C222.448 243.362 222.441 243.665 222.494 243.96C222.66 244.573 222.983 245.132 223.433 245.58Z" fill="#072AC8"/>
<path opacity="0.35" d="M223.433 245.58C223.753 245.908 224.1 246.208 224.471 246.476C224.648 246.362 224.819 246.248 225.016 246.134C225.977 245.57 227.018 245.153 228.104 244.897C229.074 244.681 230.07 244.606 231.062 244.674C232.025 244.746 232.975 244.937 233.89 245.244C234.845 245.573 235.779 245.96 236.687 246.404C239.721 247.998 242.652 249.687 245.478 251.472C245.847 251.7 246.189 251.938 246.516 252.165C247.141 251.801 247.685 251.313 248.114 250.731C248.476 250.236 248.627 249.618 248.535 249.013C248.388 248.38 248.051 247.808 247.569 247.372C246.932 246.785 246.237 246.264 245.494 245.819C242.664 244.027 239.733 242.34 236.703 240.755C235.796 240.309 234.862 239.92 233.906 239.591C232.99 239.287 232.04 239.095 231.077 239.021C230.086 238.955 229.089 239.031 228.119 239.249C227.033 239.5 225.992 239.916 225.032 240.481C224.195 240.91 223.463 241.518 222.889 242.262C222.711 242.503 222.584 242.779 222.516 243.07C222.448 243.362 222.441 243.665 222.494 243.96C222.66 244.573 222.983 245.132 223.433 245.58Z" fill="black"/>
<path d="M216.63 235.635C219.096 234.189 221.758 233.103 224.534 232.41C227.079 231.78 229.695 231.472 232.318 231.494C234.785 231.514 237.239 231.853 239.619 232.503C241.863 233.109 244.037 233.947 246.106 235.004C247.673 235.829 249.278 236.712 250.922 237.654C252.562 238.602 254.035 239.503 255.421 240.367C257.05 241.386 258.515 242.646 259.765 244.105C260.805 245.27 261.421 246.751 261.513 248.309C261.511 249.937 260.948 251.516 259.92 252.781C258.806 254.307 256.94 255.825 254.321 257.337C251.854 258.782 249.193 259.866 246.417 260.557C243.872 261.192 241.257 261.502 238.633 261.479C236.168 261.456 233.715 261.117 231.337 260.469C229.091 259.864 226.916 259.026 224.845 257.969C223.345 257.182 221.778 256.322 220.138 255.38C218.498 254.438 216.962 253.511 215.53 252.611C213.901 251.593 212.438 250.332 211.192 248.873C210.148 247.709 209.529 246.228 209.438 244.669C209.443 243.039 210.005 241.46 211.031 240.191C212.148 238.669 214.015 237.15 216.63 235.635ZM245.463 245.793C242.633 244.005 239.702 242.317 236.672 240.729C235.766 240.282 234.831 239.895 233.875 239.57C232.968 239.264 232.027 239.071 231.072 238.995C230.08 238.929 229.084 239.005 228.114 239.223C227.027 239.474 225.986 239.891 225.027 240.46C224.188 240.885 223.455 241.491 222.883 242.236C222.704 242.478 222.577 242.754 222.509 243.047C222.441 243.34 222.434 243.643 222.489 243.939C222.655 244.565 222.991 245.133 223.459 245.58C224.072 246.194 224.757 246.731 225.499 247.18C228.341 249.016 231.275 250.706 234.29 252.243C235.172 252.712 236.09 253.11 237.035 253.434C237.957 253.745 238.917 253.931 239.889 253.988C240.89 254.049 241.895 253.969 242.873 253.75C243.96 253.498 245.002 253.081 245.961 252.512C246.798 252.086 247.53 251.48 248.104 250.737C248.284 250.492 248.414 250.214 248.486 249.919C248.558 249.624 248.571 249.318 248.524 249.018C248.377 248.384 248.038 247.812 247.554 247.377C246.917 246.774 246.216 246.243 245.463 245.793Z" fill="#072AC8"/>
<path d="M301.099 229.781L294.243 233.725C293.806 233.947 293.323 234.063 292.832 234.063C292.341 234.063 291.858 233.947 291.42 233.725L286.081 230.661L269.594 240.16C269.16 240.392 268.674 240.506 268.182 240.492C267.689 240.506 267.201 240.391 266.765 240.16L261.223 236.961C260.317 236.443 259.798 235.881 259.666 235.273L255.582 214.902C255.573 214.781 255.573 214.66 255.582 214.54C255.582 214.933 255.582 220.017 255.582 220.265C255.575 220.37 255.575 220.476 255.582 220.581L259.666 240.952C259.806 241.558 260.331 242.117 261.223 242.64L266.765 245.834C267.2 246.067 267.689 246.183 268.182 246.171C268.674 246.184 269.161 246.068 269.594 245.834L286.081 236.355L291.415 239.43C291.854 239.648 292.337 239.762 292.827 239.762C293.317 239.762 293.8 239.648 294.238 239.43L301.094 235.486C301.255 235.415 301.395 235.301 301.496 235.157C301.598 235.013 301.658 234.843 301.67 234.668V228.973C301.656 229.146 301.596 229.313 301.496 229.455C301.395 229.598 301.258 229.71 301.099 229.781Z" fill="#072AC8"/>
<path d="M300.839 227.347V221.653C300.827 221.828 300.766 221.996 300.665 222.139C300.563 222.282 300.424 222.395 300.263 222.466L295.759 225.054L300.621 227.85C300.75 227.712 300.827 227.535 300.839 227.347Z" fill="#072AC8"/>
<path d="M269.63 226.55L273.039 228.523L277.974 225.686L268.343 220.136L269.625 226.55H269.63Z" fill="#072AC8"/>
<path opacity="0.35" d="M269.63 226.55L273.039 228.523L277.974 225.686L268.343 220.136L269.625 226.55H269.63Z" fill="black"/>
<path opacity="0.2" d="M300.839 227.347V221.653C300.827 221.828 300.766 221.996 300.665 222.139C300.563 222.282 300.424 222.395 300.263 222.466L295.759 225.054L300.621 227.85C300.75 227.712 300.827 227.535 300.839 227.347Z" fill="black"/>
<path opacity="0.2" d="M301.099 229.781L294.244 233.726C293.812 233.964 293.324 234.08 292.832 234.062V239.757C293.324 239.774 293.811 239.659 294.244 239.426L301.099 235.481C301.261 235.41 301.4 235.297 301.502 235.152C301.603 235.008 301.663 234.839 301.675 234.663V228.968C301.662 229.143 301.602 229.311 301.5 229.455C301.399 229.598 301.26 229.711 301.099 229.781Z" fill="black"/>
<path opacity="0.25" d="M259.656 235.263L255.572 214.892C255.562 214.771 255.562 214.65 255.572 214.529C255.572 214.923 255.572 220.007 255.572 220.255C255.564 220.36 255.564 220.466 255.572 220.571L259.656 240.942C259.683 241.061 259.726 241.176 259.785 241.284V235.589C259.728 235.487 259.684 235.377 259.656 235.263Z" fill="black"/>
<path opacity="0.35" d="M268.187 240.497C267.694 240.511 267.206 240.397 266.77 240.166L261.228 236.966C260.621 236.676 260.118 236.209 259.785 235.625V241.32C260.117 241.905 260.621 242.375 261.228 242.666L266.77 245.86C267.205 246.093 267.693 246.209 268.187 246.197C268.238 246.205 268.291 246.205 268.343 246.197V240.497C268.291 240.502 268.239 240.502 268.187 240.497Z" fill="black"/>
<path opacity="0.2" d="M269.599 240.15C269.213 240.358 268.782 240.469 268.343 240.47V246.165C268.782 246.168 269.215 246.058 269.599 245.844L286.08 236.355V230.66L269.599 240.15Z" fill="black"/>
<path opacity="0.35" d="M291.421 233.725L286.081 230.66V236.355L291.416 239.43C291.848 239.664 292.336 239.778 292.827 239.761V234.067C292.336 234.082 291.85 233.964 291.421 233.725Z" fill="black"/>
<path d="M294.243 233.725C293.804 233.943 293.321 234.057 292.831 234.057C292.342 234.057 291.858 233.943 291.42 233.725L286.08 230.66L269.598 240.155C269.16 240.373 268.677 240.486 268.187 240.486C267.697 240.486 267.214 240.373 266.775 240.155L261.228 236.961C260.32 236.443 259.795 235.879 259.671 235.273L255.592 214.902C255.511 214.589 255.548 214.257 255.696 213.97C255.933 213.664 256.236 213.416 256.583 213.245L264.487 208.695C264.925 208.477 265.408 208.363 265.898 208.363C266.388 208.363 266.871 208.477 267.31 208.695L287.403 220.265L291.902 217.677C292.34 217.454 292.825 217.338 293.317 217.338C293.808 217.338 294.293 217.454 294.731 217.677L300.278 220.871C300.446 220.931 300.59 221.042 300.692 221.187C300.795 221.333 300.849 221.506 300.849 221.684C300.849 221.861 300.795 222.034 300.692 222.18C300.59 222.325 300.446 222.436 300.278 222.496L295.779 225.085L301.114 228.155C301.283 228.214 301.429 228.325 301.533 228.471C301.637 228.617 301.692 228.791 301.692 228.97C301.692 229.149 301.637 229.324 301.533 229.47C301.429 229.616 301.283 229.726 301.114 229.786L294.243 233.725ZM277.969 225.68L268.342 220.136L270.33 230.081L277.969 225.68Z" fill="#072AC8"/>
<path d="M258.772 277.854C258.905 277.784 259.053 277.75 259.203 277.756C259.353 277.75 259.501 277.784 259.634 277.854L261.32 278.833C261.372 278.85 261.418 278.883 261.45 278.927C261.482 278.971 261.499 279.024 261.499 279.078C261.499 279.133 261.482 279.186 261.45 279.23C261.418 279.274 261.372 279.307 261.32 279.324L253.765 283.678C253.633 283.75 253.484 283.786 253.334 283.782C253.184 283.786 253.035 283.751 252.903 283.678L242.602 277.771C242.542 277.759 242.488 277.727 242.45 277.68C242.411 277.633 242.39 277.573 242.39 277.512C242.39 277.451 242.411 277.392 242.45 277.345C242.488 277.298 242.542 277.266 242.602 277.254L250.033 272.977C250.165 272.905 250.314 272.869 250.464 272.874C250.614 272.871 250.763 272.906 250.895 272.977L252.581 273.951C252.633 273.968 252.679 274.001 252.711 274.045C252.743 274.089 252.76 274.142 252.76 274.197C252.76 274.251 252.743 274.304 252.711 274.348C252.679 274.393 252.633 274.426 252.581 274.443L247.677 277.254L249.4 278.242L253.962 275.618C254.094 275.547 254.243 275.513 254.393 275.519C254.542 275.514 254.691 275.548 254.823 275.618L256.51 276.591C256.57 276.603 256.624 276.635 256.662 276.683C256.701 276.73 256.722 276.789 256.722 276.85C256.722 276.911 256.701 276.97 256.662 277.017C256.624 277.064 256.57 277.097 256.51 277.109L251.948 279.733L253.739 280.769L258.772 277.854Z" fill="#455A64"/>
<path d="M261.29 269.793C261.422 269.722 261.57 269.686 261.72 269.689C261.871 269.685 262.019 269.721 262.151 269.793L263.765 270.72C263.825 270.732 263.879 270.764 263.918 270.811C263.956 270.858 263.978 270.917 263.978 270.978C263.978 271.039 263.956 271.099 263.918 271.146C263.879 271.193 263.825 271.225 263.765 271.237L262.312 272.076C261.336 272.642 261.336 273.206 262.312 273.769L266.235 276.026C266.295 276.038 266.349 276.07 266.388 276.117C266.427 276.165 266.448 276.224 266.448 276.285C266.448 276.346 266.427 276.405 266.388 276.452C266.349 276.499 266.295 276.532 266.235 276.544L264.227 277.698C264.095 277.77 263.946 277.806 263.796 277.802C263.646 277.806 263.497 277.77 263.365 277.698L255.934 273.422C255.874 273.41 255.82 273.378 255.782 273.33C255.743 273.283 255.722 273.224 255.722 273.163C255.722 273.102 255.743 273.043 255.782 272.996C255.82 272.949 255.874 272.916 255.934 272.904L257.782 271.838C257.914 271.766 258.062 271.73 258.212 271.734C258.363 271.73 258.511 271.765 258.643 271.838L259.012 272.05C259.032 271.745 259.14 271.452 259.323 271.206C259.596 270.857 259.941 270.571 260.335 270.368L261.29 269.793Z" fill="#455A64"/>
<path d="M269.012 265.346C269.143 265.274 269.292 265.238 269.442 265.243C269.593 265.239 269.741 265.274 269.873 265.346L271.482 266.273C271.542 266.285 271.596 266.317 271.634 266.364C271.673 266.412 271.694 266.471 271.694 266.532C271.694 266.593 271.673 266.652 271.634 266.699C271.596 266.746 271.542 266.778 271.482 266.79L270.029 267.624C269.053 268.187 269.053 268.751 270.029 269.317L273.952 271.574C274.012 271.586 274.066 271.618 274.105 271.666C274.143 271.713 274.164 271.772 274.164 271.833C274.164 271.894 274.143 271.953 274.105 272C274.066 272.047 274.012 272.08 273.952 272.092L271.944 273.251C271.811 273.322 271.663 273.356 271.513 273.35C271.363 273.355 271.215 273.321 271.082 273.251L263.651 268.97C263.591 268.958 263.537 268.926 263.498 268.878C263.46 268.831 263.438 268.772 263.438 268.711C263.438 268.65 263.46 268.591 263.498 268.544C263.537 268.497 263.591 268.464 263.651 268.452L265.504 267.386C265.636 267.315 265.785 267.281 265.934 267.287C266.084 267.283 266.232 267.316 266.365 267.386L266.728 267.598C266.749 267.295 266.857 267.003 267.04 266.759C267.313 266.41 267.658 266.122 268.052 265.916L269.012 265.346Z" fill="#455A64"/>
<path d="M282.728 261.526C282.894 261.608 283.106 261.722 283.355 261.867C283.605 262.012 283.807 262.131 283.952 262.23C284.39 262.486 284.761 262.84 285.037 263.265C285.264 263.615 285.368 264.03 285.333 264.445C285.274 264.902 285.081 265.331 284.777 265.678C284.36 266.157 283.859 266.557 283.298 266.858C282.656 267.23 281.966 267.515 281.249 267.707C280.553 267.896 279.837 268.004 279.116 268.028C278.428 268.05 277.74 267.993 277.066 267.857C276.444 267.736 275.843 267.527 275.281 267.236C275.109 267.148 274.897 267.034 274.648 266.889C274.399 266.744 274.201 266.625 274.051 266.527C273.606 266.274 273.229 265.919 272.951 265.491C272.722 265.14 272.622 264.722 272.665 264.306C272.728 263.849 272.921 263.419 273.221 263.068C273.631 262.585 274.129 262.183 274.689 261.883C275.339 261.507 276.038 261.221 276.765 261.034C277.469 260.85 278.191 260.742 278.919 260.713C279.606 260.69 280.294 260.747 280.968 260.884C281.582 261.015 282.174 261.231 282.728 261.526ZM278.057 265.527C278.487 265.744 278.966 265.846 279.448 265.823C279.93 265.807 280.401 265.672 280.818 265.429C281.243 265.184 281.472 264.92 281.503 264.637C281.534 264.357 281.368 264.088 280.984 263.84C280.818 263.719 280.645 263.608 280.465 263.508C280.268 263.395 280.076 263.296 279.894 263.213C279.461 263.002 278.982 262.9 278.501 262.918C278.019 262.936 277.549 263.073 277.133 263.317C276.708 263.56 276.479 263.835 276.448 264.104C276.417 264.373 276.588 264.653 276.967 264.906C277.306 265.15 277.67 265.358 278.052 265.527H278.057Z" fill="#455A64"/>
<path d="M286.874 255.059C287.006 254.987 287.154 254.951 287.305 254.956C287.455 254.952 287.604 254.988 287.735 255.059L289.344 255.986C289.404 255.998 289.458 256.031 289.497 256.078C289.535 256.125 289.557 256.184 289.557 256.245C289.557 256.306 289.535 256.365 289.497 256.412C289.458 256.459 289.404 256.492 289.344 256.504L287.891 257.337C286.915 257.9 286.915 258.464 287.891 259.03L291.814 261.287C291.874 261.299 291.928 261.332 291.967 261.379C292.006 261.426 292.027 261.485 292.027 261.546C292.027 261.607 292.006 261.666 291.967 261.714C291.928 261.761 291.874 261.793 291.814 261.805L289.806 262.96C289.674 263.032 289.526 263.068 289.375 263.063C289.225 263.066 289.077 263.031 288.945 262.96L281.513 258.683C281.453 258.671 281.399 258.639 281.361 258.592C281.322 258.545 281.301 258.486 281.301 258.425C281.301 258.364 281.322 258.304 281.361 258.257C281.399 258.21 281.453 258.178 281.513 258.166L283.366 257.099C283.498 257.027 283.646 256.991 283.797 256.996C283.947 256.992 284.095 257.028 284.227 257.099L284.591 257.311C284.611 257.006 284.719 256.713 284.902 256.468C285.175 256.119 285.52 255.832 285.914 255.629L286.874 255.059Z" fill="#455A64"/>
</svg>
